<?xml version="1.0" encoding="UTF-8"?>
<svg width="1601px" height="201px" viewBox="0 0 1601 201" version="1.1" xmlns="http://www.w3.org/2000/svg" xmlns:xlink="http://www.w3.org/1999/xlink">
    <!-- Generator: Sketch 61 (89581) - https://sketch.com -->
    <title>puzzle_new_32x4</title>
    <desc>Created with Sketch.</desc>
    <g id="Page-1" stroke="none" stroke-width="1" fill="none" fill-rule="evenodd">
        <g id="puzzle_new_32x4" transform="translate(0.500000, 0.500000)" stroke="#000000">
            <g id="Group">
                <path d="M0,53 C37,51 5,62 23,61 C41,60 9,52 46,50" id="Path"></path>
                <path d="M46,50 C87,51 52,60 72,60 C92,60 56,50 97,51" id="Path"></path>
                <path d="M97,51 C143,53 103,61 126,62 C149,63 109,52 155,54" id="Path"></path>
                <path d="M155,54 C195,51 160,63 180,61 C200,59 165,53 205,50" id="Path"></path>
                <path d="M205,50 C246,51 211,60 231,60 C251,60 215,50 256,51" id="Path"></path>
                <path d="M256,51 C295,46 261,59 281,57 C301,55 266,50 305,45" id="Path"></path>
                <path d="M305,45 C337,44 309,36 325,36 C341,36 313,45 345,44" id="Path"></path>
                <path d="M345,44 C389,49 351,36 373,38 C395,40 356,45 400,50" id="Path"></path>
                <path d="M400,50 C437,52 405,60 423,61 C441,62 409,51 446,53" id="Path"></path>
                <path d="M446,53 C486,48 451,43 471,41 C491,39 456,52 496,47" id="Path"></path>
                <path d="M496,47 C538,53 501,57 522,60 C543,63 506,49 548,55" id="Path"></path>
                <path d="M548,55 C594,52 554,64 577,62 C600,60 559,54 605,51" id="Path"></path>
                <path d="M605,51 C642,51 610,42 628,42 C646,42 614,51 651,51" id="Path"></path>
                <path d="M651,51 C695,55 657,61 679,63 C701,65 662,52 706,56" id="Path"></path>
                <path d="M706,56 C744,49 711,65 730,61 C749,57 716,54 754,47" id="Path"></path>
                <path d="M754,47 C788,52 759,57 776,59 C793,61 763,48 797,53" id="Path"></path>
                <path d="M797,53 C843,50 803,62 826,60 C849,58 809,52 855,49" id="Path"></path>
                <path d="M855,49 C887,47 859,40 875,39 C891,38 863,48 895,46" id="Path"></path>
                <path d="M895,46 C941,50 901,56 924,58 C947,60 906,47 952,51" id="Path"></path>
                <path d="M952,51 C987,54 956,60 974,62 C992,64 961,52 996,55" id="Path"></path>
                <path d="M996,55 C1037,56 1002,47 1022,47 C1042,47 1006,55 1047,56" id="Path"></path>
                <path d="M1047,56 C1089,47 1052,46 1073,42 C1094,38 1057,54 1099,45" id="Path"></path>
                <path d="M1099,45 C1137,51 1104,55 1123,58 C1142,61 1108,47 1146,53" id="Path"></path>
                <path d="M1146,53 C1187,50 1152,44 1172,42 C1192,40 1156,52 1197,49" id="Path"></path>
                <path d="M1197,49 C1237,48 1202,58 1222,58 C1242,58 1207,49 1247,48" id="Path"></path>
                <path d="M1247,48 C1289,46 1252,57 1273,56 C1294,55 1257,47 1299,45" id="Path"></path>
                <path d="M1299,45 C1336,51 1304,55 1322,58 C1340,61 1308,46 1345,52" id="Path"></path>
                <path d="M1345,52 C1389,52 1351,43 1373,43 C1395,43 1356,52 1400,52" id="Path"></path>
                <path d="M1400,52 C1437,55 1405,43 1423,45 C1441,47 1409,53 1446,56" id="Path"></path>
                <path d="M1446,56 C1494,54 1452,65 1476,64 C1500,63 1458,56 1506,54" id="Path"></path>
                <path d="M1506,54 C1538,48 1510,63 1526,60 C1542,57 1514,53 1546,47" id="Path"></path>
                <path d="M1546,47 C1589,45 1551,56 1573,55 C1595,54 1557,46 1600,44" id="Path"></path>
                <path d="M0,100 C39,102 5,110 25,111 C45,112 10,101 49,103" id="Path"></path>
                <path d="M49,103 C87,101 54,112 73,111 C92,110 58,103 96,101" id="Path"></path>
                <path d="M96,101 C142,102 102,111 125,111 C148,111 107,101 153,102" id="Path"></path>
                <path d="M153,102 C193,97 158,92 178,90 C198,88 163,101 203,96" id="Path"></path>
                <path d="M203,96 C240,103 208,88 226,92 C244,96 212,98 249,105" id="Path"></path>
                <path d="M249,105 C292,99 254,113 276,110 C298,107 260,103 303,97" id="Path"></path>
                <path d="M303,97 C341,103 308,107 327,110 C346,113 312,99 350,105" id="Path"></path>
                <path d="M350,105 C391,99 356,95 376,92 C396,89 360,103 401,97" id="Path"></path>
                <path d="M401,97 C438,95 406,106 424,105 C442,104 410,96 447,94" id="Path"></path>
                <path d="M447,94 C487,104 452,104 472,109 C492,114 457,96 497,106" id="Path"></path>
                <path d="M497,106 C535,100 502,114 521,111 C540,108 507,104 545,98" id="Path"></path>
                <path d="M545,98 C587,101 550,89 571,91 C592,93 555,99 597,102" id="Path"></path>
                <path d="M597,102 C640,102 602,111 624,111 C646,111 608,102 651,102" id="Path"></path>
                <path d="M651,102 C695,100 657,93 679,92 C701,91 662,102 706,100" id="Path"></path>
                <path d="M706,100 C736,97 710,91 725,89 C740,87 714,99 744,96" id="Path"></path>
                <path d="M744,96 C788,98 750,87 772,88 C794,89 755,96 799,98" id="Path"></path>
                <path d="M799,98 C843,96 805,107 827,106 C849,105 810,98 854,96" id="Path"></path>
                <path d="M854,96 C890,102 859,106 877,109 C895,112 863,98 899,104" id="Path"></path>
                <path d="M899,104 C944,106 905,113 927,114 C949,115 910,104 955,106" id="Path"></path>
                <path d="M955,106 C991,99 960,97 978,93 C996,89 964,104 1000,97" id="Path"></path>
                <path d="M1000,97 C1044,102 1006,107 1028,109 C1050,111 1011,98 1055,103" id="Path"></path>
                <path d="M1055,103 C1093,96 1060,94 1079,90 C1098,86 1064,101 1102,94" id="Path"></path>
                <path d="M1102,94 C1140,100 1107,86 1126,89 C1145,92 1111,95 1149,101" id="Path"></path>
                <path d="M1149,101 C1190,105 1155,111 1175,113 C1195,115 1159,102 1200,106" id="Path"></path>
                <path d="M1200,106 C1237,103 1205,115 1223,113 C1241,111 1209,105 1246,102" id="Path"></path>
                <path d="M1246,102 C1290,103 1252,94 1274,94 C1296,94 1257,102 1301,103" id="Path"></path>
                <path d="M1301,103 C1336,103 1305,94 1323,94 C1341,94 1310,103 1345,103" id="Path"></path>
                <path d="M1345,103 C1390,102 1351,94 1373,94 C1395,94 1356,103 1401,102" id="Path"></path>
                <path d="M1401,102 C1435,96 1406,93 1423,90 C1440,87 1410,101 1444,95" id="Path"></path>
                <path d="M1444,95 C1490,100 1450,87 1473,89 C1496,91 1455,96 1501,101" id="Path"></path>
                <path d="M1501,101 C1536,99 1505,92 1523,91 C1541,90 1510,100 1545,98" id="Path"></path>
                <path d="M1545,98 C1589,99 1551,108 1573,108 C1595,108 1556,98 1600,99" id="Path"></path>
                <path d="M0,151 C38,148 5,142 24,140 C43,138 10,150 48,147" id="Path"></path>
                <path d="M48,147 C86,153 53,157 72,160 C91,163 58,149 96,155" id="Path"></path>
                <path d="M96,155 C135,156 101,147 121,147 C141,147 106,155 145,156" id="Path"></path>
                <path d="M145,156 C190,147 151,164 173,160 C195,156 156,154 201,145" id="Path"></path>
                <path d="M201,145 C241,147 206,137 226,138 C246,139 211,146 251,148" id="Path"></path>
                <path d="M251,148 C289,148 256,157 275,157 C294,157 261,148 299,148" id="Path"></path>
                <path d="M299,148 C335,148 304,139 322,139 C340,139 308,148 344,148" id="Path"></path>
                <path d="M344,148 C390,149 350,158 373,158 C396,158 355,148 401,149" id="Path"></path>
                <path d="M401,149 C445,154 407,141 429,143 C451,145 412,150 456,155" id="Path"></path>
                <path d="M456,155 C494,155 461,146 480,146 C499,146 465,155 503,155" id="Path"></path>
                <path d="M503,155 C536,151 508,146 524,144 C540,142 511,154 544,150" id="Path"></path>
                <path d="M544,150 C592,153 550,159 574,161 C598,163 556,151 604,154" id="Path"></path>
                <path d="M604,154 C641,149 609,144 627,142 C645,140 613,153 650,148" id="Path"></path>
                <path d="M650,148 C692,149 656,158 677,158 C698,158 661,148 703,149" id="Path"></path>
                <path d="M703,149 C741,151 708,159 727,160 C746,161 713,150 751,152" id="Path"></path>
                <path d="M751,152 C793,146 757,161 778,158 C799,155 762,151 804,145" id="Path"></path>
                <path d="M804,145 C842,151 809,137 828,140 C847,143 813,146 851,152" id="Path"></path>
                <path d="M851,152 C895,154 857,162 879,163 C901,164 862,153 906,155" id="Path"></path>
                <path d="M906,155 C937,155 910,146 926,146 C942,146 914,155 945,155" id="Path"></path>
                <path d="M945,155 C986,151 951,146 971,144 C991,142 955,154 996,150" id="Path"></path>
                <path d="M996,150 C1040,155 1002,160 1024,162 C1046,164 1007,151 1051,156" id="Path"></path>
                <path d="M1051,156 C1091,152 1056,147 1076,145 C1096,143 1061,155 1101,151" id="Path"></path>
                <path d="M1101,151 C1141,155 1106,143 1126,145 C1146,147 1111,152 1151,156" id="Path"></path>
                <path d="M1151,156 C1188,148 1156,146 1174,142 C1192,138 1160,154 1197,146" id="Path"></path>
                <path d="M1197,146 C1239,144 1203,137 1224,136 C1245,135 1208,146 1250,144" id="Path"></path>
                <path d="M1250,144 C1289,146 1255,154 1275,155 C1295,156 1260,145 1299,147" id="Path"></path>
                <path d="M1299,147 C1344,148 1305,157 1327,157 C1349,157 1310,147 1355,148" id="Path"></path>
                <path d="M1355,148 C1393,154 1360,158 1379,161 C1398,164 1365,149 1403,155" id="Path"></path>
                <path d="M1403,155 C1439,153 1408,146 1426,145 C1444,144 1412,155 1448,153" id="Path"></path>
                <path d="M1448,153 C1490,154 1453,163 1474,163 C1495,163 1458,153 1500,154" id="Path"></path>
                <path d="M1500,154 C1545,146 1506,144 1528,140 C1550,136 1511,152 1556,144" id="Path"></path>
                <path d="M1556,144 C1591,153 1560,137 1578,141 C1596,145 1565,146 1600,155" id="Path"></path>
                <path d="M52,0 C47,40 42,5 40,25 C38,45 51,10 46,50" id="Path"></path>
                <path d="M46,50 C48,92 56,56 57,77 C58,98 47,61 49,103" id="Path"></path>
                <path d="M49,103 C48,138 58,107 58,125 C58,143 49,112 48,147" id="Path"></path>
                <path d="M48,147 C46,189 39,153 38,174 C37,195 48,158 46,200" id="Path"></path>
                <path d="M97,0 C97,41 88,6 88,26 C88,46 97,10 97,51" id="Path"></path>
                <path d="M97,51 C96,91 88,56 88,76 C88,96 97,61 96,101" id="Path"></path>
                <path d="M96,101 C96,144 87,106 87,128 C87,150 96,112 96,155" id="Path"></path>
                <path d="M96,155 C98,191 87,160 88,178 C89,196 96,164 98,200" id="Path"></path>
                <path d="M148,0 C154,43 140,5 143,27 C146,49 149,11 155,54" id="Path"></path>
                <path d="M155,54 C153,92 146,59 145,78 C144,97 155,64 153,102" id="Path"></path>
                <path d="M153,102 C147,145 161,107 158,129 C155,151 151,113 145,156" id="Path"></path>
                <path d="M145,156 C151,191 137,160 140,178 C143,196 147,165 153,200" id="Path"></path>
                <path d="M198,0 C204,40 208,5 211,25 C214,45 199,10 205,50" id="Path"></path>
                <path d="M205,50 C203,87 214,55 213,73 C212,91 205,59 203,96" id="Path"></path>
                <path d="M203,96 C201,135 194,101 193,121 C192,141 203,106 201,145" id="Path"></path>
                <path d="M201,145 C204,189 192,151 194,173 C196,195 202,156 205,200" id="Path"></path>
                <path d="M245,0 C254,41 238,6 242,26 C246,46 247,10 256,51" id="Path"></path>
                <path d="M256,51 C250,94 247,56 244,78 C241,100 255,62 249,105" id="Path"></path>
                <path d="M249,105 C251,139 240,110 241,127 C242,144 249,114 251,148" id="Path"></path>
                <path d="M251,148 C246,190 241,153 239,174 C237,195 250,158 245,200" id="Path"></path>
                <path d="M305,0 C305,36 314,5 314,23 C314,41 305,9 305,45" id="Path"></path>
                <path d="M305,45 C303,87 296,50 295,71 C294,92 305,55 303,97" id="Path"></path>
                <path d="M303,97 C300,138 312,103 310,123 C308,143 302,107 299,148" id="Path"></path>
                <path d="M299,148 C297,190 308,153 307,174 C306,195 298,158 296,200" id="Path"></path>
                <path d="M356,0 C347,35 346,4 342,22 C338,40 354,9 345,44" id="Path"></path>
                <path d="M345,44 C349,93 337,51 339,75 C341,99 346,56 350,105" id="Path"></path>
                <path d="M350,105 C345,139 340,110 338,127 C336,144 349,114 344,148" id="Path"></path>
                <path d="M344,148 C350,190 336,153 339,174 C342,195 346,158 352,200" id="Path"></path>
                <path d="M395,0 C399,40 387,5 389,25 C391,45 396,10 400,50" id="Path"></path>
                <path d="M400,50 C401,88 392,55 392,74 C392,93 400,59 401,97" id="Path"></path>
                <path d="M401,97 C401,139 392,102 392,123 C392,144 401,107 401,149" id="Path"></path>
                <path d="M401,149 C398,190 410,155 408,175 C406,195 400,159 397,200" id="Path"></path>
                <path d="M456,0 C448,42 446,6 442,27 C438,48 454,11 446,53" id="Path"></path>
                <path d="M446,53 C447,86 456,58 456,74 C456,90 446,61 447,94" id="Path"></path>
                <path d="M447,94 C454,143 457,101 461,125 C465,149 449,106 456,155" id="Path"></path>
                <path d="M456,155 C454,191 447,160 446,178 C445,196 456,164 454,200" id="Path"></path>
                <path d="M498,0 C496,38 489,5 488,24 C487,43 498,9 496,47" id="Path"></path>
                <path d="M496,47 C497,94 488,53 488,77 C488,101 496,59 497,106" id="Path"></path>
                <path d="M497,106 C502,145 507,111 509,131 C511,151 498,116 503,155" id="Path"></path>
                <path d="M503,155 C501,191 494,160 493,178 C492,196 502,164 500,200" id="Path"></path>
                <path d="M555,0 C549,44 564,6 561,28 C558,50 554,11 548,55" id="Path"></path>
                <path d="M548,55 C546,89 539,60 538,77 C537,94 547,64 545,98" id="Path"></path>
                <path d="M545,98 C544,140 554,103 554,124 C554,145 545,108 544,150" id="Path"></path>
                <path d="M544,150 C553,190 537,155 541,175 C545,195 546,160 555,200" id="Path"></path>
                <path d="M606,0 C605,41 597,6 597,26 C597,46 606,10 605,51" id="Path"></path>
                <path d="M605,51 C599,92 613,57 610,77 C607,97 603,61 597,102" id="Path"></path>
                <path d="M597,102 C603,144 607,107 610,128 C613,149 598,112 604,154" id="Path"></path>
                <path d="M604,154 C602,191 613,159 612,177 C611,195 604,163 602,200" id="Path"></path>
                <path d="M655,0 C652,41 664,6 662,26 C660,46 654,10 651,51" id="Path"></path>
                <path d="M651,51 C651,92 642,57 642,77 C642,97 651,61 651,102" id="Path"></path>
                <path d="M651,102 C650,139 642,107 642,125 C642,143 651,111 650,148" id="Path"></path>
                <path d="M650,148 C653,190 641,153 643,174 C645,195 651,158 654,200" id="Path"></path>
                <path d="M700,0 C705,45 710,6 712,28 C714,50 701,11 706,56" id="Path"></path>
                <path d="M706,56 C706,91 715,60 715,78 C715,96 706,65 706,100" id="Path"></path>
                <path d="M706,100 C704,139 715,105 714,125 C713,145 705,110 703,149" id="Path"></path>
                <path d="M703,149 C699,190 694,155 692,175 C690,195 702,159 698,200" id="Path"></path>
                <path d="M756,0 C754,38 765,5 764,24 C763,43 756,9 754,47" id="Path"></path>
                <path d="M754,47 C746,86 762,52 758,72 C754,92 752,57 744,96" id="Path"></path>
                <path d="M744,96 C750,141 754,102 757,124 C760,146 745,107 751,152" id="Path"></path>
                <path d="M751,152 C747,190 742,157 740,176 C738,195 750,162 746,200" id="Path"></path>
                <path d="M806,0 C799,42 815,6 811,27 C807,48 804,11 797,53" id="Path"></path>
                <path d="M797,53 C799,89 806,58 807,76 C808,94 797,62 799,98" id="Path"></path>
                <path d="M799,98 C803,136 791,103 793,122 C795,141 800,107 804,145" id="Path"></path>
                <path d="M804,145 C805,189 796,151 796,173 C796,195 804,156 805,200" id="Path"></path>
                <path d="M846,0 C853,39 856,5 860,25 C864,45 848,10 855,49" id="Path"></path>
                <path d="M855,49 C854,87 846,54 846,73 C846,92 855,58 854,96" id="Path"></path>
                <path d="M854,96 C852,141 863,102 862,124 C861,146 853,107 851,152" id="Path"></path>
                <path d="M851,152 C855,190 861,157 863,176 C865,195 852,162 856,200" id="Path"></path>
                <path d="M900,0 C896,37 909,5 907,23 C905,41 899,9 895,46" id="Path"></path>
                <path d="M895,46 C898,92 886,52 888,75 C890,98 896,58 899,104" id="Path"></path>
                <path d="M899,104 C905,145 909,110 912,130 C915,150 900,114 906,155" id="Path"></path>
                <path d="M906,155 C899,191 897,160 893,178 C889,196 904,164 897,200" id="Path"></path>
                <path d="M953,0 C952,41 944,6 944,26 C944,46 953,10 952,51" id="Path"></path>
                <path d="M952,51 C954,95 944,57 945,79 C946,101 953,62 955,106" id="Path"></path>
                <path d="M955,106 C947,145 945,111 941,131 C937,151 953,116 945,155" id="Path"></path>
                <path d="M945,155 C954,191 938,160 942,178 C946,196 947,164 956,200" id="Path"></path>
                <path d="M997,0 C996,44 1006,6 1006,28 C1006,50 997,11 996,55" id="Path"></path>
                <path d="M996,55 C999,89 1005,59 1007,76 C1009,93 997,63 1000,97" id="Path"></path>
                <path d="M1000,97 C997,139 1009,103 1007,124 C1005,145 999,108 996,150" id="Path"></path>
                <path d="M996,150 C1002,190 988,155 991,175 C994,195 997,160 1003,200" id="Path"></path>
                <path d="M1055,0 C1049,45 1045,6 1042,28 C1039,50 1053,11 1047,56" id="Path"></path>
                <path d="M1047,56 C1053,94 1039,61 1042,80 C1045,99 1049,65 1055,103" id="Path"></path>
                <path d="M1055,103 C1052,145 1064,109 1062,130 C1060,151 1054,114 1051,156" id="Path"></path>
                <path d="M1051,156 C1055,191 1043,160 1045,178 C1047,196 1052,165 1056,200" id="Path"></path>
                <path d="M1105,0 C1100,36 1095,5 1093,23 C1091,41 1104,9 1099,45" id="Path"></path>
                <path d="M1099,45 C1101,84 1091,50 1092,70 C1093,90 1100,55 1102,94" id="Path"></path>
                <path d="M1102,94 C1101,140 1111,100 1111,123 C1111,146 1102,105 1101,151" id="Path"></path>
                <path d="M1101,151 C1096,190 1109,156 1107,176 C1105,196 1100,161 1095,200" id="Path"></path>
                <path d="M1151,0 C1147,42 1160,6 1158,27 C1156,48 1150,11 1146,53" id="Path"></path>
                <path d="M1146,53 C1148,91 1156,58 1157,77 C1158,96 1147,63 1149,101" id="Path"></path>
                <path d="M1149,101 C1151,145 1140,107 1141,129 C1142,151 1149,112 1151,156" id="Path"></path>
                <path d="M1151,156 C1151,191 1142,160 1142,178 C1142,196 1151,165 1151,200" id="Path"></path>
                <path d="M1202,0 C1198,39 1193,5 1191,25 C1189,45 1201,10 1197,49" id="Path"></path>
                <path d="M1197,49 C1199,95 1189,55 1190,78 C1191,101 1198,60 1200,106" id="Path"></path>
                <path d="M1200,106 C1198,138 1191,110 1190,126 C1189,142 1199,114 1197,146" id="Path"></path>
                <path d="M1197,146 C1199,189 1206,151 1207,173 C1208,195 1197,157 1199,200" id="Path"></path>
                <path d="M1245,0 C1247,38 1236,5 1237,24 C1238,43 1245,10 1247,48" id="Path"></path>
                <path d="M1247,48 C1246,91 1256,53 1256,75 C1256,97 1247,59 1246,102" id="Path"></path>
                <path d="M1246,102 C1249,136 1237,106 1239,123 C1241,140 1247,110 1250,144" id="Path"></path>
                <path d="M1250,144 C1246,189 1241,150 1239,172 C1237,194 1249,155 1245,200" id="Path"></path>
                <path d="M1302,0 C1300,36 1293,5 1292,23 C1291,41 1301,9 1299,45" id="Path"></path>
                <path d="M1299,45 C1301,91 1308,51 1309,74 C1310,97 1299,57 1301,103" id="Path"></path>
                <path d="M1301,103 C1299,138 1310,107 1309,125 C1308,143 1301,112 1299,147" id="Path"></path>
                <path d="M1299,147 C1303,189 1291,153 1293,174 C1295,195 1300,158 1304,200" id="Path"></path>
                <path d="M1355,0 C1347,42 1363,5 1359,26 C1355,47 1353,10 1345,52" id="Path"></path>
                <path d="M1345,52 C1345,93 1336,58 1336,78 C1336,98 1345,62 1345,103" id="Path"></path>
                <path d="M1345,103 C1353,139 1337,108 1341,126 C1345,144 1347,112 1355,148" id="Path"></path>
                <path d="M1355,148 C1352,190 1364,153 1362,174 C1360,195 1354,158 1351,200" id="Path"></path>
                <path d="M1395,0 C1399,42 1387,5 1389,26 C1391,47 1396,10 1400,52" id="Path"></path>
                <path d="M1400,52 C1401,92 1392,57 1392,77 C1392,97 1400,62 1401,102" id="Path"></path>
                <path d="M1401,102 C1403,144 1392,108 1393,129 C1394,150 1401,113 1403,155" id="Path"></path>
                <path d="M1403,155 C1398,191 1393,160 1391,178 C1389,196 1402,164 1397,200" id="Path"></path>
                <path d="M1452,0 C1447,45 1442,6 1440,28 C1438,50 1451,11 1446,56" id="Path"></path>
                <path d="M1446,56 C1444,87 1455,60 1454,76 C1453,92 1446,64 1444,95" id="Path"></path>
                <path d="M1444,95 C1447,141 1435,101 1437,124 C1439,147 1445,107 1448,153" id="Path"></path>
                <path d="M1448,153 C1446,191 1439,158 1438,177 C1437,196 1447,162 1445,200" id="Path"></path>
                <path d="M1498,0 C1504,43 1490,5 1493,27 C1496,49 1500,11 1506,54" id="Path"></path>
                <path d="M1506,54 C1502,92 1497,59 1495,78 C1493,97 1505,63 1501,101" id="Path"></path>
                <path d="M1501,101 C1500,143 1510,107 1510,128 C1510,149 1501,112 1500,154" id="Path"></path>
                <path d="M1500,154 C1504,191 1510,159 1512,177 C1514,195 1501,163 1505,200" id="Path"></path>
                <path d="M1546,0 C1546,38 1537,5 1537,24 C1537,43 1546,9 1546,47" id="Path"></path>
                <path d="M1546,47 C1545,88 1537,53 1537,73 C1537,93 1546,57 1545,98" id="Path"></path>
                <path d="M1545,98 C1554,135 1556,103 1560,121 C1564,139 1547,107 1556,144" id="Path"></path>
                <path d="M1556,144 C1554,189 1547,150 1546,172 C1545,194 1556,155 1554,200" id="Path"></path>
            </g>
            <rect id="Rectangle" fill-opacity="0" fill="#000000" fill-rule="nonzero" x="0" y="0" width="1600" height="200"></rect>
        </g>
    </g>
</svg>