<?xml version="1.0" encoding="UTF-8"?>
<svg width="801px" height="242px" viewBox="0 0 801 242" version="1.1" xmlns="http://www.w3.org/2000/svg" xmlns:xlink="http://www.w3.org/1999/xlink">
    <!-- Generator: Sketch 61 (89581) - https://sketch.com -->
    <title>SVG Layer</title>
    <desc>Created with Sketch.</desc>
    <g id="Page-1" stroke="none" stroke-width="1" fill="none" fill-rule="evenodd" fill-opacity="0">
        <g id="SVG-Layer" transform="translate(0.500000, 1.000000)" fill="#000000" fill-rule="nonzero" stroke="#000000">
            <g id="Group">
                <g transform="translate(761.000000, 191.000000)" id="Path">
                    <path d="M0,11.3928571 C29.25,9.30357143 1.25357143,1.50357143 18.8035714,0.25"></path>
                    <path d="M39,8.60714286 C9.75,10.6964286 36.3535714,-1.00357143 18.8035714,0.25"></path>
                </g>
                <g transform="translate(751.000000, 202.000000)" id="Path">
                    <path d="M10,38 C10,9.79464286 0.598214286,36.1196429 0.598214286,19.1964286"></path>
                    <path d="M10,0.392857143 C10,28.5982143 0.598214286,2.27321429 0.598214286,19.1964286"></path>
                </g>
                <g transform="translate(779.500000, 123.500000) scale(-1, -1) translate(-779.500000, -123.500000) translate(759.000000, 117.000000)" id="Path">
                    <path d="M0.457446809,12.6702128 C30.8643617,10.1363032 1.63993794,2.36564716 19.8840869,0.845301418"></path>
                    <path d="M41,9.29166667 C10.5930851,11.8255762 38.1282358,-0.675044326 19.8840869,0.845301418"></path>
                </g>
                <g transform="translate(761.000000, 157.000000)" id="Path">
                    <path d="M39,2.43023256 C9.82954545,1.07346723 36.6030479,12.0632664 19.1007752,11.2492072"></path>
                    <path d="M0.106060606,0.621212121 C29.2765152,1.97797745 1.59850247,10.435148 19.1007752,11.2492072"></path>
                </g>
                <g transform="translate(750.000000, 122.000000)" id="Path">
                    <path d="M10.813087,35.3209142 C8.9668108,8.8576215 1.86890438,34.1721201 0.761138643,18.2941445"></path>
                    <path d="M8.35138539,0.0365239295 C10.1976616,26.4998166 -0.346627098,2.41616886 0.761138643,18.2941445"></path>
                </g>
                <g transform="translate(760.000000, 38.000000)" id="Path">
                    <path d="M40,0.663043478 C10.494349,2.58732506 38.6743838,10.6265459 20.9709932,11.7811149"></path>
                    <path d="M0.659132007,3.22875226 C30.164783,1.30447067 3.2676026,12.9356838 20.9709932,11.7811149"></path>
                </g>
                <g transform="translate(760.000000, 71.000000)" id="Path">
                    <path d="M0,9.46052632 C30,11.8289474 2.78947368,-0.381578947 20.7894737,1.03947368"></path>
                    <path d="M40,12.6184211 C10,10.25 38.7894737,2.46052632 20.7894737,1.03947368"></path>
                </g>
                <g transform="translate(750.000000, 41.000000)" id="Path">
                    <path d="M10,39.4605263 C10,10.4651316 0.334868421,37.5275 0.334868421,20.1302632"></path>
                    <path d="M10,0.8 C10,29.7953947 0.334868421,2.73302632 0.334868421,20.1302632"></path>
                </g>
                <g transform="translate(748.000000, 157.000000)" id="Path">
                    <path d="M9.88461538,42.5 C12.3006993,11.0909091 -0.424009324,39.6006993 1.02564103,20.7552448"></path>
                    <path d="M13.1060606,0.621212121 C10.6899767,32.030303 2.47529138,1.90979021 1.02564103,20.7552448"></path>
                </g>
                <g transform="translate(757.000000, 83.000000)" id="Path">
                    <path d="M0.525641026,0 C1.97449536,28.2526596 10.0397845,1.40055919 10.9090971,18.3521549"></path>
                    <path d="M2.45744681,37.6702128 C1.00859247,9.41755319 11.7784097,35.3037507 10.9090971,18.3521549"></path>
                </g>
                <g transform="translate(749.000000, 0.000000)" id="Path">
                    <path d="M11.659132,41.2287523 C10.8001997,10.3071881 1.29468179,39.4536254 0.779322383,20.9006869"></path>
                    <path d="M10.5138889,-4.2829861e-14 C11.3728212,30.9215642 0.26396298,2.34774839 0.779322383,20.9006869"></path>
                </g>
                <g transform="translate(721.000000, 39.000000)" id="Path">
                    <path d="M39,2.8 C10.4564846,0.897098976 36.4627986,12.1876451 19.3366894,11.0459044"></path>
                    <path d="M0.941979522,0.262798635 C29.4854949,2.16569966 2.2105802,9.90416382 19.3366894,11.0459044"></path>
                </g>
                <g transform="translate(712.000000, 0.000000)" id="Path">
                    <path d="M9.94197952,39.2627986 C10.6970333,9.81569966 0.176616785,37.0479741 0.629649077,19.3797147"></path>
                    <path d="M10.9487179,4.26325641e-14 C10.1936641,29.447099 1.08268137,1.71145533 0.629649077,19.3797147"></path>
                </g>
                <g transform="translate(722.000000, 199.000000)" id="Path">
                    <path d="M35.8846154,0.5 C9.34615385,0.5 34.1153846,9.34615385 18.1923077,9.34615385"></path>
                    <path d="M0.5,0.5 C27.0384615,0.5 2.26923077,9.34615385 18.1923077,9.34615385"></path>
                </g>
                <g transform="translate(709.000000, 200.000000)" id="Path">
                    <path d="M9,40 C12,10 -0.8,37 1,19"></path>
                    <path d="M13,0 C10,30 2.8,1 1,19"></path>
                </g>
                <g transform="translate(720.000000, 148.000000)" id="Path">
                    <path d="M0.5,11.5 C30.7348153,9.86568566 1.97088291,1.31277395 20.1117721,0.332185348"></path>
                    <path d="M40.813087,9.32091421 C10.5782718,10.9552286 38.2526612,-0.648403256 20.1117721,0.332185348"></path>
                </g>
                <g transform="translate(723.500000, 181.000000) scale(-1, -1) translate(-723.500000, -181.000000) translate(717.000000, 162.000000)" id="Path">
                    <path d="M12.5,37.5 C9.02507837,9.70062696 3.00188088,36.8050157 0.9169279,20.1253918"></path>
                    <path d="M7.86677116,0.434169279 C11.3416928,28.2335423 -1.16802508,3.44576803 0.9169279,20.1253918"></path>
                </g>
                <g transform="translate(722.000000, 83.000000)" id="Path">
                    <path d="M35.525641,0 C8.96794872,0 33.7551282,8.8525641 17.8205128,8.8525641"></path>
                    <path d="M0.115384615,0 C26.6730769,0 1.88589744,8.8525641 17.8205128,8.8525641"></path>
                </g>
                <g transform="translate(718.000000, 120.000000)" id="Path">
                    <path d="M40.3513854,2.03652393 C10.4003006,1.22703515 38.0848168,11.9662529 20.114166,11.4805597"></path>
                    <path d="M0.416605706,0.95720556 C30.3676905,1.76669434 2.1435151,10.9948664 20.114166,11.4805597"></path>
                </g>
                <g transform="translate(723.000000, 100.500000) scale(-1, -1) translate(-723.000000, -100.500000) translate(716.000000, 82.000000)" id="Path">
                    <path d="M7.55488851,36.1432247 C11.7252606,9.03580617 -1.20289286,32.9459394 1.29933039,16.6814883"></path>
                    <path d="M13.1153846,5.68434189e-14 C8.94501253,27.1074185 3.80155364,0.417037208 1.29933039,16.6814883"></path>
                </g>
                <g transform="translate(710.000000, 40.000000)" id="Path">
                    <path d="M10,40.5735294 C10,10.7303389 0.052269821,38.5839834 0.052269821,20.6780691"></path>
                    <path d="M10,0.782608696 C10,30.6257992 0.052269821,2.77215473 0.052269821,20.6780691"></path>
                </g>
                <g transform="translate(709.000000, 120.000000)" id="Path">
                    <path d="M11.5,39.5 C9.93745428,10.5929042 1.76013168,38.0937089 0.822604243,20.7494514"></path>
                    <path d="M9.41660571,0.95720556 C10.9791514,29.8643014 -0.114923189,3.40519386 0.822604243,20.7494514"></path>
                </g>
                <g transform="translate(684.000000, 39.000000)" id="Path">
                    <path d="M36,1.7826087 C9.04575163,0.610684854 33.8124088,10.6892299 17.6398598,9.98607559"></path>
                    <path d="M0.0610021786,0.220043573 C27.0152505,1.39196741 1.46731079,9.28292128 17.6398598,9.98607559"></path>
                </g>
                <g transform="translate(687.000000, 20.000000) scale(-1, -1) translate(-687.000000, -20.000000) translate(681.000000, 0.000000)" id="Path">
                    <path d="M11.0610022,39.2200436 C9.59025054,9.80501089 1.15794118,37.7492919 0.275490196,20.1002723"></path>
                    <path d="M9.1,-4.26325641e-14 C10.5707516,29.4150327 -0.606960784,2.45125272 0.275490196,20.1002723"></path>
                </g>
                <g transform="translate(681.000000, 110.000000)" id="Path">
                    <path d="M0.405902981,9.92431327 C26.7676421,9.33849684 1.96808012,1.09801246 17.7851236,0.746522602"></path>
                    <path d="M35.5548885,9.1432247 C9.19314936,9.72904113 33.6021671,0.395032746 17.7851236,0.746522602"></path>
                </g>
                <g transform="translate(682.000000, 153.000000)" id="Path">
                    <path d="M0.501316656,8.55003292 C27.0254075,9.21313519 2.49062347,-0.247123892 18.405078,0.150737472"></path>
                    <path d="M35.8667712,9.43416928 C9.34268028,8.77106701 34.3195325,0.548598835 18.405078,0.150737472"></path>
                </g>
                <g transform="translate(671.000000, 119.000000)" id="Path">
                    <path d="M11.5013167,42.5500329 C10.6797564,11.3307432 1.04011606,40.7426004 0.547179906,22.0110265"></path>
                    <path d="M10.405903,0.924313267 C11.2274632,32.143603 0.0542437521,3.27945267 0.547179906,22.0110265"></path>
                </g>
                <g transform="translate(700.000000, 85.000000) scale(-1, -1) translate(-700.000000, -85.000000) translate(679.000000, 79.000000)" id="Path">
                    <path d="M0.547093451,10.383738 C30.8867734,11.2760816 2.86718662,0.330000974 21.0709946,0.86540709"></path>
                    <path d="M41,11.5735294 C10.6603201,10.6811859 39.2748025,1.40081321 21.0709946,0.86540709"></path>
                </g>
                <g transform="translate(670.000000, 40.000000)" id="Path">
                    <path d="M7.97164179,37.538209 C11.2616077,9.90249554 -1.02093162,34.5991728 0.953047909,18.0177447"></path>
                    <path d="M12.358263,0.690591074 C9.06829709,28.3263045 2.92702744,1.43631667 0.953047909,18.0177447"></path>
                </g>
                <g transform="translate(681.000000, 189.000000)" id="Path">
                    <path d="M0,11 C30.75,11 2.05,0.75 20.5,0.75"></path>
                    <path d="M41,11 C10.25,11 38.95,0.75 20.5,0.75"></path>
                </g>
                <g transform="translate(669.000000, 201.000000)" id="Path">
                    <path d="M9.95121951,39 C10.6616575,9.87204451 0.289263544,36.8213237 0.715526307,19.3445504"></path>
                    <path d="M10.8984701,0.162726008 C10.1880322,29.2906815 1.14178907,1.86777706 0.715526307,19.3445504"></path>
                </g>
                <g transform="translate(671.000000, 162.000000)" id="Path">
                    <path d="M10,38 C10,10.2307692 0.743589744,36.1487179 0.743589744,19.4871795"></path>
                    <path d="M10,0.974358974 C10,28.7435897 0.743589744,2.82564103 0.743589744,19.4871795"></path>
                </g>
                <g transform="translate(670.000000, 79.000000)" id="Path">
                    <path d="M10.5432612,40.2304493 C9.7961354,10.3454158 0.53177504,38.4871556 0.083499539,20.5561356"></path>
                    <path d="M9.54709345,0.383738043 C10.2942193,30.2687714 -0.364775962,2.62511555 0.083499539,20.5561356"></path>
                </g>
                <g transform="translate(642.000000, 111.000000)" id="Path">
                    <path d="M0.964968153,10.7356688 C29.148688,8.85675414 2.21757792,1.21583454 19.1278098,0.0884857509"></path>
                    <path d="M38.5432612,8.23044925 C10.3595414,10.1093639 36.0380417,-1.03886304 19.1278098,0.0884857509"></path>
                </g>
                <g transform="translate(641.000000, 161.000000)" id="Path">
                    <path d="M40,1.97435897 C10.1982984,1.21021278 37.7585045,11.8573164 19.8774836,11.3988287"></path>
                    <path d="M0.264397906,0.955497382 C30.0660995,1.71964358 1.99646261,10.940341 19.8774836,11.3988287"></path>
                </g>
                <g transform="translate(631.000000, 121.000000)" id="Path">
                    <path d="M10.0617978,40.7022472 C11.4891756,10.7273134 0.165311673,38.2281257 1.02173835,20.2431654"></path>
                    <path d="M11.9649682,0.73566879 C10.5375904,30.7106026 1.87816503,2.25820511 1.02173835,20.2431654"></path>
                </g>
                <g transform="translate(640.000000, 27.000000)" id="Path">
                    <path d="M0.165313225,9.36310905 C31.8100255,12.6087206 3.35683122,-0.968754286 22.3436586,0.978612626"></path>
                    <path d="M42.358263,13.6905911 C10.7135507,10.4449796 41.330486,2.92597954 22.3436586,0.978612626"></path>
                </g>
                <g transform="translate(640.000000, 0.000000)" id="Path">
                    <path d="M1.81818182,0 C0.578530373,27.2723318 10.8263157,2.2313726 10.0825248,18.5947717"></path>
                    <path d="M0.165313225,36.363109 C1.40496467,9.09077726 9.33873392,34.9581707 10.0825248,18.5947717"></path>
                </g>
                <g transform="translate(639.000000, 197.000000)" id="Path">
                    <path d="M40.8984701,4.16272601 C10.8801199,1.58972456 38.0395796,13.9973093 20.0285695,12.4535084"></path>
                    <path d="M0.87400319,0.732057416 C30.8923534,3.30505886 2.01755939,10.9097076 20.0285695,12.4535084"></path>
                </g>
                <g transform="translate(638.000000, 161.000000)" id="Path">
                    <path d="M3.26439791,0.955497382 C1.48766108,27.0143041 11.8322177,3.28499677 10.7661756,18.9202808"></path>
                    <path d="M0.895415473,35.7005731 C2.6721523,9.6417663 9.70013352,34.5555649 10.7661756,18.9202808"></path>
                </g>
                <g transform="translate(639.000000, 77.000000)" id="Path">
                    <path d="M38.9716418,0.538208955 C10.410059,1.25224853 37.3055495,10.1063392 20.1685998,10.5347629"></path>
                    <path d="M0.889531345,1.49026172 C29.4511142,0.776222146 3.03165006,10.9631867 20.1685998,10.5347629"></path>
                </g>
                <g transform="translate(629.000000, 79.000000)" id="Path">
                    <path d="M12.0499391,40.998782 C10.5302277,10.6045548 1.81721596,39.4790706 0.905389146,21.2425343"></path>
                    <path d="M10.0236573,0.47314578 C11.5433686,30.8673729 -0.0064376688,3.00599804 0.905389146,21.2425343"></path>
                </g>
                <g transform="translate(630.000000, 197.000000)" id="Path">
                    <path d="M12.2222222,43 C10.4610579,11.2990431 1.53782562,41.4736576 0.48112706,22.4530835"></path>
                    <path d="M9.87400319,0.732057416 C11.6351675,32.4330144 -0.575571505,3.4325093 0.48112706,22.4530835"></path>
                </g>
                <g transform="translate(628.000000, 39.000000)" id="Path">
                    <path d="M11.8895313,39.4902617 C9.745495,10.1884316 1.97931889,38.2514852 0.692897079,20.6703871"></path>
                    <path d="M9.03081621,0.421154914 C11.1748526,29.722985 -0.593524731,3.08928904 0.692897079,20.6703871"></path>
                </g>
                <g transform="translate(601.000000, 189.000000)" id="Path">
                    <path d="M0.0432098765,12.4320988 C28.4323641,8.88345449 0.752938731,2.73247108 17.7864312,0.603284517"></path>
                    <path d="M37.8954155,7.70057307 C9.50626128,11.2492173 34.8199238,-1.52590205 17.7864312,0.603284517"></path>
                </g>
                <g transform="translate(593.000000, 201.000000)" id="Path">
                    <path d="M11.9,39 C9.00740741,10.0740741 2.06518519,38.0358025 0.32962963,20.6802469"></path>
                    <path d="M8.04320988,0.432098765 C10.9358025,29.3580247 -1.40592593,3.32469136 0.32962963,20.6802469"></path>
                </g>
                <g transform="translate(602.000000, 110.000000)" id="Path">
                    <path d="M0.00125156446,10.951189 C29.2877672,10.2368837 1.71558419,1.14139675 19.2874936,0.712813596"></path>
                    <path d="M39.0499391,9.99878197 C9.76342345,10.7130872 36.859403,0.28423044 19.2874936,0.712813596"></path>
                </g>
                <g transform="translate(620.500000, 164.000000) scale(-1, -1) translate(-620.500000, -164.000000) translate(600.000000, 158.000000)" id="Path">
                    <path d="M0.0373737374,8.54242424 C30.0556917,10.9122915 2.82855068,-1.30569061 20.8395415,0.116229713"></path>
                    <path d="M40.0617978,11.7022472 C10.0434797,9.33237998 38.8505323,1.53815004 20.8395415,0.116229713"></path>
                </g>
                <g transform="translate(592.000000, 120.000000)" id="Path">
                    <path d="M9.03737374,38.5424242 C9.76028211,10.3489978 -0.312241185,36.421893 0.121503837,19.5058372"></path>
                    <path d="M10.0012516,0.951188986 C9.27834319,29.1446154 0.555248859,2.58978129 0.121503837,19.5058372"></path>
                </g>
                <g transform="translate(599.000000, 79.000000)" id="Path">
                    <path d="M40.0236573,0.47314578 C10.6315263,1.98043455 38.5666115,10.3710087 20.9313329,11.2753819"></path>
                    <path d="M0.834149327,2.48286414 C30.2262803,0.975575369 3.29605431,12.1797552 20.9313329,11.2753819"></path>
                </g>
                <g transform="translate(598.000000, 81.000000)" id="Path">
                    <path d="M1.83414933,0.482864137 C0.555917742,27.3257274 10.696555,2.69846555 9.92961603,18.8041835"></path>
                    <path d="M0.129840547,36.2733485 C1.40807213,9.43048523 9.16267708,34.9099015 9.92961603,18.8041835"></path>
                </g>
                <g transform="translate(598.000000, 38.000000)" id="Path">
                    <path d="M39.0308162,1.42115491 C9.75770405,0.75585691 36.8575094,11.1345058 19.2936421,10.735327"></path>
                    <path d="M0,0.534090909 C29.2731122,1.19938891 1.72977481,10.3361482 19.2936421,10.735327"></path>
                </g>
                <g transform="translate(588.000000, 0.000000)" id="Path">
                    <path d="M10,38.5340909 C10,9.63352273 0.366477273,36.6073864 0.366477273,19.2670455"></path>
                    <path d="M10,2.84217094e-14 C10,28.9005682 0.366477273,1.92670455 0.366477273,19.2670455"></path>
                </g>
                <g transform="translate(589.000000, 161.000000)" id="Path">
                    <path d="M11.088015,39.6722846 C9.53503463,10.165658 1.14894075,38.2228363 0.217152546,20.5188604"></path>
                    <path d="M9.01737452,0.33011583 C10.5703549,29.8367424 -0.714635663,2.81488439 0.217152546,20.5188604"></path>
                </g>
                <g transform="translate(597.000000, 39.000000)" id="Path">
                    <path d="M0.5,0 C0.5,29.9695946 10.4898649,1.99797297 10.4898649,19.9797297"></path>
                    <path d="M0.5,39.9594595 C0.5,9.98986486 10.4898649,37.9614865 10.4898649,19.9797297"></path>
                </g>
                <g transform="translate(562.000000, 192.000000)" id="Path">
                    <path d="M0.5,11.3571429 C28.6910112,9.3434992 1.7081862,1.8258962 18.6227929,0.617710005"></path>
                    <path d="M38.088015,8.67228464 C9.89700375,10.6859283 35.5373997,-0.59047619 18.6227929,0.617710005"></path>
                </g>
                <g transform="translate(562.000000, 203.000000)" id="Path">
                    <path d="M0.5,0.357142857 C0.5,27.8392857 9.66071429,2.18928571 9.66071429,18.6785714"></path>
                    <path d="M0.5,37 C0.5,9.51785714 9.66071429,35.1678571 9.66071429,18.6785714"></path>
                </g>
                <g transform="translate(559.000000, 109.000000)" id="Path">
                    <path d="M0.0905172414,11.9913793 C29.3700097,9.20285622 1.11297571,2.04564694 18.6806712,0.372533089"></path>
                    <path d="M39.1298405,8.27334852 C9.85034807,11.0618716 36.2483667,-1.30058077 18.6806712,0.372533089"></path>
                </g>
                <g transform="translate(562.000000, 151.000000)" id="Path">
                    <path d="M0.490043559,8.5970753 C27.1355418,9.8968557 2.69967024,-0.198105417 18.6869692,0.581762823"></path>
                    <path d="M36.0173745,10.3301158 C9.3718763,9.03033543 34.6742681,1.36163106 18.6869692,0.581762823"></path>
                </g>
                <g transform="translate(550.000000, 120.000000)" id="Path">
                    <path d="M10.7580854,37.6778784 C9.50740928,10.1630041 1.5030822,36.2604455 0.75267654,19.7515209"></path>
                    <path d="M9.09051724,0.99137931 C10.3411933,28.5062536 0.00227087701,3.2425963 0.75267654,19.7515209"></path>
                </g>
                <g transform="translate(558.000000, 159.000000)" id="Path">
                    <path d="M4.49004356,0.597075296 C1.41036005,30.6239895 14.2937027,3.62543074 12.4458926,21.6415793"></path>
                    <path d="M0.383798883,40.6329609 C3.46348239,10.6060467 10.5980825,39.6577278 12.4458926,21.6415793"></path>
                </g>
                <g transform="translate(558.000000, 78.000000)" id="Path">
                    <path d="M39.5,0.959459459 C10.25,1.75 37.8135135,10.7621622 20.2635135,11.2364865"></path>
                    <path d="M0.5,2.01351351 C29.75,1.22297297 2.71351351,11.7108108 20.2635135,11.2364865"></path>
                </g>
                <g transform="translate(548.000000, 80.000000)" id="Path">
                    <path d="M10.5,40.4545455 C10.5,10.1237715 0.389742015,38.4324939 0.389742015,20.2340295"></path>
                    <path d="M10.5,0.0135135135 C10.5,30.3442875 0.389742015,2.03556511 0.389742015,20.2340295"></path>
                </g>
                <g transform="translate(558.000000, 29.000000)" id="Path">
                    <path d="M0.0512820513,10 C29.6378205,10 2.02371795,0.137820513 19.775641,0.137820513"></path>
                    <path d="M39.5,10 C9.91346154,10 37.5275641,0.137820513 19.775641,0.137820513"></path>
                </g>
                <g transform="translate(547.000000, 40.000000)" id="Path">
                    <path d="M10.4355062,38.9202497 C9.71383676,10.0534706 0.765135258,37.2363542 0.332133573,19.9162868"></path>
                    <path d="M9.47328027,0.431210915 C10.1949497,29.29799 -0.100868113,2.59621934 0.332133573,19.9162868"></path>
                </g>
                <g transform="translate(557.000000, 0.000000)" id="Path">
                    <path d="M0.0512820513,0 C0.801282051,29.25 9.85128205,1.7 10.3012821,19.25"></path>
                    <path d="M1.05128205,39 C0.301282051,9.75 10.7512821,36.8 10.3012821,19.25"></path>
                </g>
                <g transform="translate(524.000000, 199.000000)" id="Path">
                    <path d="M34.3837989,0.632960894 C8.87520504,1.18749554 32.8680708,9.17279448 17.5629145,9.50551527"></path>
                    <path d="M0.372340426,1.37234043 C25.8809343,0.817805777 2.25775823,9.83823606 17.5629145,9.50551527"></path>
                </g>
                <g transform="translate(518.000000, 200.000000)" id="Path">
                    <path d="M6.37234043,0.372340426 C2.02296316,30.0930851 15.9892968,3.80351583 13.3796705,21.6359626"></path>
                    <path d="M0.573170732,40 C4.922548,10.2792553 10.7700441,39.4684094 13.3796705,21.6359626"></path>
                </g>
                <g transform="translate(521.000000, 157.000000)" id="Path">
                    <path d="M39.7580854,0.677878396 C9.99873187,3.22868013 38.6243957,10.7677163 20.7687836,12.2981974"></path>
                    <path d="M0.0789473684,4.07894737 C29.8383009,1.52814564 2.91317151,13.8286784 20.7687836,12.2981974"></path>
                </g>
                <g transform="translate(512.000000, 161.000000)" id="Path">
                    <path d="M10.0263158,37.0263158 C9.31578947,9.31578947 0.742105263,35.4157895 0.315789474,18.7894737"></path>
                    <path d="M9.07894737,0.0789473684 C9.78947368,27.7894737 -0.110526316,2.16315789 0.315789474,18.7894737"></path>
                </g>
                <g transform="translate(521.000000, 70.000000)" id="Path">
                    <path d="M0,10.9444444 C27.3266297,9.42629835 1.31572661,1.73435814 17.7117044,0.823470489"></path>
                    <path d="M36.4355062,8.92024965 C9.10887656,10.4383957 34.1076822,-0.0874171675 17.7117044,0.823470489"></path>
                </g>
                <g transform="translate(521.000000, 119.000000)" id="Path">
                    <path d="M37.5,1.45454545 C9.375,0.815340909 35.4119318,10.7869318 18.5369318,10.4034091"></path>
                    <path d="M0,0.602272727 C28.125,1.24147727 1.66193182,10.0198864 18.5369318,10.4034091"></path>
                </g>
                <g transform="translate(511.000000, 80.000000)" id="Path">
                    <path d="M10,39.6022727 C10,10.6089015 0.335542929,37.6693813 0.335542929,20.2733586"></path>
                    <path d="M10,0.944444444 C10,29.9378157 0.335542929,2.87733586 0.335542929,20.2733586"></path>
                </g>
                <g transform="translate(522.500000, 138.000000) scale(-1, -1) translate(-522.500000, -138.000000) translate(516.500000, 119.000000)" id="Path">
                    <path d="M8.21428571,37.2142857 C10.3405826,9.57242618 -0.857914339,34.6627294 0.417863794,18.0776137"></path>
                    <path d="M11.0493482,0.358472998 C8.92305134,28.0003325 1.69364193,1.492498 0.417863794,18.0776137"></path>
                </g>
                <g transform="translate(557.000000, 0.000000)" id="Path">
                    <path d="M0.0512820513,-2.84217094e-14 C0.801282051,29.25 9.85128205,1.7 10.3012821,19.25"></path>
                    <path d="M1.05128205,39 C0.301282051,9.75 10.7512821,36.8 10.3012821,19.25"></path>
                </g>
                <g transform="translate(520.000000, 39.000000)" id="Path">
                    <path d="M36.4732803,1.43121092 C9.50208175,0.818229131 34.4708731,10.380745 18.288154,10.0129559"></path>
                    <path d="M0.511682243,0.613901869 C27.4828808,1.22688365 2.10543488,9.64516683 18.288154,10.0129559"></path>
                </g>
                <g transform="translate(516.000000, 0.000000)" id="Path">
                    <path d="M0.448717949,-6.38046867e-15 C3.49594117,29.7104264 10.5553416,0.96495402 12.3836756,18.7912099"></path>
                    <path d="M4.51168224,39.6139019 C1.46445902,9.90347547 14.2120095,36.6174657 12.3836756,18.7912099"></path>
                </g>
                <g transform="translate(509.000000, 40.000000)" id="Path">
                    <path d="M8.59571429,37.7292857 C10.1061935,9.78541972 -0.618209096,35.3628682 0.288078449,18.5965486"></path>
                    <path d="M10.6096866,0.470797721 C9.09920737,28.4146637 1.194366,1.83022904 0.288078449,18.5965486"></path>
                </g>
                <g transform="translate(499.000000, 83.000000) scale(-1, -1) translate(-499.000000, -83.000000) translate(480.000000, 77.000000)" id="Path">
                    <path d="M0.459079284,11.6611253 C28.3115555,9.46224562 1.58295113,2.23037459 18.2944369,0.911046767"></path>
                    <path d="M37.5957143,8.72928571 C9.74323803,10.9281654 35.0059226,-0.408281056 18.2944369,0.911046767"></path>
                </g>
                <g transform="translate(483.000000, 116.000000)" id="Path">
                    <path d="M37.0493482,4.358473 C9.71251291,1.69146467 34.3378898,13.2929509 17.9357886,11.6927459"></path>
                    <path d="M0.600234467,0.802461899 C27.9370698,3.46947022 1.53368738,10.0925409 17.9357886,11.6927459"></path>
                </g>
                <g transform="translate(472.000000, 80.000000)" id="Path">
                    <path d="M11.6002345,36.8024619 C9.04223871,9.94350647 2.47671627,35.8645301 0.94191882,19.7491569"></path>
                    <path d="M8.18957346,0.990521327 C10.7475692,27.8494768 -0.592878633,3.63378361 0.94191882,19.7491569"></path>
                </g>
                <g transform="translate(498.500000, 162.000000) scale(-1, -1) translate(-498.500000, -162.000000) translate(479.000000, 156.000000)" id="Path">
                    <path d="M0.5,11.1153846 C28.7857143,8.93956044 1.66043956,1.54175824 18.6318681,0.236263736"></path>
                    <path d="M38.2142857,8.21428571 C9.92857143,10.3901099 35.6032967,-1.06923077 18.6318681,0.236263736"></path>
                </g>
                <g transform="translate(482.000000, 197.000000)" id="Path">
                    <path d="M40.0263158,1.02631579 C10.0065789,0.256578947 37.7684211,10.9815789 19.7565789,10.5197368"></path>
                    <path d="M0,0 C30.0197368,0.769736842 1.74473684,10.0578947 19.7565789,10.5197368"></path>
                </g>
                <g transform="translate(470.000000, 161.000000)" id="Path">
                    <path d="M10.5714286,34.5714286 C8.86355092,8.95326384 1.91818182,33.4328435 0.893455229,18.0619446"></path>
                    <path d="M8.29425837,0.413875598 C10.002136,26.0320403 -0.13127136,2.6910458 0.893455229,18.0619446"></path>
                </g>
                <g transform="translate(471.000000, 197.000000)" id="Path">
                    <path d="M11,43 C11,10.75 0.25,40.85 0.25,21.5"></path>
                    <path d="M11,0 C11,32.25 0.25,2.15 0.25,21.5"></path>
                </g>
                <g transform="translate(478.000000, 30.000000)" id="Path">
                    <path d="M0.551282051,11.5512821 C31.3450855,10.7409188 2.3340812,1.2326567 20.8103632,0.746438746"></path>
                    <path d="M41.6096866,10.4707977 C10.8158832,11.281161 39.2866453,0.260220798 20.8103632,0.746438746"></path>
                </g>
                <g transform="translate(478.000000, 41.000000)" id="Path">
                    <path d="M0.551282051,0.551282051 C1.98212998,29.8836645 10.4241327,2.02982491 11.2826415,19.6292544"></path>
                    <path d="M2.45907928,39.6611253 C1.02823136,10.3287429 12.1411502,37.2286838 11.2826415,19.6292544"></path>
                </g>
                <g transform="translate(479.000000, 121.000000)" id="Path">
                    <path d="M0.5,0.0135135135 C0.5,29.3399168 10.2754678,1.96860707 10.2754678,19.5644491"></path>
                    <path d="M0.5,39.1153846 C0.5,9.78898129 10.2754678,37.1602911 10.2754678,19.5644491"></path>
                </g>
                <g transform="translate(469.000000, 0.000000)" id="Path">
                    <path d="M9.20731707,41.2073171 C12.5484509,10.3018293 -0.871769941,38.0332399 1.13291035,19.4899473"></path>
                    <path d="M13.6621622,2.20799865e-14 C10.3210283,30.9054878 3.13759064,0.946654581 1.13291035,19.4899473"></path>
                </g>
                <g transform="translate(441.000000, 188.000000)" id="Path">
                    <path d="M0.301204819,14.1164659 C29.7538726,9.20768789 0.628456684,3.97165806 18.3000574,1.02639128"></path>
                    <path d="M39.5714286,7.57142857 C10.1187608,12.4802065 35.9716581,-1.9188755 18.3000574,1.02639128"></path>
                </g>
                <g transform="translate(441.000000, 202.000000)" id="Path">
                    <path d="M0.301204819,0.116465863 C2.38017925,28.5291165 9.91068665,1.31765109 11.1580713,18.3652415"></path>
                    <path d="M3.07317073,38 C0.994196297,9.5873494 12.405456,35.4128318 11.1580713,18.3652415"></path>
                </g>
                <g transform="translate(441.000000, 38.000000)" id="Path">
                    <path d="M37.2073171,3.20731707 C10.0184523,1.35353084 34.7767973,12.1466862 18.4634785,11.0344145"></path>
                    <path d="M0.955497382,0.735602094 C28.1443622,2.58938833 2.15015962,9.92214277 18.4634785,11.0344145"></path>
                </g>
                <g transform="translate(432.000000, 0.000000)" id="Path">
                    <path d="M9.95549738,38.7356021 C10.7004128,9.68390052 0.321257887,36.5505168 0.768207142,19.1194959"></path>
                    <path d="M10.9487179,-2.11341515e-14 C10.2038025,29.0517016 1.2151564,1.68847496 0.768207142,19.1194959"></path>
                </g>
                <g transform="translate(442.000000, 72.000000)" id="Path">
                    <path d="M0.857142857,10.8571429 C28.8564658,9.45717671 2.257109,1.43070413 19.0567028,0.590724441"></path>
                    <path d="M38.1895735,8.99052133 C10.1902505,10.3904875 35.8562965,-0.249255247 19.0567028,0.590724441"></path>
                </g>
                <g transform="translate(441.000000, 119.000000)" id="Path">
                    <path d="M38.5,2.01351351 C9.99040512,1.24298392 36.3425171,11.4653432 19.2367602,11.0030254"></path>
                    <path d="M0.487206823,0.986140725 C28.9968017,1.75667032 2.13100328,10.5407077 19.2367602,11.0030254"></path>
                </g>
                <g transform="translate(440.000000, 82.000000)" id="Path">
                    <path d="M2.85714286,0.857142857 C0.800824176,27.5892857 11.6307692,3.32472527 10.396978,19.364011"></path>
                    <path d="M0.115384615,36.5 C2.1717033,9.76785714 9.16318681,35.4032967 10.396978,19.364011"></path>
                </g>
                <g transform="translate(440.000000, 150.000000)" id="Path">
                    <path d="M0.468105066,8.7120075 C28.83772,10.7384086 3.03487975,-0.609437418 20.0566487,0.606403225"></path>
                    <path d="M38.2942584,11.4138756 C9.92464339,9.38747453 37.0784177,1.82224387 20.0566487,0.606403225"></path>
                </g>
                <g transform="translate(431.000000, 119.000000)" id="Path">
                    <path d="M9.46810507,39.7120075 C10.2324314,10.6676074 -0.162406541,37.5209387 0.296189249,20.0942987"></path>
                    <path d="M10.4872068,0.986140725 C9.72288051,30.0305408 0.75478504,2.66765862 0.296189249,20.0942987"></path>
                </g>
                <g transform="translate(430.000000, 39.000000)" id="Path">
                    <path d="M10.5,41.5 C10.5,11.05 0.35,39.47 0.35,21.2"></path>
                    <path d="M10.5,0.9 C10.5,31.35 0.35,2.93 0.35,21.2"></path>
                </g>
                <g transform="translate(436.000000, 161.000000)" id="Path">
                    <path d="M0.926056338,0.595070423 C2.44220814,29.4019546 10.6294278,2.01014543 11.5391189,19.2942759"></path>
                    <path d="M2.94759207,39.0042493 C1.43144027,10.1973651 12.44881,36.5784064 11.5391189,19.2942759"></path>
                </g>
                <g transform="translate(402.000000, 29.000000)" id="Path">
                    <path d="M0.401365706,10.0533637 C28.9753414,10.6883409 2.5179565,0.571036925 19.6623419,0.952023268"></path>
                    <path d="M38.5,10.9 C9.92602428,10.2650228 36.8067274,1.33300961 19.6623419,0.952023268"></path>
                </g>
                <g transform="translate(399.000000, 0.000000)" id="Path">
                    <path d="M0.738636364,6.62208856e-15 C2.73568337,29.2900228 10.6351138,1.28698585 11.833342,18.8609995"></path>
                    <path d="M3.40136571,39.0533637 C1.4043187,9.76334092 13.0315702,36.4350132 11.833342,18.8609995"></path>
                </g>
                <g transform="translate(400.000000, 191.000000)" id="Path">
                    <path d="M0.15,12.15 C29.2481941,9.79068697 1.30344193,2.29331445 18.7623584,0.877726629"></path>
                    <path d="M38.9475921,9.00424929 C9.84939802,11.3635623 36.2212748,-0.53786119 18.7623584,0.877726629"></path>
                </g>
                <g transform="translate(391.000000, 203.000000)" id="Path">
                    <path d="M10.9047619,37 C9.58869048,9.3625 1.60452381,35.5961905 0.814880952,19.0136905"></path>
                    <path d="M9.15,0.15 C10.4660714,27.7875 0.0252380952,2.43119048 0.814880952,19.0136905"></path>
                </g>
                <g transform="translate(402.000000, 109.000000)" id="Path">
                    <path d="M0.5,9.5 C28.7115385,9.5 2.38076923,0.0961538462 19.3076923,0.0961538462"></path>
                    <path d="M38.1153846,9.5 C9.90384615,9.5 36.2346154,0.0961538462 19.3076923,0.0961538462"></path>
                </g>
                <g transform="translate(402.000000, 159.000000)" id="Path">
                    <path d="M34.9260563,2.59507042 C9.10651408,0.873767606 32.6309859,11.086831 17.1392606,10.0540493"></path>
                    <path d="M0.5,0.3 C26.3195423,2.02130282 1.64753521,9.02126761 17.1392606,10.0540493"></path>
                </g>
                <g transform="translate(402.000000, 118.000000)" id="Path">
                    <path d="M0.5,0.5 C0.5,31.1 10.7,2.54 10.7,20.9"></path>
                    <path d="M0.5,41.3 C0.5,10.7 10.7,39.26 10.7,20.9"></path>
                </g>
                <g transform="translate(401.000000, 80.000000)" id="Path">
                    <path d="M39.5,0.5 C10.5792683,0.5 37.5719512,10.1402439 20.2195122,10.1402439"></path>
                    <path d="M0.93902439,0.5 C29.8597561,0.5 2.86707317,10.1402439 20.2195122,10.1402439"></path>
                </g>
                <g transform="translate(391.000000, 83.000000)" id="Path">
                    <path d="M10.304878,34.304878 C9.10950172,8.604287 1.65832261,32.9899641 0.941096813,17.5696095"></path>
                    <path d="M8.71104294,0.0374233129 C9.90641927,25.7380144 0.223871016,2.14925483 0.941096813,17.5696095"></path>
                </g>
                <g transform="translate(391.000000, 40.000000)" id="Path">
                    <path d="M10.9390244,40.5 C10.2077731,10.5186969 0.896506598,38.7449969 0.457755821,20.756215"></path>
                    <path d="M9.96402266,0.524929178 C10.695274,30.5062323 0.0190050439,2.76743315 0.457755821,20.756215"></path>
                </g>
                <g transform="translate(388.000000, 162.000000)" id="Path">
                    <path d="M10.5,39.5 C10.5,10.25 0.75,37.55 0.75,20"></path>
                    <path d="M10.5,0.5 C10.5,29.75 0.75,2.45 0.75,20"></path>
                </g>
                <g transform="translate(360.000000, 109.000000)" id="Path">
                    <path d="M0,12.7702703 C30.9786585,9.4212261 0.948895847,2.22078115 19.536091,0.211354647"></path>
                    <path d="M41.304878,8.30487805 C10.3262195,11.6539222 38.1232861,-1.79807185 19.536091,0.211354647"></path>
                </g>
                <g transform="translate(360.000000, 158.000000)" id="Path">
                    <path d="M38.5,4.5 C9.625,1.29166667 35.5055556,13.9111111 18.1805556,11.9861111"></path>
                    <path d="M0,0.222222222 C28.875,3.43055556 0.855555556,10.0611111 18.1805556,11.9861111"></path>
                </g>
                <g transform="translate(360.000000, 121.000000)" id="Path">
                    <path d="M0,0.77027027 C0,28.1092342 9.11298799,2.59286787 9.11298799,18.9962462"></path>
                    <path d="M0,37.2222222 C0,9.88325826 9.11298799,35.3996246 9.11298799,18.9962462"></path>
                </g>
                <g transform="translate(361.000000, 31.000000)" id="Path">
                    <path d="M0.964344039,11.3388677 C30.214103,9.97841381 2.46084334,1.49825114 20.0106987,0.681978793"></path>
                    <path d="M39.9640227,9.52492918 C10.7142637,10.8853831 37.5605541,-0.13429355 20.0106987,0.681978793"></path>
                </g>
                <g transform="translate(358.000000, 80.000000)" id="Path">
                    <path d="M41.7110429,3.03742331 C10.4277607,1.39093478 39.0766613,13.3554181 20.306692,12.367525"></path>
                    <path d="M0,0.842105263 C31.2832822,2.4885938 1.53672263,11.3796319 20.306692,12.367525"></path>
                </g>
                <g transform="translate(349.000000, 42.000000)" id="Path">
                    <path d="M7.78767123,37.4383562 C11.6701758,9.61373983 -1.22836724,34.2892135 1.10113552,17.5944437"></path>
                    <path d="M12.964344,0.338867719 C9.08183943,28.1634841 3.43063829,0.89967394 1.10113552,17.5944437"></path>
                </g>
                <g transform="translate(362.000000, 193.000000)" id="Path">
                    <path d="M0.206543291,10.3612029 C27.4266358,8.96530073 1.5559154,1.19477859 17.8879709,0.357237277"></path>
                    <path d="M36.5,8.5 C9.27990747,9.89590218 34.2200264,-0.480304032 17.8879709,0.357237277"></path>
                </g>
                <g transform="translate(351.000000, 203.000000)" id="Path">
                    <path d="M7.44871795,37 C10.267087,9.52090218 -1.52309006,34.2286038 0.167931347,17.7411451"></path>
                    <path d="M11.2065433,0.361202908 C8.38817428,27.8403007 1.85895275,1.25368643 0.167931347,17.7411451"></path>
                </g>
                <g transform="translate(348.000000, 80.000000)" id="Path">
                    <path d="M10,39.5 C10,10.5065789 0.335526316,37.5671053 0.335526316,20.1710526"></path>
                    <path d="M10,0.842105263 C10,29.8355263 0.335526316,2.775 0.335526316,20.1710526"></path>
                </g>
                <g transform="translate(359.000000, 0.000000)" id="Path">
                    <path d="M3.05555556,0 C1.38977291,29.9840877 12.9391993,2.55420006 11.9397297,20.5446527"></path>
                    <path d="M0.834512023,39.9787836 C2.50029467,9.9946959 10.9402601,38.5351053 11.9397297,20.5446527"></path>
                </g>
                <g transform="translate(349.000000, 158.000000)" id="Path">
                    <path d="M11,43.0285714 C11,10.9238095 0.298412698,40.888254 0.298412698,21.6253968"></path>
                    <path d="M11,0.222222222 C11,32.3269841 0.298412698,2.36253968 0.298412698,21.6253968"></path>
                </g>
                <g transform="translate(320.000000, 27.000000)" id="Path">
                    <path d="M0.693946188,7.96076233 C30.0493706,11.7242783 3.9054798,-1.57347806 21.5187344,0.684631504"></path>
                    <path d="M39.834512,12.9787836 C10.4790876,9.21526765 39.131989,2.94274107 21.5187344,0.684631504"></path>
                </g>
                <g transform="translate(319.000000, 0.000000)" id="Path">
                    <path d="M0.173913043,0 C1.3139379,26.2205717 8.99010528,1.36802983 9.6741202,17.1003729"></path>
                    <path d="M1.69394619,34.9607623 C0.55392133,8.74019058 10.3581351,32.8327159 9.6741202,17.1003729"></path>
                </g>
                <g transform="translate(319.000000, 150.000000)" id="Path">
                    <path d="M0.5,12.7222222 C30.875,9.34722222 1.4,2.37222222 19.625,0.347222222"></path>
                    <path d="M41,8.22222222 C10.625,11.5972222 37.85,-1.67777778 19.625,0.347222222"></path>
                </g>
                <g transform="translate(319.000000, 199.000000)" id="Path">
                    <path d="M41,2.02857143 C10.625,1.16071429 38.6857143,12.0957143 20.4607143,11.575"></path>
                    <path d="M0.5,0.871428571 C30.875,1.73928571 2.23571429,11.0542857 20.4607143,11.575"></path>
                </g>
                <g transform="translate(310.000000, 162.000000)" id="Path">
                    <path d="M9.5,37.8714286 C9.5,10.0095238 0.212698413,36.0139683 0.212698413,19.2968254"></path>
                    <path d="M9.5,0.722222222 C9.5,28.584127 0.212698413,2.57968254 0.212698413,19.2968254"></path>
                </g>
                <g transform="translate(310.000000, 200.000000)" id="Path">
                    <path d="M12,40 C9.8253829,10.2802329 1.9484365,38.7435546 0.643666241,20.9116943"></path>
                    <path d="M9.10051053,0.373643906 C11.2751276,30.093411 -0.66110402,3.07983408 0.643666241,20.9116943"></path>
                </g>
                <g transform="translate(322.000000, 70.000000)" id="Path">
                    <path d="M0.393333333,8.65666667 C26.1890868,9.24293379 2.3084726,0.0971666667 17.7859247,0.448926941"></path>
                    <path d="M34.7876712,9.43835616 C8.99191781,8.85208904 33.2633767,0.800687215 17.7859247,0.448926941"></path>
                </g>
                <g transform="translate(309.000000, 37.000000)" id="Path">
                    <path d="M9.5,38.25 C9.5,9.85641892 0.035472973,36.3570946 0.035472973,19.3209459"></path>
                    <path d="M9.5,0.391891892 C9.5,28.785473 0.035472973,2.2847973 0.035472973,19.3209459"></path>
                </g>
                <g transform="translate(318.000000, 119.000000)" id="Path">
                    <path d="M40,0.5 C10.375,0.5 38.025,10.375 20.25,10.375"></path>
                    <path d="M0.5,0.5 C30.125,0.5 2.475,10.375 20.25,10.375"></path>
                </g>
                <g transform="translate(307.000000, 119.000000)" id="Path">
                    <path d="M11.5,42.8333333 C11.5,11.0833333 0.916666667,40.7166667 0.916666667,21.6666667"></path>
                    <path d="M11.5,0.5 C11.5,32.25 0.916666667,2.61666667 0.916666667,21.6666667"></path>
                </g>
                <g transform="translate(309.000000, 78.000000)" id="Path">
                    <path d="M8.68421053,40.6842105 C12.2160526,10.6635526 -1.0872193,37.5055526 1.03188596,19.4931579"></path>
                    <path d="M13.3933333,0.656666667 C9.86149123,30.6773246 3.15099123,1.48076316 1.03188596,19.4931579"></path>
                </g>
                <g transform="translate(281.000000, 67.000000)" id="Path">
                    <path d="M0.837438424,11.9162562 C28.3343596,9.16656404 1.75400246,2.56730296 18.2521552,0.917487685"></path>
                    <path d="M37.5,8.25 C10.0030788,10.9996921 34.7503079,-0.732327586 18.2521552,0.917487685"></path>
                </g>
                <g transform="translate(282.000000, 108.000000)" id="Path">
                    <path d="M0.199164345,8.08774373 C26.812949,10.0350938 2.62253335,-0.653694473 18.5908041,0.514715584"></path>
                    <path d="M35.6842105,10.6842105 C9.07042589,8.73686043 34.5590749,1.68312564 18.5908041,0.514715584"></path>
                </g>
                <g transform="translate(279.000000, 81.000000)" id="Path">
                    <path d="M0.840909091,0.5 C2.60960053,26.4408078 9.60575779,1.63982337 10.6669727,17.2043081"></path>
                    <path d="M3.19916435,35.0877437 C1.4304729,9.14693593 11.7281875,32.7687927 10.6669727,17.2043081"></path>
                </g>
                <g transform="translate(282.000000, 192.000000)" id="Path">
                    <path d="M0.280487805,11.2804878 C27.8955048,9.10035488 1.39477797,1.93013993 17.9637882,0.622060174"></path>
                    <path d="M37.1005105,8.37364391 C9.48549349,10.5537768 34.5327984,-0.686019581 17.9637882,0.622060174"></path>
                </g>
                <g transform="translate(271.000000, 203.000000)" id="Path">
                    <path d="M8.38157895,37 C10.5557606,9.46036585 -0.653353659,34.4392972 0.651155327,17.9155167"></path>
                    <path d="M11.2804878,0.280487805 C9.10630616,27.820122 1.95566431,1.3917362 0.651155327,17.9155167"></path>
                </g>
                <g transform="translate(279.000000, 150.000000)" id="Path">
                    <path d="M0.657024793,9.24380165 C29.7892562,11.1859504 3.24655647,-0.337465565 20.7258953,0.827823691"></path>
                    <path d="M39.5,11.8333333 C10.3677686,9.89118457 38.2052342,1.99311295 20.7258953,0.827823691"></path>
                </g>
                <g transform="translate(269.000000, 117.000000)" id="Path">
                    <path d="M10.4616555,42.0337797 C11.2323003,11.2079885 0.237768112,39.7218453 0.70015498,21.2263706"></path>
                    <path d="M11.4891819,0.932724814 C10.7185371,31.758516 1.16254185,2.73089596 0.70015498,21.2263706"></path>
                </g>
                <g transform="translate(278.000000, 28.000000)" id="Path">
                    <path d="M0.791866029,11.5382775 C30.5729665,9.9284883 2.24067632,1.50392474 20.1093366,0.538051209"></path>
                    <path d="M40.5,9.39189189 C10.7188995,11.0016811 37.9779969,-0.42782232 20.1093366,0.538051209"></path>
                </g>
                <g transform="translate(269.000000, 41.000000)" id="Path">
                    <path d="M12.8374384,37.9162562 C8.66839677,10.1226451 3.2949653,37.4530293 0.793540308,20.7768627"></path>
                    <path d="M7.27871622,0.858108108 C11.4477579,28.6517191 -1.70788469,4.10069606 0.793540308,20.7768627"></path>
                </g>
                <g transform="translate(281.500000, 177.000000) scale(-1, -1) translate(-281.500000, -177.000000) translate(275.000000, 158.000000)" id="Path">
                    <path d="M8.05555556,37.0555556 C11.5066575,9.44674013 -0.917309458,34.0646006 1.1533517,17.4993113"></path>
                    <path d="M12.6570248,0.243801653 C9.20592287,27.8526171 3.22401286,0.934022039 1.1533517,17.4993113"></path>
                </g>
                <g transform="translate(270.000000, 0.000000)" id="Path">
                    <path d="M8.79186603,39.5382775 C10.5362018,9.88456938 -0.976414298,36.9799184 0.0701871658,19.1876935"></path>
                    <path d="M11.1176471,-1.42108547e-14 C9.37331129,29.6537081 1.11678863,1.39546862 0.0701871658,19.1876935"></path>
                </g>
                <g transform="translate(242.000000, 38.000000)" id="Path">
                    <path d="M34.2787162,3.85810811 C9.28022634,1.63602012 31.8714542,12.0427989 16.8723603,10.7095461"></path>
                    <path d="M0.947396387,0.895324123 C25.9458863,3.11741211 1.87326638,9.37629328 16.8723603,10.7095461"></path>
                </g>
                <g transform="translate(241.000000, 0.000000)" id="Path">
                    <path d="M0.0952380952,0 C1.48435681,29.1714931 9.91167704,1.48172663 10.7451483,18.9846225"></path>
                    <path d="M1.94739639,38.8953241 C0.558277668,9.72383103 11.5786195,36.4875183 10.7451483,18.9846225"></path>
                </g>
                <g transform="translate(241.000000, 189.000000)" id="Path">
                    <path d="M0.5,11.25 C25.6666667,8.10416667 1.12916667,2.65138889 16.2291667,0.763888889"></path>
                    <path d="M34.0555556,7.05555556 C8.88888889,10.2013889 31.3291667,-1.12361111 16.2291667,0.763888889"></path>
                </g>
                <g transform="translate(241.000000, 200.000000)" id="Path">
                    <path d="M0.5,0.25 C0.5,30.0625 10.4375,2.2375 10.4375,20.125"></path>
                    <path d="M0.5,40 C0.5,10.1875 10.4375,38.0125 10.4375,20.125"></path>
                </g>
                <g transform="translate(241.000000, 108.000000)" id="Path">
                    <path d="M0,11 C29.6168864,10.1995436 1.7076403,1.07434077 19.4777721,0.594066937"></path>
                    <path d="M39.4891819,9.93272481 C9.87229547,10.7331812 37.247904,0.113793103 19.4777721,0.594066937"></path>
                </g>
                <g transform="translate(242.000000, 156.000000)" id="Path">
                    <path d="M37.4616555,3.03377967 C9.73346484,1.00488767 34.9368121,12.1412504 18.2998977,10.9239152"></path>
                    <path d="M0.490734613,0.328590338 C28.2189253,2.35748234 1.66298332,9.70658003 18.2998977,10.9239152"></path>
                </g>
                <g transform="translate(232.000000, 119.000000)" id="Path">
                    <path d="M10.4907346,37.3285903 C8.99874899,9.72685639 1.19069092,35.9858033 0.295499552,19.4247629"></path>
                    <path d="M8.50142045,0.526278409 C9.99340607,28.1280124 -0.59969182,2.86372255 0.295499552,19.4247629"></path>
                </g>
                <g transform="translate(239.000000, 71.000000)" id="Path">
                    <path d="M0.986486486,10.5 C30.8773034,10.5 2.97920762,0.536394349 20.9136978,0.536394349"></path>
                    <path d="M40.8409091,10.5 C10.9500921,10.5 38.848188,0.536394349 20.9136978,0.536394349"></path>
                </g>
                <g transform="translate(231.000000, 81.000000)" id="Path">
                    <path d="M10,38 C9.23986486,9.875 0.574324324,36.3783784 0.118243243,19.5033784"></path>
                    <path d="M8.98648649,0.5 C9.74662162,28.625 -0.337837838,2.62837838 0.118243243,19.5033784"></path>
                </g>
                <g transform="translate(229.000000, 40.000000)" id="Path">
                    <path d="M8.63251534,39.2079755 C11.64526,9.83371518 -0.958055114,36.2454432 0.849591673,18.6208871"></path>
                    <path d="M12.6495082,0.042295082 C9.63676355,29.4165554 2.65723846,0.996330886 0.849591673,18.6208871"></path>
                </g>
                <g transform="translate(228.000000, 162.000000)" id="Path">
                    <path d="M11.8405797,36.7565217 C8.37092257,9.69319608 2.58816068,36.1088524 0.506366398,19.870857"></path>
                    <path d="M7.2143702,0.672087522 C10.6840273,27.7354132 -1.57542788,3.63286161 0.506366398,19.870857"></path>
                </g>
                <g transform="translate(199.000000, 119.000000)" id="Path">
                    <path d="M41.5014205,0.526278409 C11.0056322,1.32879915 39.7358748,10.7450426 21.4384018,11.226555"></path>
                    <path d="M0.840369393,1.59630607 C31.3361577,0.793785324 3.14092886,11.7080675 21.4384018,11.226555"></path>
                </g>
                <g transform="translate(201.000000, 152.000000)" id="Path">
                    <path d="M0.750859107,6.86941581 C25.8484924,9.72141959 3.37470259,-1.30632838 18.4332826,0.404873893"></path>
                    <path d="M34.2143702,10.6720875 C9.11673688,7.82008374 33.4918626,2.11607616 18.4332826,0.404873893"></path>
                </g>
                <g transform="translate(190.000000, 121.000000)" id="Path">
                    <path d="M11.1528465,37.1769802 C9.36576638,9.77508447 1.89974261,35.9458805 0.82749452,19.5047431"></path>
                    <path d="M8.77007299,0.641119221 C10.5571531,28.043015 -0.244753574,3.06360566 0.82749452,19.5047431"></path>
                </g>
                <g transform="translate(203.000000, 71.000000)" id="Path">
                    <path d="M0.818181818,9.81818182 C26.178932,8.61052705 2.1063469,1.28408812 17.322797,0.559495259"></path>
                    <path d="M34.6325153,8.20797546 C9.2717652,9.41563023 32.5392471,-0.165097602 17.322797,0.559495259"></path>
                </g>
                <g transform="translate(191.000000, 80.000000)" id="Path">
                    <path d="M8.84036939,40.5963061 C11.8237287,10.7627129 -0.905271048,37.6129467 0.884744543,19.7127908"></path>
                    <path d="M12.8181818,0.818181818 C9.8348225,30.651775 2.67476013,1.81263492 0.884744543,19.7127908"></path>
                </g>
                <g transform="translate(199.000000, 198.000000)" id="Path">
                    <path d="M40.8405797,0.756521739 C10.3615677,3.36900848 39.6794745,11.0903582 21.3920673,12.6578502"></path>
                    <path d="M0.201897019,4.2398374 C30.680909,1.62735065 3.10466007,14.2253423 21.3920673,12.6578502"></path>
                </g>
                <g transform="translate(190.000000, 202.000000)" id="Path">
                    <path d="M11,38 C9.65142276,9.67987805 1.4700542,36.5615176 0.660907859,19.5694444"></path>
                    <path d="M9.20189702,0.239837398 C10.5504743,28.5599593 -0.148238482,2.57737127 0.660907859,19.5694444"></path>
                </g>
                <g transform="translate(201.000000, 29.000000)" id="Path">
                    <path d="M0.473736047,10.0121471 C30.6055652,10.7847581 2.74006166,0.019711441 20.8191591,0.483278043"></path>
                    <path d="M40.6495082,11.0422951 C10.5176791,10.2696841 38.8982566,0.946844644 20.8191591,0.483278043"></path>
                </g>
                <g transform="translate(189.000000, 0.000000)" id="Path">
                    <path d="M10,36.3378378 C10,9.08445946 0.915540541,34.5209459 0.915540541,18.1689189"></path>
                    <path d="M10,0 C10,27.2533784 0.915540541,1.81689189 0.915540541,18.1689189"></path>
                </g>
                <g transform="translate(191.000000, 39.000000)" id="Path">
                    <path d="M8.54878049,37.5487805 C9.99249716,9.39630543 -0.739130087,35.1907099 0.127099915,18.2992249"></path>
                    <path d="M10.473736,0.0121470781 C9.03001938,28.1646221 0.993329917,1.40773986 0.127099915,18.2992249"></path>
                </g>
                <g transform="translate(202.500000, 178.500000) rotate(-181.000000) translate(-202.500000, -178.500000) translate(195.500000, 158.000000)" id="Path">
                    <path d="M7.65384615,40.5 C12.2266059,10.7770619 -1.94894925,36.9942176 0.794706582,19.1604547"></path>
                    <path d="M13.7508591,0.869415808 C9.17809939,30.592354 3.53836241,1.32669178 0.794706582,19.1604547"></path>
                </g>
                <g transform="translate(161.000000, 67.000000)" id="Path">
                    <path d="M0.0467422096,10.5113314 C28.9232709,9.78941823 1.73120638,0.837694327 19.0571236,0.404546397"></path>
                    <path d="M38.5487805,9.54878049 C9.67225178,10.2706937 36.3830408,-0.0286015339 19.0571236,0.404546397"></path>
                </g>
                <g transform="translate(162.000000, 117.000000)" id="Path">
                    <path d="M36.770073,4.64111922 C9.49251825,1.61027981 33.9412895,13.5315815 17.5747567,11.7130779"></path>
                    <path d="M0.4,0.6 C27.6775547,3.63083942 1.20822384,9.89457421 17.5747567,11.7130779"></path>
                </g>
                <g transform="translate(157.000000, 82.000000)" id="Path">
                    <path d="M0.546961326,0.0110497238 C4.18674033,26.7027624 9.68685083,0.577237569 11.8707182,16.5922652"></path>
                    <path d="M5.4,35.6 C1.76022099,8.90828729 14.0545856,32.6072928 11.8707182,16.5922652"></path>
                </g>
                <g transform="translate(160.000000, 28.000000)" id="Path">
                    <path d="M0.613584037,12.4877206 C29.403396,9.37530854 1.49543413,2.68362251 18.7693213,0.81617525"></path>
                    <path d="M39,8.33783784 C10.210188,11.4502499 36.0432085,-1.05127201 18.7693213,0.81617525"></path>
                </g>
                <g transform="translate(150.000000, 44.000000)" id="Path">
                    <path d="M11.0467422,33.5113314 C8.20945212,8.54317868 2.53487195,32.7925513 0.832497898,17.8116596"></path>
                    <path d="M7.26368876,0.220461095 C10.1009788,25.1886139 -0.869876154,2.83076797 0.832497898,17.8116596"></path>
                </g>
                <g transform="translate(160.000000, 189.000000)" id="Path">
                    <path d="M0.402439024,9.5 C26.8409944,9.5 2.16500938,0.687148218 18.0281426,0.687148218"></path>
                    <path d="M35.6538462,9.5 C9.21529081,9.5 33.8912758,0.687148218 18.0281426,0.687148218"></path>
                </g>
                <g transform="translate(150.000000, 199.000000)" id="Path">
                    <path d="M12.5416667,41 C10.0276072,10.8312868 2.31782498,39.8267723 0.809389325,21.7255444"></path>
                    <path d="M9.18958743,0.775049116 C11.7036469,30.9437623 -0.699046333,3.62431647 0.809389325,21.7255444"></path>
                </g>
                <g transform="translate(158.000000, 158.000000)" id="Path">
                    <path d="M43.1528465,0.176980198 C10.7882116,2.02638791 41.6116734,11.0884857 22.1928925,12.1981303"></path>
                    <path d="M0,2.64285714 C32.3646349,0.793449434 2.77411156,13.3077749 22.1928925,12.1981303"></path>
                </g>
                <g transform="translate(156.000000, 161.000000)" id="Path">
                    <path d="M0.838557994,0.970219436 C3.51146877,28.3675549 10.1491972,1.90573821 11.7529437,18.3441395"></path>
                    <path d="M4.40243902,37.5 C1.72952825,10.1026646 13.3566901,34.7825407 11.7529437,18.3441395"></path>
                </g>
                <g transform="translate(158.000000, 122.000000)" id="Path">
                    <path d="M0,-2.84217094e-14 C0,28.9821429 9.66071429,1.93214286 9.66071429,19.3214286"></path>
                    <path d="M0,38.6428571 C0,9.66071429 9.66071429,36.7107143 9.66071429,19.3214286"></path>
                </g>
                <g transform="translate(155.000000, 20.500000) scale(-1, -1) translate(-155.000000, -20.500000) translate(149.000000, 0.000000)" id="Path">
                    <path d="M0.3,0 C2.03518803,30.3657905 10.5376094,1.44599002 11.5787222,19.6654643"></path>
                    <path d="M2.61358404,40.4877206 C0.878396009,10.1219302 12.619835,37.8849386 11.5787222,19.6654643"></path>
                </g>
                <g transform="translate(124.000000, 193.000000)" id="Path">
                    <path d="M0.712048193,10.8795181 C26.5702026,7.80116636 1.40980792,2.05490982 16.9247006,0.207898786"></path>
                    <path d="M35.1895874,6.77504912 C9.331433,9.85340083 32.4395932,-1.63911224 16.9247006,0.207898786"></path>
                </g>
                <g transform="translate(113.000000, 203.000000)" id="Path">
                    <path d="M8.1,37 C10.8090361,9.90963855 -0.749518072,34.2909639 0.875903614,18.036747"></path>
                    <path d="M11.7120482,0.879518072 C9.00301205,27.9698795 2.5013253,1.78253012 0.875903614,18.036747"></path>
                </g>
                <g transform="translate(139.500000, 38.500000) scale(-1, -1) translate(-139.500000, -38.500000) translate(121.000000, 32.000000)" id="Path">
                    <path d="M36.2636888,5.2204611 C9.47363247,1.87170406 33.3614327,13.9272294 17.2873989,11.9179752"></path>
                    <path d="M0.543613707,0.755451713 C27.33367,4.10420875 1.21336511,9.90872095 17.2873989,11.9179752"></path>
                </g>
                <g transform="translate(112.000000, 0.000000)" id="Path">
                    <path d="M9.54361371,39.7554517 C10.2890284,9.93886293 -0.345554907,37.5192076 0.101693925,19.6292543"></path>
                    <path d="M10.5375,-2.82441292e-14 C9.79208528,29.8165888 0.548942757,1.73930101 0.101693925,19.6292543"></path>
                </g>
                <g transform="translate(119.000000, 112.000000)" id="Path">
                    <path d="M0.967238212,10.975199 C29.4918096,10.2437998 2.62507655,1.41824862 19.7398194,0.979409063"></path>
                    <path d="M39,10 C10.4754287,10.7313993 36.8545622,0.540569504 19.7398194,0.979409063"></path>
                </g>
                <g transform="translate(120.000000, 161.000000)" id="Path">
                    <path d="M36.838558,0.970219436 C9.2096395,0.261785628 34.7604855,10.13263 18.1831344,9.70756973"></path>
                    <path d="M0,0.0256410256 C27.6289185,0.734074833 1.6057833,9.28250944 18.1831344,9.70756973"></path>
                </g>
                <g transform="translate(109.000000, 122.000000)" id="Path">
                    <path d="M6.90043884,35.1363138 C9.95053837,9.51547771 -1.43649988,32.4115582 0.393559837,17.0390566"></path>
                    <path d="M10.9672382,0.97519902 C7.91713868,26.5960351 2.22361956,1.66655491 0.393559837,17.0390566"></path>
                </g>
                <g transform="translate(110.000000, 161.000000)" id="Path">
                    <path d="M10,38.5394737 C10,9.65409919 0.371541835,36.6137821 0.371541835,19.2825574"></path>
                    <path d="M10,0.0256410256 C10,28.9110155 0.371541835,1.95133266 0.371541835,19.2825574"></path>
                </g>
                <g transform="translate(122.000000, 82.000000)" id="Path">
                    <path d="M35.5469613,0.0110497238 C9.22350104,0.653085341 34.0060758,8.82833886 18.2119997,9.21356023"></path>
                    <path d="M0.449014276,0.867097213 C26.7724746,0.225061596 2.4179235,9.5987816 18.2119997,9.21356023"></path>
                </g>
                <g transform="translate(117.000000, 82.000000)" id="Path">
                    <path d="M5.44901428,0.867097213 C1.60341872,28.5553852 14.4220706,3.99484827 12.1147132,20.6078211"></path>
                    <path d="M0.321553534,37.7848146 C4.16714909,10.0965265 9.80735591,37.2207939 12.1147132,20.6078211"></path>
                </g>
                <g transform="translate(117.000000, 40.000000)" id="Path">
                    <path d="M3.66630197,0.504376368 C1.31727142,28.6927429 12.9058221,3.16661099 11.4964038,20.0796309"></path>
                    <path d="M0.534261242,38.0888651 C2.88329179,9.90049855 10.0869855,36.9926508 11.4964038,20.0796309"></path>
                </g>
                <g transform="translate(80.000000, 199.000000)" id="Path">
                    <path d="M40,0.539473684 C10.4474328,1.31717282 38.2890619,10.442176 20.5575216,10.9087955"></path>
                    <path d="M0.596577017,1.57640587 C30.1491443,0.79870673 2.82598121,11.375415 20.5575216,10.9087955"></path>
                </g>
                <g transform="translate(80.000000, 200.000000)" id="Path">
                    <path d="M0.596577017,0.576405868 C1.97181867,30.1441015 10.5441583,2.08917169 11.3693033,19.829789"></path>
                    <path d="M2.43023256,40 C1.0549909,10.4323044 12.1944483,37.5704064 11.3693033,19.829789"></path>
                </g>
                <g transform="translate(83.000000, 150.000000)" id="Path">
                    <path d="M0.400286533,10.8295129 C24.7754008,8.05961355 1.10199437,2.51981486 15.7270629,0.857875255"></path>
                    <path d="M32.9004388,7.13631377 C8.52532461,9.90621311 30.3521314,-0.804064351 15.7270629,0.857875255"></path>
                </g>
                <g transform="translate(71.000000, 160.000000)" id="Path">
                    <path d="M9.43221321,40.4038239 C11.6582682,10.7230906 -0.312960868,37.68309 1.02267213,19.8746501"></path>
                    <path d="M12.4002865,0.829512894 C10.1742315,30.5102461 2.35830512,2.06621011 1.02267213,19.8746501"></path>
                </g>
                <g transform="translate(81.000000, 69.000000)" id="Path">
                    <path d="M0.5128123,10.012492 C27.528899,9.31977182 2.08297802,0.960948412 18.29263,0.545316309"></path>
                    <path d="M36.5342612,9.0888651 C9.51817454,9.78158527 34.5022821,0.129684206 18.29263,0.545316309"></path>
                </g>
                <g transform="translate(82.000000, 108.000000)" id="Path">
                    <path d="M0.420257235,7.31028939 C26.5962295,10.6661833 3.28395334,-1.19130843 18.9895367,0.822227898"></path>
                    <path d="M35.3215535,11.7848146 C9.14558131,8.42892068 34.69512,2.83576422 18.9895367,0.822227898"></path>
                </g>
                <g transform="translate(72.000000, 79.000000)" id="Path">
                    <path d="M10.4202572,36.3102894 C9.73967353,9.08694134 1.30043564,34.7222608 0.892085418,18.3882519"></path>
                    <path d="M9.5128123,0.0124919923 C10.193396,27.23584 0.483735197,2.0542431 0.892085418,18.3882519"></path>
                </g>
                <g transform="translate(81.000000, 39.000000)" id="Path">
                    <path d="M39.666302,1.50437637 C10.2194601,0.729459477 37.4448735,11.2683292 19.7767684,10.8033791"></path>
                    <path d="M0.403846154,0.471153846 C29.850688,1.24607074 2.10866331,10.3384289 19.7767684,10.8033791"></path>
                </g>
                <g transform="translate(72.000000, 0.000000)" id="Path">
                    <path d="M7.69708029,37.479927 C10.439514,9.36998175 -1.49007255,34.6917861 0.155387662,17.8258189"></path>
                    <path d="M11.3536585,1.42108547e-14 C8.61122485,28.1099453 1.80084787,0.959851789 0.155387662,17.8258189"></path>
                </g>
                <g transform="translate(71.000000, 39.000000)" id="Path">
                    <path d="M8.56752037,38.1158324 C9.94476471,9.88232348 -0.751832968,35.774517 0.0745136339,18.8344117"></path>
                    <path d="M10.4038462,0.471153846 C9.02660182,28.7046627 0.900860236,1.89430633 0.0745136339,18.8344117"></path>
                </g>
                <g transform="translate(68.000000, 122.000000)" id="Path">
                    <path d="M12.9599407,36.7462908 C8.60833462,9.18611925 3.48310973,36.3594814 0.872146115,19.8233784"></path>
                    <path d="M7.15779927,-0.000604594921 C11.5094053,27.559567 -1.73881751,3.28727552 0.872146115,19.8233784"></path>
                </g>
                <g transform="translate(41.000000, 158.000000)" id="Path">
                    <path d="M39.9599407,0.746290801 C10.1084062,3.30499375 38.8227393,10.8673825 20.9118187,12.4026042"></path>
                    <path d="M0.157894737,4.15789474 C30.0094292,1.59919179 3.00089802,13.937826 20.9118187,12.4026042"></path>
                </g>
                <g transform="translate(42.000000, 198.000000)" id="Path">
                    <path d="M38.4322132,2.40382387 C10.3453785,1.09745946 36.1243028,11.6790112 19.2722019,10.8951925"></path>
                    <path d="M0.983100233,0.662004662 C29.069935,1.96836907 2.42010108,10.1113739 19.2722019,10.8951925"></path>
                </g>
                <g transform="translate(32.000000, 162.000000)" id="Path">
                    <path d="M10.9831002,36.6620047 C9.61419611,9.28392222 1.76581248,35.2931005 0.944470004,18.8662511"></path>
                    <path d="M9.15789474,0.157894737 C10.5267989,27.5359772 0.12312753,2.43940161 0.944470004,18.8662511"></path>
                </g>
                <g transform="translate(42.000000, 77.000000)" id="Path">
                    <path d="M37.5675204,0.115832363 C9.5904095,1.44807574 36.1464608,9.53035221 19.3601943,10.3296982"></path>
                    <path d="M0.264705882,1.89215686 C28.2418167,0.559913488 2.57392773,11.1290443 19.3601943,10.3296982"></path>
                </g>
                <g transform="translate(41.000000, 119.000000)" id="Path">
                    <path d="M34.1577993,2.99939541 C8.53944982,1.25268976 31.8676741,11.4223982 16.4966644,10.3743748"></path>
                    <path d="M-7.10542736e-15,0.670454545 C25.6183495,2.41716019 1.12565475,9.32635141 16.4966644,10.3743748"></path>
                </g>
                <g transform="translate(31.000000, 80.000000)" id="Path">
                    <path d="M10,39.6704545 C10,10.219697 0.183080808,37.7070707 0.183080808,20.0366162"></path>
                    <path d="M10,0.402777778 C10,29.8535354 0.183080808,2.36616162 0.183080808,20.0366162"></path>
                </g>
                <g transform="translate(40.000000, 36.000000)" id="Path">
                    <path d="M39.6970803,1.47992701 C10.2635345,0.744088363 37.4895644,11.242053 19.8294369,10.8005498"></path>
                    <path d="M0.452352591,0.498808815 C29.8858984,1.23464746 2.16930943,10.3590466 19.8294369,10.8005498"></path>
                </g>
                <g transform="translate(30.000000, 0.000000)" id="Path">
                    <path d="M10.4523526,36.4988088 C9.80058815,9.1247022 1.28419942,34.8911232 0.893140758,18.4666592"></path>
                    <path d="M9.58333333,-7.10542736e-15 C10.2350978,27.3741066 0.502082093,2.04219526 0.893140758,18.4666592"></path>
                </g>
                <g transform="translate(30.000000, 202.000000)" id="Path">
                    <path d="M9.95121951,38 C9.26201954,9.74280105 0.48620653,36.3459201 0.0726865449,19.3916007"></path>
                    <path d="M9.03228621,0.323734729 C9.72148619,28.5809337 -0.34083344,2.43728132 0.0726865449,19.3916007"></path>
                </g>
                <g transform="translate(43.000000, 59.500000) scale(-1, -1) translate(-43.000000, -59.500000) translate(36.000000, 40.000000)" id="Path">
                    <path d="M13.2647059,38.8921569 C9.05093257,10.0980392 3.38574845,38.3771401 0.857484457,21.1006695"></path>
                    <path d="M7.64634146,0.5 C11.8601148,29.2941176 -1.67077953,3.82419895 0.857484457,21.1006695"></path>
                </g>
                <g transform="translate(29.000000, 120.000000)" id="Path">
                    <path d="M7.85555556,37.8555556 C10.6198355,9.52168622 -1.40478223,35.0452043 0.253785734,18.0448827"></path>
                    <path d="M11.5412621,0.0770631068 C8.7769822,28.4109324 1.91235369,1.04456108 0.253785734,18.0448827"></path>
                </g>
                <g transform="translate(0.000000, 150.000000)" id="Path">
                    <path d="M7.10542736e-15,11.4512195 C27.6416667,8.75447154 0.943861789,2.05754743 17.5288618,0.439498645"></path>
                    <path d="M36.8555556,7.85555556 C9.21388889,10.5523035 34.1138618,-1.17855014 17.5288618,0.439498645"></path>
                </g>
                <g transform="translate(0.000000, 199.000000)" id="Path">
                    <path d="M39.0322862,3.32373473 C9.75807155,1.2327194 36.3836668,12.9424053 18.819138,11.6877961"></path>
                    <path d="M0,0.535714286 C29.2742147,2.62672962 1.2546092,10.4331869 18.819138,11.6877961"></path>
                </g>
                <g transform="translate(0.000000, 70.000000)" id="Path">
                    <path d="M0,11.5416667 C30.75,10.6875 1.76527778,1.23472222 20.2152778,0.722222222"></path>
                    <path d="M41,10.4027778 C10.25,11.2569444 38.6652778,0.209722222 20.2152778,0.722222222"></path>
                </g>
                <g transform="translate(0.000000, 118.000000)" id="Path">
                    <path d="M40.5412621,2.07706311 C10.1353155,0.556765777 38.0074333,12.1110255 19.7638653,11.1988471"></path>
                    <path d="M7.10542736e-15,0.05 C30.4059466,1.57029733 1.52029733,10.2866687 19.7638653,11.1988471"></path>
                </g>
                <g transform="translate(0.000000, 40.000000)" id="Path">
                    <path d="M36.6463415,0.5 C9.16158537,0.5 34.8140244,9.66158537 18.3231707,9.66158537"></path>
                    <path d="M-4.97379915e-13,0.5 C27.4847561,0.5 1.83231707,9.66158537 18.3231707,9.66158537"></path>
                </g>
            </g>
            <g id="Group" transform="translate(36.000000, 34.000000)">
                <line x1="722.351385" y1="88.0365239" x2="723.457447" y2="86.6702128" id="Path"></line>
                <line x1="725.106061" y1="123.621212" x2="724.813087" y2="123.320914" id="Path"></line>
                <line x1="724" y1="7.8" x2="724.659132" y2="7.22875226" id="Path"></line>
                <line x1="725" y1="168.392857" x2="721.884615" y2="165.5" id="Path"></line>
                <line x1="721.525641" y1="49" x2="724" y2="46.4605263" id="Path"></line>
                <line x1="686" y1="166" x2="686.5" y2="165.5" id="Path"></line>
                <line x1="681.866771" y1="128.434169" x2="684.5" y2="125.5" id="Path"></line>
                <line x1="682.416606" y1="86.9572056" x2="680.554889" y2="85.1432247" id="Path"></line>
                <line x1="684" y1="6.7826087" x2="685.94198" y2="5.26279863" id="Path"></line>
                <line x1="686.115385" y1="49" x2="684" y2="46.5735294" id="Path"></line>
                <line x1="646.358263" y1="6.69059107" x2="648.061002" y2="5.22004357" id="Path"></line>
                <line x1="643.547093" y1="45.383738" x2="641.971642" y2="43.538209" id="Path"></line>
                <line x1="643.89847" y1="167.162726" x2="645" y2="166" id="Path"></line>
                <line x1="645" y1="128.974359" x2="646.501317" y2="127.550033" id="Path"></line>
                <line x1="645.405903" y1="85.9243133" x2="644.543261" y2="85.2304493" id="Path"></line>
                <line x1="605.264398" y1="127.955497" x2="605.061798" y2="127.702247" id="Path"></line>
                <line x1="603.874003" y1="163.732057" x2="602.895415" y2="162.700573" id="Path"></line>
                <line x1="603.023657" y1="45.4731458" x2="603.889531" y2="44.4902617" id="Path"></line>
                <line x1="606.964968" y1="87.7356688" x2="605.049939" y2="85.998782" id="Path"></line>
                <line x1="601.030816" y1="5.42115491" x2="604.165313" y2="2.36310905" id="Path"></line>
                <line x1="566.001252" y1="86.951189" x2="562.129841" y2="83.2733485" id="Path"></line>
                <line x1="562.017375" y1="127.330116" x2="565.037374" y2="124.542424" id="Path"></line>
                <line x1="565.04321" y1="167.432099" x2="564.088015" y2="166.672285" id="Path"></line>
                <line x1="561.5" y1="5" x2="562" y2="4.53409091" id="Path"></line>
                <line x1="563.834149" y1="47.4828641" x2="561.5" y2="44.9594595" id="Path"></line>
                <line x1="526.490044" y1="125.597075" x2="524.758085" y2="123.677878" id="Path"></line>
                <line x1="526.5" y1="169.357143" x2="522.383799" y2="165.632961" id="Path"></line>
                <line x1="523.090517" y1="86.9913793" x2="522.5" y2="86.4545455" id="Path"></line>
                <line x1="520.47328" y1="6.43121092" x2="522.051282" y2="5" id="Path"></line>
                <line x1="522.5" y1="46.0135135" x2="521.435506" y2="44.9202497" id="Path"></line>
                <line x1="488.37234" y1="166.37234" x2="486.026316" y2="164.026316" id="Path"></line>
                <line x1="484.049348" y1="86.358473" x2="485" y2="85.6022727" id="Path"></line>
                <line x1="485.078947" y1="127.078947" x2="481.214286" y2="123.214286" id="Path"></line>
                <line x1="483.609687" y1="6.47079772" x2="484.511682" y2="5.61390187" id="Path"></line>
                <line x1="485" y1="46.9444444" x2="481.595714" y2="43.7292857" id="Path"></line>
                <line x1="444.189573" y1="46.9905213" x2="444.459079" y2="46.6611253" id="Path"></line>
                <line x1="442.294258" y1="127.413876" x2="443.5" y2="126.115385" id="Path"></line>
                <line x1="446" y1="163" x2="444.571429" y2="161.571429" id="Path"></line>
                <line x1="443.5" y1="87.0135135" x2="447.600234" y2="82.8024619" id="Path"></line>
                <line x1="442.551282" y1="7.55128205" x2="442.207317" y2="7.20731707" id="Path"></line>
                <line x1="405.487207" y1="85.9861407" x2="404.115385" y2="84.5" id="Path"></line>
                <line x1="404.5" y1="5.9" x2="405.955497" y2="4.73560209" id="Path"></line>
                <line x1="406.857143" y1="48.8571429" x2="404.5" y2="46.5" id="Path"></line>
                <line x1="400.926056" y1="127.59507" x2="404.468105" y2="124.712008" id="Path"></line>
                <line x1="405.301205" y1="168.116466" x2="402.947592" y2="166.004249" id="Path"></line>
                <line x1="363.711043" y1="49.0374233" x2="365.939024" y2="46.5" id="Path"></line>
                <line x1="366.5" y1="84.5" x2="365.304878" y2="83.304878" id="Path"></line>
                <line x1="364.964023" y1="6.52492918" x2="366.401366" y2="5.05336368" id="Path"></line>
                <line x1="362.5" y1="128.5" x2="366.5" y2="125.3" id="Path"></line>
                <line x1="364.15" y1="169.15" x2="362.5" y2="167.5" id="Path"></line>
                <line x1="322" y1="46.8421053" x2="320.787671" y2="45.4383562" id="Path"></line>
                <line x1="324" y1="87.7702703" x2="322" y2="85.5" id="Path"></line>
                <line x1="325.964344" y1="8.33886772" x2="323.834512" y2="5.97878359" id="Path"></line>
                <line x1="326.206543" y1="169.361203" x2="324" y2="167.028571" id="Path"></line>
                <line x1="283.100511" y1="166.373644" x2="283.5" y2="165.871429" id="Path"></line>
                <line x1="282.5" y1="3.39189189" x2="284.693946" y2="0.960762332" id="Path"></line>
                <line x1="286.393333" y1="44.6566667" x2="282.5" y2="41.25" id="Path"></line>
                <line x1="283.5" y1="128.722222" x2="282.5" y2="127.833333" id="Path"></line>
                <line x1="282.5" y1="85.5" x2="281.684211" y2="84.6842105" id="Path"></line>
                <line x1="243.840909" y1="47.5" x2="245.837438" y2="44.9162562" id="Path"></line>
                <line x1="244.489182" y1="83.9327248" x2="246.199164" y2="82.0877437" id="Path"></line>
                <line x1="243.657025" y1="125.243802" x2="243.461656" y2="125.03378" id="Path"></line>
                <line x1="240.278716" y1="7.85810811" x2="242.791866" y2="5.53827751" id="Path"></line>
                <line x1="246.280488" y1="169.280488" x2="239.055556" y2="162.055556" id="Path"></line>
                <line x1="204.50142" y1="85.5262784" x2="205" y2="85" id="Path"></line>
                <line x1="205.649508" y1="6.04229508" x2="206.947396" y2="4.89532412" id="Path"></line>
                <line x1="203.986486" y1="47.5" x2="201.632515" y2="45.2079755" id="Path"></line>
                <line x1="199.21437" y1="128.672088" x2="206.490735" y2="122.32859" id="Path"></line>
                <line x1="205.5" y1="166.25" x2="203.84058" y2="164.756522" id="Path"></line>
                <line x1="162.770073" y1="87.6411192" x2="163.840369" y2="86.5963061" id="Path"></line>
                <line x1="165.750859" y1="124.869416" x2="165.152847" y2="124.17698" id="Path"></line>
                <line x1="165.473736" y1="5.01214708" x2="163" y2="2.33783784" id="Path"></line>
                <line x1="167.818182" y1="46.8181818" x2="163.54878" y2="42.5487805" id="Path"></line>
                <line x1="163.201897" y1="168.239837" x2="159.653846" y2="164.5" id="Path"></line>
                <line x1="121.546961" y1="48.0110497" x2="125.046742" y2="43.5113314" id="Path"></line>
                <line x1="121.263689" y1="10.2204611" x2="124.613584" y2="6.48772064" id="Path"></line>
                <line x1="123.189587" y1="165.775049" x2="124.402439" y2="164.5" id="Path"></line>
                <line x1="120.838558" y1="127.970219" x2="122" y2="126.642857" id="Path"></line>
                <line x1="122" y1="88" x2="126.4" y2="83.6" id="Path"></line>
                <line x1="84" y1="127.025641" x2="79.9004388" y2="123.136314" id="Path"></line>
                <line x1="88.7120482" y1="169.879518" x2="84" y2="165.539474" id="Path"></line>
                <line x1="83.9672382" y1="88.975199" x2="81.3215535" y2="85.7848146" id="Path"></line>
                <line x1="84.666302" y1="6.50437637" x2="85.5436137" y2="5.75545171" id="Path"></line>
                <line x1="86.4490143" y1="48.8670972" x2="81.5342612" y2="44.0888651" id="Path"></line>
                <line x1="44.596577" y1="166.576406" x2="44.4322132" y2="166.403824" id="Path"></line>
                <line x1="45.4038462" y1="5.47115385" x2="43.6970803" y2="3.47992701" id="Path"></line>
                <line x1="45.5128123" y1="45.012492" x2="43.5675204" y2="43.1158324" id="Path"></line>
                <line x1="39.1577993" y1="87.9993954" x2="46.4202572" y2="81.3102894" id="Path"></line>
                <line x1="47.4002865" y1="126.829513" x2="44.9599407" y2="124.746291" id="Path"></line>
                <line x1="5" y1="46.4027778" x2="6.26470588" y2="44.8921569" id="Path"></line>
                <line x1="3.03228621" y1="168.323735" x2="6.98310023" y2="164.662005" id="Path"></line>
                <line x1="0.646341463" y1="6.5" x2="4.45235259" y2="2.49880881" id="Path"></line>
                <line x1="4.54126214" y1="86.0770631" x2="5" y2="85.6704545" id="Path"></line>
                <line x1="5.15789474" y1="128.157895" x2="0.855555556" y2="123.855556" id="Path"></line>
            </g>
            <rect id="Rectangle" x="0" y="0" width="800" height="240"></rect>
        </g>
    </g>
</svg>