<?xml version="1.0" encoding="UTF-8"?>
<svg width="201px" height="161px" viewBox="0 0 201 161" version="1.1" xmlns="http://www.w3.org/2000/svg" xmlns:xlink="http://www.w3.org/1999/xlink">
    <!-- Generator: Sketch 61 (89581) - https://sketch.com -->
    <title>SVG Layer</title>
    <desc>Created with Sketch.</desc>
    <g id="Page-1" stroke="none" stroke-width="1" fill="none" fill-rule="evenodd" fill-opacity="0">
        <g id="SVG-Layer" transform="translate(0.500000, 0.500000)" fill="#000000" fill-rule="nonzero" stroke="#000000">
            <g id="Group">
                <g transform="translate(163.000000, 37.000000)" id="Path">
                    <path d="M37,0.242857143 C9.42050283,4.97077094 36.7373381,9.75121712 20.1896398,12.5879654"></path>
                    <path d="M0.22733711,6.54674221 C27.8068343,1.81882841 3.64194152,15.4247137 20.1896398,12.5879654"></path>
                </g>
                <g transform="translate(164.000000, 71.000000)" id="Path">
                    <path d="M0.968120805,7.36241611 C27.2420302,10.865604 3.88744407,-1.16200783 19.6517897,0.939904922"></path>
                    <path d="M36,12.0333333 C9.7260906,8.53014541 35.4161353,3.04181767 19.6517897,0.939904922"></path>
                </g>
                <g transform="translate(155.000000, 43.000000)" id="Path">
                    <path d="M9.96812081,35.3624161 C8.66253303,9.25066068 1.17716315,34.0568283 0.393810483,18.3897751"></path>
                    <path d="M8.22733711,0.54674221 C9.53292488,26.6584976 -0.389542179,2.72272183 0.393810483,18.3897751"></path>
                </g>
                <g transform="translate(158.000000, 111.000000)" id="Path">
                    <path d="M0.987525287,11.5134862 C31.7468813,10.7040294 2.76833011,1.20640372 21.2239437,0.720729673"></path>
                    <path d="M42,10.4342105 C11.240644,11.2436673 39.6795574,0.23505563 21.2239437,0.720729673"></path>
                </g>
                <g transform="translate(157.000000, 124.000000)" id="Path">
                    <path d="M0,0.662162162 C0,27.1655405 8.83445946,2.42905405 8.83445946,18.3310811"></path>
                    <path d="M0,36 C0,9.49662162 8.83445946,34.2331081 8.83445946,18.3310811"></path>
                </g>
                <g transform="translate(148.000000, 83.000000)" id="Path">
                    <path d="M10.9875253,39.5134862 C10.2444705,10.5343476 1.27827543,37.8292285 0.832442531,20.4417454"></path>
                    <path d="M9.99678551,0.874634717 C10.7398403,29.8537733 0.38660963,3.05426223 0.832442531,20.4417454"></path>
                </g>
                <g transform="translate(148.000000, 0.000000)" id="Path">
                    <path d="M6.30939072,35.3518726 C11.4828355,8.83796814 -2.1836811,31.8597973 0.920385758,15.9514547"></path>
                    <path d="M13.2073171,0 C8.03387231,26.5139044 4.02445262,0.0431120397 0.920385758,15.9514547"></path>
                </g>
                <g transform="translate(121.000000, 29.000000)" id="Path">
                    <path d="M0.461538462,11.4615385 C25.0974277,7.62928903 0.826514598,2.9940921 15.6080481,0.694742443"></path>
                    <path d="M33.3093907,6.35187255 C8.67350153,10.184122 30.3895816,-1.60460722 15.6080481,0.694742443"></path>
                </g>
                <g transform="translate(125.000000, 73.000000)" id="Path">
                    <path d="M0.0770700637,7.13375796 C24.7668566,9.93941553 2.65827502,-0.909127061 17.472147,0.774267479"></path>
                    <path d="M32.9967855,10.8746347 C8.30699892,8.06897715 32.2860189,2.45766202 17.472147,0.774267479"></path>
                </g>
                <g transform="translate(111.000000, 40.000000)" id="Path">
                    <path d="M7.71370968,33.4354839 C9.77458127,8.70502481 -0.392385236,31.0998294 0.844137717,16.261554"></path>
                    <path d="M10.4615385,0.461538462 C8.40066687,25.1919975 2.08066067,1.42327854 0.844137717,16.261554"></path>
                </g>
                <g transform="translate(122.000000, 120.000000)" id="Path">
                    <path d="M35,4.66216216 C8.90459437,1.84103723 32.3199313,13.1725557 16.6626879,11.4798807"></path>
                    <path d="M0.206125828,0.900662252 C26.3015315,3.72178718 1.00544456,9.78720579 16.6626879,11.4798807"></path>
                </g>
                <g transform="translate(112.000000, 80.000000)" id="Path">
                    <path d="M6.77209839,36.9127594 C11.5008271,9.32850833 -2.10740339,33.4975664 0.729833861,16.9470158"></path>
                    <path d="M13.0770701,0.133757962 C8.34834131,27.7180091 3.56707112,0.396465115 0.729833861,16.9470158"></path>
                </g>
                <g transform="translate(112.000000, 0.000000)" id="Path">
                    <path d="M0.916666667,0 C5.70416667,28.725 10.8108333,0.319166667 13.6833333,17.5541667"></path>
                    <path d="M7.3,38.3 C2.5125,9.575 16.5558333,34.7891667 13.6833333,17.5541667"></path>
                </g>
                <g transform="translate(114.000000, 120.000000)" id="Path">
                    <path d="M8.20612583,0.900662252 C2.70778146,30.2251656 17.614404,4.6884106 14.3153974,22.2831126"></path>
                    <path d="M0.875,40 C6.37334437,10.6754967 11.0163907,39.8778146 14.3153974,22.2831126"></path>
                </g>
                <g transform="translate(83.000000, 67.000000)" id="Path">
                    <path d="M0.259433962,13.1886792 C26.8501407,8.12378271 0.343848904,3.98745055 16.298273,0.948512629"></path>
                    <path d="M35.7137097,6.43548387 C9.12300289,11.5003804 32.252697,-2.09042529 16.298273,0.948512629"></path>
                </g>
                <g transform="translate(84.000000, 107.000000)" id="Path">
                    <path d="M0.59148265,8.98895899 C26.2269445,9.68180931 2.53146354,0.489995078 17.9127406,0.905705269"></path>
                    <path d="M34.7720984,9.91275942 C9.13663658,9.2199091 33.2940177,1.32141546 17.9127406,0.905705269"></path>
                </g>
                <g transform="translate(74.000000, 83.000000)" id="Path">
                    <path d="M10.5914826,32.988959 C7.23900612,8.9628772 2.35929028,32.5047124 0.347804366,18.0890633"></path>
                    <path d="M6.12151394,0.954183267 C9.47399047,24.9802651 -1.66368155,3.67341423 0.347804366,18.0890633"></path>
                </g>
                <g transform="translate(73.000000, 122.000000)" id="Path">
                    <path d="M14.8076923,38 C8.98469007,9.61286408 4.95711352,38.048525 1.46331217,21.0162435"></path>
                    <path d="M7.04368932,0.150485437 C12.8666916,28.5376214 -2.03048917,3.98396191 1.46331217,21.0162435"></path>
                </g>
                <g transform="translate(78.000000, 38.000000)" id="Path">
                    <path d="M41.3,0.3 C10.5753056,1.20366748 39.5529095,10.6018093 21.1180929,11.1440098"></path>
                    <path d="M0.333740831,1.50488998 C31.0584352,0.601222494 2.68327628,11.6862103 21.1180929,11.1440098"></path>
                </g>
                <g transform="translate(69.000000, 42.000000)" id="Path">
                    <path d="M14.259434,38.1886792 C8.48784021,10.1552239 4.53017593,38.2436468 1.06721968,21.4235736"></path>
                    <path d="M6.56397563,0.810738766 C12.3355694,28.8441941 -2.39573657,4.60350037 1.06721968,21.4235736"></path>
                </g>
                <g transform="translate(75.000000, 0.000000)" id="Path">
                    <path d="M0.0416666667,0 C2.51072229,29.6286675 10.0824929,1.15222596 11.5639262,18.9294264"></path>
                    <path d="M3.33374083,39.50489 C0.864685208,9.87622249 13.0453596,36.7066269 11.5639262,18.9294264"></path>
                </g>
                <g transform="translate(39.000000, 122.000000)" id="Path">
                    <path d="M41.0436893,0.150485437 C10.7259223,2.48262136 39.7998835,10.4118835 21.6092233,11.811165"></path>
                    <path d="M0.62,3.26 C30.937767,0.927864078 3.41856311,13.2104466 21.6092233,11.811165"></path>
                </g>
                <g transform="translate(31.000000, 125.000000)" id="Path">
                    <path d="M9.34375,35 C8.8009375,8.945 0.6225625,33.4439375 0.296875,17.8109375"></path>
                    <path d="M8.62,0.26 C9.1628125,26.315 -0.0288125,2.1779375 0.296875,17.8109375"></path>
                </g>
                <g transform="translate(38.000000, 34.000000)" id="Path">
                    <path d="M0.687645688,11.722028 C28.3448931,9.53856107 1.80363988,2.35738103 18.3979884,1.04730088"></path>
                    <path d="M37.5639756,8.81073877 C9.90672817,10.9942057 34.9923368,-0.262779259 18.3979884,1.04730088"></path>
                </g>
                <g transform="translate(40.000000, 73.000000)" id="Path">
                    <path d="M0.860702152,9.99660249 C30.306311,10.7147881 3.06313794,0.229278582 20.7305032,0.660189931"></path>
                    <path d="M40.1215139,10.9541833 C10.6759051,10.2359977 38.3978685,1.09110128 20.7305032,0.660189931"></path>
                </g>
                <g transform="translate(38.000000, 45.000000)" id="Path">
                    <path d="M0.687645688,0.722027972 C1.90911857,28.2051679 9.93012386,2.14707967 10.6630076,18.6369636"></path>
                    <path d="M2.3162762,37.3662145 C1.09480332,9.88307462 11.3958913,35.1268476 10.6630076,18.6369636"></path>
                </g>
                <g transform="translate(38.000000, 83.000000)" id="Path">
                    <path d="M2.86070215,-0.00339750849 C0.742466643,30.3579781 12.839945,2.7267727 11.5690037,20.9435981"></path>
                    <path d="M0.0363881402,40.4784367 C2.15462365,10.117061 10.2980624,39.1604235 11.5690037,20.9435981"></path>
                </g>
                <g transform="translate(37.000000, 0.000000)" id="Path">
                    <path d="M2.14285714,0 C0.571428571,33 13.0380952,2.72380952 12.0952381,22.5238095"></path>
                    <path d="M0.0476190476,44 C1.61904762,11 11.152381,42.3238095 12.0952381,22.5238095"></path>
                </g>
                <g transform="translate(0.000000, 72.000000)" id="Path">
                    <path d="M-3.55271368e-14,11.4861111 C30.2372072,10.6461887 1.73583967,1.35104723 19.878164,0.84709378"></path>
                    <path d="M40.3162762,10.3662145 C10.0790691,11.206137 38.0204883,0.343140327 19.878164,0.84709378"></path>
                </g>
                <g transform="translate(0.000000, 121.000000)" id="Path">
                    <path d="M38.0363881,2.47843666 C9.50909704,1.15158591 35.6922852,11.899077 18.5759105,11.1029665"></path>
                    <path d="M0,0.709302326 C28.5272911,2.03615307 1.45953582,10.3068561 18.5759105,11.1029665"></path>
                </g>
                <g transform="translate(0.000000, 44.000000)" id="Path">
                    <path d="M37.047619,0 C9.26190476,0 35.1952381,9.26190476 18.5238095,9.26190476"></path>
                    <path d="M-2.84217094e-13,7.10542736e-15 C27.7857143,7.10542736e-15 1.85238095,9.26190476 18.5238095,9.26190476"></path>
                </g>
            </g>
            <g id="Group" transform="translate(37.000000, 35.000000)">
                <line x1="120" y1="89.6621622" x2="121.987525" y2="87.5134862" id="Path"></line>
                <line x1="120.996786" y1="48.8746347" x2="127.968121" y2="43.3624161" id="Path"></line>
                <line x1="126.227337" y1="8.54674221" x2="117.309391" y2="0.351872554" id="Path"></line>
                <line x1="88.0770701" y1="45.133758" x2="81.7137097" y2="38.4354839" id="Path"></line>
                <line x1="85.2061258" y1="85.9006623" x2="81.7720984" y2="81.9127594" id="Path"></line>
                <line x1="84.4615385" y1="5.46153846" x2="82.3" y2="3.3" id="Path"></line>
                <line x1="43.1215139" y1="48.9541833" x2="46.259434" y2="45.1886792" id="Path"></line>
                <line x1="43.0436893" y1="87.1504854" x2="47.5914826" y2="80.988959" id="Path"></line>
                <line x1="38.5639756" y1="7.81073877" x2="41.3337408" y2="4.50488998" id="Path"></line>
                <line x1="3.86070215" y1="47.9966025" x2="3.3162762" y2="47.3662145" id="Path"></line>
                <line x1="2.62" y1="90.26" x2="1.03638814" y2="88.4784367" id="Path"></line>
                <line x1="1.68764569" y1="10.722028" x2="0.0476190476" y2="9" id="Path"></line>
            </g>
            <rect id="Rectangle" x="0" y="0" width="200" height="160"></rect>
        </g>
    </g>
</svg>