<?xml version="1.0" encoding="UTF-8" standalone="no"?>
<svg
   xmlns:dc="http://purl.org/dc/elements/1.1/"
   xmlns:cc="http://creativecommons.org/ns#"
   xmlns:rdf="http://www.w3.org/1999/02/22-rdf-syntax-ns#"
   xmlns:svg="http://www.w3.org/2000/svg"
   xmlns="http://www.w3.org/2000/svg"
   xmlns:sodipodi="http://sodipodi.sourceforge.net/DTD/sodipodi-0.dtd"
   xmlns:inkscape="http://www.inkscape.org/namespaces/inkscape"
   width="201px"
   height="161px"
   viewBox="0 0 201 161"
   version="1.1"
   id="svg494"
   sodipodi:docname="puzzle5x4-opt.svg"
   inkscape:version="0.92.2 5c3e80d, 2017-08-06">
  <sodipodi:namedview
     pagecolor="#ffffff"
     bordercolor="#666666"
     borderopacity="1"
     objecttolerance="10"
     gridtolerance="10"
     guidetolerance="10"
     inkscape:pageopacity="0"
     inkscape:pageshadow="2"
     inkscape:window-width="1631"
     inkscape:window-height="983"
     id="namedview496"
     showgrid="false"
     inkscape:zoom="2.4596273"
     inkscape:cx="73.663973"
     inkscape:cy="42.622439"
     inkscape:window-x="0"
     inkscape:window-y="0"
     inkscape:window-maximized="0"
     inkscape:current-layer="g4668" />
  <metadata
     id="metadata500">
    <rdf:RDF>
      <cc:Work
         rdf:about="">
        <dc:format>image/svg+xml</dc:format>
        <dc:type
           rdf:resource="http://purl.org/dc/dcmitype/StillImage" />
        <dc:title>SVG Layer</dc:title>
      </cc:Work>
    </rdf:RDF>
  </metadata>
  <defs
     id="defs498" />
  <!-- Generator: Sketch 61 (89581) - https://sketch.com -->
  <title
     id="title275">SVG Layer</title>
  <desc
     id="desc277">Created with Sketch.</desc>
  <path
     inkscape:connector-curvature="0"
     id="path279"
     d="M 200.5,37.742857 C 172.9205,42.470771 200.23734,47.251217 183.68964,50.087965"
     style="fill:#000000;fill-opacity:0;fill-rule:nonzero;stroke:#000000;stroke-width:1" />
  <path
     inkscape:connector-curvature="0"
     id="path281"
     d="M 163.72734,44.046742 C 191.30683,39.318828 167.14194,52.924714 183.68964,50.087965"
     style="fill:#000000;fill-opacity:0;fill-rule:nonzero;stroke:#000000;stroke-width:1" />
  <path
     inkscape:connector-curvature="0"
     id="path284"
     d="M 165.46812,78.862416 C 191.74203,82.365604 168.38744,70.337992 184.15179,72.439905"
     style="fill:#000000;fill-opacity:0;fill-rule:nonzero;stroke:#000000;stroke-width:1" />
  <path
     inkscape:connector-curvature="0"
     id="path286"
     d="M 200.5,83.533333 C 174.22609,80.030145 199.91613,74.541818 184.15179,72.439905"
     style="fill:#000000;fill-opacity:0;fill-rule:nonzero;stroke:#000000;stroke-width:1" />
  <path
     inkscape:connector-curvature="0"
     id="path290"
     d="M 165.46812,78.862416 C 164.16253,52.750661 156.67716,77.556828 155.89381,61.889775"
     style="fill:#000000;fill-opacity:0;fill-rule:nonzero;stroke:#000000;stroke-width:1" />
  <path
     inkscape:connector-curvature="0"
     id="path292"
     d="M 163.72734,44.046742 C 165.03292,70.158498 155.11046,46.222722 155.89381,61.889775"
     style="fill:#000000;fill-opacity:0;fill-rule:nonzero;stroke:#000000;stroke-width:1" />
  <path
     inkscape:connector-curvature="0"
     id="path296"
     d="M 159.48753,123.01349 C 190.24688,122.20403 161.26833,112.7064 179.72394,112.22073"
     style="fill:#000000;fill-opacity:0;fill-rule:nonzero;stroke:#000000;stroke-width:1" />
  <path
     inkscape:connector-curvature="0"
     id="path298"
     d="M 200.5,121.93421 C 169.74064,122.74367 198.17956,111.73506 179.72394,112.22073"
     style="fill:#000000;fill-opacity:0;fill-rule:nonzero;stroke:#000000;stroke-width:1" />
  <path
     inkscape:connector-curvature="0"
     id="path302"
     d="M 157.5,125.16216 C 157.5,151.66554 166.33446,126.92905 166.33446,142.83108"
     style="fill:#000000;fill-opacity:0;fill-rule:nonzero;stroke:#000000;stroke-width:1" />
  <path
     inkscape:connector-curvature="0"
     id="path304"
     d="M 157.5,160.5 C 157.5,133.99662 166.33446,158.73311 166.33446,142.83108"
     style="fill:#000000;fill-opacity:0;fill-rule:nonzero;stroke:#000000;stroke-width:1" />
  <path
     inkscape:connector-curvature="0"
     id="path308"
     d="M 159.48752,123.01349 C 158.74447,94.034348 149.77828,121.32923 149.33244,103.94174"
     style="fill:#000000;fill-opacity:0;fill-rule:nonzero;stroke:#000000;stroke-width:1" />
  <path
     inkscape:connector-curvature="0"
     id="path310"
     d="M 158.49679,84.374635 C 159.23984,113.35377 148.88661,86.554262 149.33244,103.94174"
     style="fill:#000000;fill-opacity:0;fill-rule:nonzero;stroke:#000000;stroke-width:1" />
  <path
     inkscape:connector-curvature="0"
     id="path314"
     d="M 154.80939,35.851873 C 159.98284,9.3379681 146.31632,32.359797 149.42039,16.451455"
     style="fill:#000000;fill-opacity:0;fill-rule:nonzero;stroke:#000000;stroke-width:1" />
  <path
     inkscape:connector-curvature="0"
     id="path316"
     d="M 161.70732,0.5 C 156.53387,27.013904 152.52445,0.543112 149.42039,16.451455"
     style="fill:#000000;fill-opacity:0;fill-rule:nonzero;stroke:#000000;stroke-width:1" />
  <path
     inkscape:connector-curvature="0"
     id="path320"
     d="M 121.96154,40.961539 C 146.59743,37.129289 122.32651,32.494092 137.10805,30.194742"
     style="fill:#000000;fill-opacity:0;fill-rule:nonzero;stroke:#000000;stroke-width:1" />
  <path
     inkscape:connector-curvature="0"
     id="path322"
     d="M 154.80939,35.851873 C 130.1735,39.684122 151.88958,27.895393 137.10805,30.194742"
     style="fill:#000000;fill-opacity:0;fill-rule:nonzero;stroke:#000000;stroke-width:1" />
  <path
     inkscape:connector-curvature="0"
     id="path326"
     d="M 125.57707,80.633758 C 150.26686,83.439415 128.15827,72.590873 142.97215,74.274267"
     style="fill:#000000;fill-opacity:0;fill-rule:nonzero;stroke:#000000;stroke-width:1" />
  <path
     inkscape:connector-curvature="0"
     id="path328"
     d="M 158.49679,84.374635 C 133.807,81.568977 157.78602,75.957662 142.97215,74.274267"
     style="fill:#000000;fill-opacity:0;fill-rule:nonzero;stroke:#000000;stroke-width:1" />
  <path
     inkscape:connector-curvature="0"
     id="path332"
     d="M 119.21371,73.935484 C 121.27458,49.205025 111.10761,71.599829 112.34414,56.761554"
     style="fill:#000000;fill-opacity:0;fill-rule:nonzero;stroke:#000000;stroke-width:1" />
  <path
     inkscape:connector-curvature="0"
     id="path334"
     d="M 121.96154,40.961538 C 119.90067,65.691997 113.58066,41.923279 112.34414,56.761554"
     style="fill:#000000;fill-opacity:0;fill-rule:nonzero;stroke:#000000;stroke-width:1" />
  <path
     inkscape:connector-curvature="0"
     id="path338"
     d="M 157.5,125.16216 C 131.40459,122.34104 154.81993,133.67256 139.16269,131.97988"
     style="fill:#000000;fill-opacity:0;fill-rule:nonzero;stroke:#000000;stroke-width:1" />
  <path
     inkscape:connector-curvature="0"
     id="path340"
     d="M 122.70613,121.40066 C 148.80153,124.22179 123.50544,130.28721 139.16269,131.97988"
     style="fill:#000000;fill-opacity:0;fill-rule:nonzero;stroke:#000000;stroke-width:1" />
  <path
     inkscape:connector-curvature="0"
     id="path344"
     d="M 119.2721,117.41276 C 124.00083,89.828508 110.3926,113.99757 113.22983,97.447016"
     style="fill:#000000;fill-opacity:0;fill-rule:nonzero;stroke:#000000;stroke-width:1" />
  <path
     inkscape:connector-curvature="0"
     id="path346"
     d="M 125.57707,80.633758 C 120.84834,108.21801 116.06707,80.896465 113.22983,97.447016"
     style="fill:#000000;fill-opacity:0;fill-rule:nonzero;stroke:#000000;stroke-width:1" />
  <path
     inkscape:connector-curvature="0"
     id="path350"
     d="M 113.41667,0.5 C 118.20417,29.225 123.31083,0.81916667 126.18333,18.054167"
     style="fill:#000000;fill-opacity:0;fill-rule:nonzero;stroke:#000000;stroke-width:1" />
  <path
     inkscape:connector-curvature="0"
     id="path352"
     d="M 119.8,38.8 C 115.0125,10.075 129.05583,35.289167 126.18333,18.054167"
     style="fill:#000000;fill-opacity:0;fill-rule:nonzero;stroke:#000000;stroke-width:1" />
  <path
     inkscape:connector-curvature="0"
     id="path356"
     d="M 122.70613,121.40066 C 117.20778,150.72517 132.1144,125.18841 128.8154,142.78311"
     style="fill:#000000;fill-opacity:0;fill-rule:nonzero;stroke:#000000;stroke-width:1" />
  <path
     inkscape:connector-curvature="0"
     id="path358"
     d="M 115.375,160.5 C 120.87334,131.1755 125.51639,160.37781 128.8154,142.78311"
     style="fill:#000000;fill-opacity:0;fill-rule:nonzero;stroke:#000000;stroke-width:1" />
  <path
     inkscape:connector-curvature="0"
     id="path362"
     d="M 83.759434,80.688679 C 110.35014,75.623783 83.843854,71.487451 99.79827,68.448513"
     style="fill:#000000;fill-opacity:0;fill-rule:nonzero;stroke:#000000;stroke-width:1" />
  <path
     inkscape:connector-curvature="0"
     id="path364"
     d="M 119.21371,73.935484 C 92.623003,79.00038 115.7527,65.409575 99.79827,68.448513"
     style="fill:#000000;fill-opacity:0;fill-rule:nonzero;stroke:#000000;stroke-width:1" />
  <path
     inkscape:connector-curvature="0"
     id="path368"
     d="M 85.091483,116.48896 C 110.72694,117.18181 87.031463,107.99 102.41274,108.40571"
     style="fill:#000000;fill-opacity:0;fill-rule:nonzero;stroke:#000000;stroke-width:1" />
  <path
     inkscape:connector-curvature="0"
     id="path370"
     d="M 119.2721,117.41276 C 93.636637,116.71991 117.79402,108.82142 102.41274,108.40571"
     style="fill:#000000;fill-opacity:0;fill-rule:nonzero;stroke:#000000;stroke-width:1" />
  <path
     inkscape:connector-curvature="0"
     id="path374"
     d="M 85.091483,116.48896 C 81.739006,92.462877 76.85929,116.00471 74.847804,101.58906"
     style="fill:#000000;fill-opacity:0;fill-rule:nonzero;stroke:#000000;stroke-width:1" />
  <path
     inkscape:connector-curvature="0"
     id="path376"
     d="M 80.621514,84.454183 C 83.97399,108.48027 72.836319,87.173414 74.847804,101.58906"
     style="fill:#000000;fill-opacity:0;fill-rule:nonzero;stroke:#000000;stroke-width:1" />
  <path
     inkscape:connector-curvature="0"
     id="path380"
     d="M 88.307692,160.5 C 82.48469,132.11286 78.457114,160.5485 74.963312,143.51624"
     style="fill:#000000;fill-opacity:0;fill-rule:nonzero;stroke:#000000;stroke-width:1" />
  <path
     inkscape:connector-curvature="0"
     id="path382"
     d="M 80.543689,122.65049 C 86.366692,151.03762 71.469511,126.48396 74.963312,143.51624"
     style="fill:#000000;fill-opacity:0;fill-rule:nonzero;stroke:#000000;stroke-width:1" />
  <path
     inkscape:connector-curvature="0"
     id="path386"
     d="M 119.8,38.8 C 89.075306,39.703668 118.05291,49.101809 99.61809,49.64401"
     style="fill:#000000;fill-opacity:0;fill-rule:nonzero;stroke:#000000;stroke-width:1" />
  <path
     inkscape:connector-curvature="0"
     id="path388"
     d="M 78.833741,40.00489 C 109.55844,39.101222 81.183276,50.18621 99.61809,49.64401"
     style="fill:#000000;fill-opacity:0;fill-rule:nonzero;stroke:#000000;stroke-width:1" />
  <path
     inkscape:connector-curvature="0"
     id="path392"
     d="M 83.759434,80.688679 C 77.98784,52.655224 74.030176,80.743647 70.56722,63.923574"
     style="fill:#000000;fill-opacity:0;fill-rule:nonzero;stroke:#000000;stroke-width:1" />
  <path
     inkscape:connector-curvature="0"
     id="path394"
     d="M 76.063976,43.310739 C 81.835569,71.344194 67.104263,47.1035 70.56722,63.923574"
     style="fill:#000000;fill-opacity:0;fill-rule:nonzero;stroke:#000000;stroke-width:1" />
  <path
     inkscape:connector-curvature="0"
     id="path398"
     d="M 75.541667,0.5 C 78.010722,30.128667 85.582493,1.652226 87.063926,19.429426"
     style="fill:#000000;fill-opacity:0;fill-rule:nonzero;stroke:#000000;stroke-width:1" />
  <path
     inkscape:connector-curvature="0"
     id="path400"
     d="M 78.833741,40.00489 C 76.364685,10.376223 88.54536,37.206627 87.063926,19.429426"
     style="fill:#000000;fill-opacity:0;fill-rule:nonzero;stroke:#000000;stroke-width:1" />
  <path
     inkscape:connector-curvature="0"
     id="path404"
     d="M 80.543689,122.65049 C 50.225922,124.98262 79.299883,132.91188 61.109223,134.31116"
     style="fill:#000000;fill-opacity:0;fill-rule:nonzero;stroke:#000000;stroke-width:1" />
  <path
     inkscape:connector-curvature="0"
     id="path406"
     d="M 40.12,125.76 C 70.437767,123.42786 42.918563,135.71045 61.109223,134.31116"
     style="fill:#000000;fill-opacity:0;fill-rule:nonzero;stroke:#000000;stroke-width:1" />
  <path
     inkscape:connector-curvature="0"
     id="path410"
     d="M 40.84375,160.5 C 40.300938,134.445 32.122562,158.94394 31.796875,143.31094"
     style="fill:#000000;fill-opacity:0;fill-rule:nonzero;stroke:#000000;stroke-width:1" />
  <path
     inkscape:connector-curvature="0"
     id="path412"
     d="M 40.12,125.76 C 40.662812,151.815 31.471187,127.67794 31.796875,143.31094"
     style="fill:#000000;fill-opacity:0;fill-rule:nonzero;stroke:#000000;stroke-width:1" />
  <path
     inkscape:connector-curvature="0"
     id="path416"
     d="M 39.187646,46.222028 C 66.844893,44.038561 40.30364,36.857381 56.897988,35.547301"
     style="fill:#000000;fill-opacity:0;fill-rule:nonzero;stroke:#000000;stroke-width:1" />
  <path
     inkscape:connector-curvature="0"
     id="path418"
     d="M 76.063976,43.310739 C 48.406728,45.494206 73.492337,34.237221 56.897988,35.547301"
     style="fill:#000000;fill-opacity:0;fill-rule:nonzero;stroke:#000000;stroke-width:1" />
  <path
     inkscape:connector-curvature="0"
     id="path422"
     d="M 41.360702,83.496602 C 70.806311,84.214788 43.563138,73.729279 61.230503,74.16019"
     style="fill:#000000;fill-opacity:0;fill-rule:nonzero;stroke:#000000;stroke-width:1" />
  <path
     inkscape:connector-curvature="0"
     id="path424"
     d="M 80.621514,84.454183 C 51.175905,83.735998 78.897869,74.591101 61.230503,74.16019"
     style="fill:#000000;fill-opacity:0;fill-rule:nonzero;stroke:#000000;stroke-width:1" />
  <path
     inkscape:connector-curvature="0"
     id="path428"
     d="M 39.187646,46.222028 C 40.409119,73.705168 48.430124,47.64708 49.163008,64.136964"
     style="fill:#000000;fill-opacity:0;fill-rule:nonzero;stroke:#000000;stroke-width:1" />
  <path
     inkscape:connector-curvature="0"
     id="path430"
     d="M 40.816276,82.866214 C 39.594803,55.383075 49.895891,80.626848 49.163008,64.136964"
     style="fill:#000000;fill-opacity:0;fill-rule:nonzero;stroke:#000000;stroke-width:1" />
  <path
     inkscape:connector-curvature="0"
     id="path434"
     d="M 41.360702,83.496602 C 39.242467,113.85798 51.339945,86.226773 50.069004,104.4436"
     style="fill:#000000;fill-opacity:0;fill-rule:nonzero;stroke:#000000;stroke-width:1" />
  <path
     inkscape:connector-curvature="0"
     id="path436"
     d="M 38.536388,123.97844 C 40.654624,93.617061 48.798062,122.66042 50.069004,104.4436"
     style="fill:#000000;fill-opacity:0;fill-rule:nonzero;stroke:#000000;stroke-width:1" />
  <path
     inkscape:connector-curvature="0"
     id="path440"
     d="M 39.642857,0.5 C 38.071429,33.5 50.538095,3.2238095 49.595238,23.023809"
     style="fill:#000000;fill-opacity:0;fill-rule:nonzero;stroke:#000000;stroke-width:1" />
  <path
     inkscape:connector-curvature="0"
     id="path442"
     d="M 37.547619,44.5 C 39.119048,11.5 48.652381,42.82381 49.595238,23.023809"
     style="fill:#000000;fill-opacity:0;fill-rule:nonzero;stroke:#000000;stroke-width:1" />
  <path
     inkscape:connector-curvature="0"
     id="path446"
     d="M 0.5,83.986111 C 30.737207,83.146189 2.2358397,73.851047 20.378164,73.347094"
     style="fill:#000000;fill-opacity:0;fill-rule:nonzero;stroke:#000000;stroke-width:1" />
  <path
     inkscape:connector-curvature="0"
     id="path448"
     d="M 40.816276,82.866215 C 10.579069,83.706137 38.520488,72.84314 20.378164,73.347094"
     style="fill:#000000;fill-opacity:0;fill-rule:nonzero;stroke:#000000;stroke-width:1" />
  <path
     inkscape:connector-curvature="0"
     id="path452"
     d="M 38.536388,123.97844 C 10.009097,122.65159 36.192285,133.39908 19.07591,132.60297"
     style="fill:#000000;fill-opacity:0;fill-rule:nonzero;stroke:#000000;stroke-width:1" />
  <path
     inkscape:connector-curvature="0"
     id="path454"
     d="M 0.5,122.2093 C 29.027291,123.53615 1.9595358,131.80686 19.07591,132.60297"
     style="fill:#000000;fill-opacity:0;fill-rule:nonzero;stroke:#000000;stroke-width:1" />
  <path
     inkscape:connector-curvature="0"
     id="path458"
     d="M 37.547619,44.5 C 9.761905,44.5 35.695238,53.761905 19.023809,53.761905"
     style="fill:#000000;fill-opacity:0;fill-rule:nonzero;stroke:#000000;stroke-width:1" />
  <path
     inkscape:connector-curvature="0"
     id="path460"
     d="M 0.5,44.5 C 28.285714,44.5 2.3523809,53.761905 19.023809,53.761905"
     style="fill:#000000;fill-opacity:0;fill-rule:nonzero;stroke:#000000;stroke-width:1" />
  <line
     x1="157.5"
     y1="125.16216"
     x2="159.48753"
     y2="123.01349"
     id="line465"
     style="fill:#000000;fill-opacity:0;fill-rule:nonzero;stroke:#000000;stroke-width:1" />
  <line
     x1="158.4968"
     y1="84.374634"
     x2="165.46811"
     y2="78.862411"
     id="line467"
     style="fill:#000000;fill-opacity:0;fill-rule:nonzero;stroke:#000000;stroke-width:1" />
  <line
     x1="163.72734"
     y1="44.046741"
     x2="154.80939"
     y2="35.851871"
     id="line469"
     style="fill:#000000;fill-opacity:0;fill-rule:nonzero;stroke:#000000;stroke-width:1" />
  <line
     x1="125.57707"
     y1="80.633759"
     x2="119.21371"
     y2="73.935486"
     id="line471"
     style="fill:#000000;fill-opacity:0;fill-rule:nonzero;stroke:#000000;stroke-width:1" />
  <line
     x1="122.70612"
     y1="121.40067"
     x2="119.27209"
     y2="117.41276"
     id="line473"
     style="fill:#000000;fill-opacity:0;fill-rule:nonzero;stroke:#000000;stroke-width:1" />
  <line
     x1="121.96154"
     y1="40.96154"
     x2="119.8"
     y2="38.799999"
     id="line475"
     style="fill:#000000;fill-opacity:0;fill-rule:nonzero;stroke:#000000;stroke-width:1" />
  <line
     x1="80.621513"
     y1="84.454178"
     x2="83.75943"
     y2="80.688675"
     id="line477"
     style="fill:#000000;fill-opacity:0;fill-rule:nonzero;stroke:#000000;stroke-width:1" />
  <line
     x1="80.543686"
     y1="122.65048"
     x2="85.091484"
     y2="116.48896"
     id="line479"
     style="fill:#000000;fill-opacity:0;fill-rule:nonzero;stroke:#000000;stroke-width:1" />
  <line
     x1="76.06398"
     y1="43.310738"
     x2="78.83374"
     y2="40.00489"
     id="line481"
     style="fill:#000000;fill-opacity:0;fill-rule:nonzero;stroke:#000000;stroke-width:1" />
  <line
     x1="41.360703"
     y1="83.496597"
     x2="40.816277"
     y2="82.866211"
     id="line483"
     style="fill:#000000;fill-opacity:0;fill-rule:nonzero;stroke:#000000;stroke-width:1" />
  <line
     x1="40.119999"
     y1="125.76"
     x2="38.536388"
     y2="123.97844"
     id="line485"
     style="fill:#000000;fill-opacity:0;fill-rule:nonzero;stroke:#000000;stroke-width:1" />
  <line
     x1="39.187645"
     y1="46.222027"
     x2="37.547619"
     y2="44.5"
     id="line487"
     style="fill:#000000;fill-opacity:0;fill-rule:nonzero;stroke:#000000;stroke-width:1" />
  <g
     id="g4668" />
</svg>
