<?xml version="1.0" encoding="UTF-8"?>
<svg width="961px" height="641px" viewBox="0 0 961 641" version="1.1" xmlns="http://www.w3.org/2000/svg" xmlns:xlink="http://www.w3.org/1999/xlink">
    <!-- Generator: Sketch 61 (89581) - https://sketch.com -->
    <title>puzzle_new12x8</title>
    <desc>Created with Sketch.</desc>
    <g id="Page-1" stroke="none" stroke-width="1" fill="none" fill-rule="evenodd">
        <g id="puzzle_new12x8" transform="translate(0.500000, 0.500000)" stroke="#000000">
            <g id="Group">
                <path d="M0,74 C60,75 8,57 38,57 C68,57 15,74 75,75" id="Path"></path>
                <path d="M75,75 C149,76 85,94 122,94 C159,94 94,75 168,76" id="Path"></path>
                <path d="M168,76 C231,73 176,94 208,92 C240,90 184,75 247,72" id="Path"></path>
                <path d="M247,72 C299,78 254,91 280,94 C306,97 260,74 312,80" id="Path"></path>
                <path d="M312,80 C381,83 321,98 355,100 C389,102 329,81 398,84" id="Path"></path>
                <path d="M398,84 C457,74 405,65 435,60 C465,55 413,82 472,72" id="Path"></path>
                <path d="M472,72 C547,71 481,90 519,90 C557,90 491,72 566,71" id="Path"></path>
                <path d="M566,71 C632,75 575,90 608,92 C641,94 583,72 649,76" id="Path"></path>
                <path d="M649,76 C702,77 656,95 682,95 C708,95 662,76 715,77" id="Path"></path>
                <path d="M715,77 C781,81 723,60 756,62 C789,64 731,78 797,82" id="Path"></path>
                <path d="M797,82 C859,84 805,100 836,101 C867,102 813,82 875,84" id="Path"></path>
                <path d="M875,84 C943,77 884,66 918,62 C952,58 892,82 960,75" id="Path"></path>
                <path d="M0,162 C70,160 9,180 44,179 C79,178 17,162 87,160" id="Path"></path>
                <path d="M87,160 C141,162 94,179 121,180 C148,181 101,161 155,163" id="Path"></path>
                <path d="M155,163 C227,166 164,145 200,147 C236,149 173,164 245,167" id="Path"></path>
                <path d="M245,167 C301,154 252,147 280,141 C308,135 259,164 315,151" id="Path"></path>
                <path d="M315,151 C383,161 324,171 358,176 C392,181 332,154 400,164" id="Path"></path>
                <path d="M400,164 C470,162 409,146 444,145 C479,144 418,163 488,161" id="Path"></path>
                <path d="M488,161 C545,155 496,178 524,175 C552,172 502,159 559,153" id="Path"></path>
                <path d="M559,153 C624,165 568,137 600,143 C632,149 575,156 640,168" id="Path"></path>
                <path d="M640,168 C699,154 647,149 677,142 C707,135 655,165 714,151" id="Path"></path>
                <path d="M714,151 C783,161 723,135 757,140 C791,145 731,154 800,164" id="Path"></path>
                <path d="M800,164 C860,155 808,145 838,141 C868,137 815,162 875,153" id="Path"></path>
                <path d="M875,153 C943,166 884,173 918,179 C952,185 892,156 960,169" id="Path"></path>
                <path d="M0,241 C64,243 8,259 40,260 C72,261 16,241 80,243" id="Path"></path>
                <path d="M80,243 C137,241 88,225 116,224 C144,223 94,243 151,241" id="Path"></path>
                <path d="M151,241 C228,234 161,223 199,219 C237,215 170,239 247,232" id="Path"></path>
                <path d="M247,232 C299,243 254,251 280,257 C306,263 260,235 312,246" id="Path"></path>
                <path d="M312,246 C387,245 321,228 359,228 C397,228 331,246 406,245" id="Path"></path>
                <path d="M406,245 C460,239 413,226 440,223 C467,220 419,243 473,237" id="Path"></path>
                <path d="M473,237 C545,243 482,256 518,259 C554,262 491,238 563,244" id="Path"></path>
                <path d="M563,244 C623,237 571,262 601,258 C631,254 578,242 638,235" id="Path"></path>
                <path d="M638,235 C703,237 647,218 679,219 C711,220 654,236 719,238" id="Path"></path>
                <path d="M719,238 C785,245 728,257 761,261 C794,265 736,240 802,247" id="Path"></path>
                <path d="M802,247 C866,245 810,229 842,228 C874,227 818,247 882,245" id="Path"></path>
                <path d="M882,245 C944,247 890,263 921,264 C952,265 898,245 960,247" id="Path"></path>
                <path d="M0,314 C68,321 9,333 43,337 C77,341 17,316 85,323" id="Path"></path>
                <path d="M85,323 C142,321 93,305 121,304 C149,303 99,323 156,321" id="Path"></path>
                <path d="M156,321 C227,313 165,302 201,298 C237,294 174,319 245,311" id="Path"></path>
                <path d="M245,311 C301,313 252,329 280,330 C308,331 259,311 315,313" id="Path"></path>
                <path d="M315,313 C385,313 324,331 359,331 C394,331 333,313 403,313" id="Path"></path>
                <path d="M403,313 C459,311 410,295 438,294 C466,293 417,313 473,311" id="Path"></path>
                <path d="M473,311 C547,315 483,294 520,296 C557,298 492,312 566,316" id="Path"></path>
                <path d="M566,316 C628,326 574,336 605,341 C636,346 581,319 643,329" id="Path"></path>
                <path d="M643,329 C712,318 652,310 686,304 C720,298 660,326 729,315" id="Path"></path>
                <path d="M729,315 C789,325 737,335 767,340 C797,345 744,318 804,328" id="Path"></path>
                <path d="M804,328 C870,320 813,309 846,305 C879,301 821,326 887,318" id="Path"></path>
                <path d="M887,318 C945,316 895,300 924,299 C953,298 902,318 960,316" id="Path"></path>
                <path d="M0,405 C70,403 9,387 44,386 C79,385 17,404 87,402" id="Path"></path>
                <path d="M87,402 C138,408 93,421 119,424 C145,427 100,403 151,409" id="Path"></path>
                <path d="M151,409 C216,395 160,426 192,419 C224,412 167,406 232,392" id="Path"></path>
                <path d="M232,392 C300,400 241,375 275,379 C309,383 249,394 317,402" id="Path"></path>
                <path d="M317,402 C383,401 326,384 359,384 C392,384 334,402 400,401" id="Path"></path>
                <path d="M400,401 C470,395 409,383 444,380 C479,377 417,400 487,394" id="Path"></path>
                <path d="M487,394 C544,394 495,412 523,412 C551,412 501,394 558,394" id="Path"></path>
                <path d="M558,394 C631,397 568,376 604,378 C640,380 576,395 649,398" id="Path"></path>
                <path d="M649,398 C708,402 656,417 686,419 C716,421 664,399 723,403" id="Path"></path>
                <path d="M723,403 C792,394 732,384 766,380 C800,376 740,401 809,392" id="Path"></path>
                <path d="M809,392 C861,398 816,375 842,378 C868,381 822,394 874,400" id="Path"></path>
                <path d="M874,400 C943,398 883,382 917,381 C951,380 891,399 960,397" id="Path"></path>
                <path d="M0,485 C64,482 8,467 40,465 C72,463 16,484 80,481" id="Path"></path>
                <path d="M80,481 C143,480 88,463 120,463 C152,463 96,481 159,480" id="Path"></path>
                <path d="M159,480 C217,478 166,462 195,461 C224,460 173,479 231,477" id="Path"></path>
                <path d="M231,477 C307,482 241,460 279,462 C317,464 250,478 326,483" id="Path"></path>
                <path d="M326,483 C390,482 334,465 366,465 C398,465 342,483 406,482" id="Path"></path>
                <path d="M406,482 C463,480 414,464 442,463 C470,462 420,482 477,480" id="Path"></path>
                <path d="M477,480 C547,476 486,498 521,496 C556,494 495,479 565,475" id="Path"></path>
                <path d="M565,475 C623,483 573,494 602,498 C631,502 580,477 638,485" id="Path"></path>
                <path d="M638,485 C709,482 647,467 683,465 C719,463 656,484 727,481" id="Path"></path>
                <path d="M727,481 C789,478 735,463 766,461 C797,459 743,480 805,477" id="Path"></path>
                <path d="M805,477 C864,480 812,495 842,497 C872,499 820,478 879,481" id="Path"></path>
                <path d="M879,481 C944,487 888,464 920,467 C952,470 895,482 960,488" id="Path"></path>
                <path d="M0,560 C71,566 9,543 45,546 C81,549 18,562 89,568" id="Path"></path>
                <path d="M89,568 C145,566 96,550 124,549 C152,548 103,568 159,566" id="Path"></path>
                <path d="M159,566 C230,554 168,547 204,541 C240,535 177,563 248,551" id="Path"></path>
                <path d="M248,551 C302,557 255,570 282,573 C309,576 262,552 316,558" id="Path"></path>
                <path d="M316,558 C384,558 325,576 359,576 C393,576 333,558 401,558" id="Path"></path>
                <path d="M401,558 C465,565 409,577 441,581 C473,585 417,560 481,567" id="Path"></path>
                <path d="M481,567 C540,561 488,549 518,546 C548,543 496,566 555,560" id="Path"></path>
                <path d="M555,560 C618,554 563,577 595,574 C627,571 571,558 634,552" id="Path"></path>
                <path d="M634,552 C696,560 642,571 673,575 C704,579 650,554 712,562" id="Path"></path>
                <path d="M712,562 C777,563 721,581 753,581 C785,581 728,562 793,563" id="Path"></path>
                <path d="M793,563 C866,565 803,581 839,582 C875,583 811,563 884,565" id="Path"></path>
                <path d="M884,565 C945,554 892,546 922,540 C952,534 899,562 960,551" id="Path"></path>
                <path d="M82,0 C76,60 100,8 97,38 C94,68 81,15 75,75" id="Path"></path>
                <path d="M75,75 C85,143 58,84 63,118 C68,152 77,92 87,160" id="Path"></path>
                <path d="M87,160 C81,226 105,169 102,202 C99,235 86,177 80,243" id="Path"></path>
                <path d="M80,243 C84,307 63,251 65,283 C67,315 81,259 85,323" id="Path"></path>
                <path d="M85,323 C87,386 67,331 68,363 C69,395 85,339 87,402" id="Path"></path>
                <path d="M87,402 C81,465 69,410 66,442 C63,474 86,418 80,481" id="Path"></path>
                <path d="M80,481 C87,551 63,490 67,525 C71,560 82,498 89,568" id="Path"></path>
                <path d="M89,568 C77,626 106,575 100,604 C94,633 86,582 74,640" id="Path"></path>
                <path d="M154,0 C165,61 173,8 179,38 C185,68 157,15 168,76" id="Path"></path>
                <path d="M168,76 C158,146 149,85 144,120 C139,155 165,93 155,163" id="Path"></path>
                <path d="M155,163 C152,225 173,171 171,202 C169,233 154,179 151,241" id="Path"></path>
                <path d="M151,241 C155,305 170,249 172,281 C174,313 152,257 156,321" id="Path"></path>
                <path d="M156,321 C152,391 174,330 172,365 C170,400 155,339 151,409" id="Path"></path>
                <path d="M151,409 C157,466 170,417 173,445 C176,473 153,423 159,480" id="Path"></path>
                <path d="M159,480 C159,549 141,489 141,523 C141,557 159,497 159,566" id="Path"></path>
                <path d="M159,566 C162,625 141,573 143,603 C145,633 160,581 163,640" id="Path"></path>
                <path d="M242,0 C246,58 225,7 227,36 C229,65 243,14 247,72" id="Path"></path>
                <path d="M247,72 C245,148 229,82 228,120 C227,158 247,91 245,167" id="Path"></path>
                <path d="M245,167 C247,219 227,174 228,200 C229,226 245,180 247,232" id="Path"></path>
                <path d="M247,232 C245,295 229,240 228,272 C227,304 247,248 245,311" id="Path"></path>
                <path d="M245,311 C235,376 226,320 221,352 C216,384 242,327 232,392" id="Path"></path>
                <path d="M232,392 C231,460 214,401 214,435 C214,469 232,409 231,477" id="Path"></path>
                <path d="M231,477 C245,536 251,484 258,514 C265,544 234,492 248,551" id="Path"></path>
                <path d="M248,551 C242,622 229,560 226,596 C223,632 246,569 240,640" id="Path"></path>
                <path d="M328,0 C315,64 344,8 338,40 C332,72 325,16 312,80" id="Path"></path>
                <path d="M312,80 C314,137 331,88 332,116 C333,144 313,94 315,151" id="Path"></path>
                <path d="M315,151 C313,227 297,161 296,199 C295,237 314,170 312,246" id="Path"></path>
                <path d="M312,246 C314,300 295,253 296,280 C297,307 313,259 315,313" id="Path"></path>
                <path d="M315,313 C317,384 297,322 298,358 C299,394 315,331 317,402" id="Path"></path>
                <path d="M317,402 C324,467 300,411 304,443 C308,475 319,418 326,483" id="Path"></path>
                <path d="M326,483 C318,543 343,491 339,521 C335,551 324,498 316,558" id="Path"></path>
                <path d="M316,558 C313,624 298,566 296,599 C294,632 315,574 312,640" id="Path"></path>
                <path d="M394,0 C397,67 376,8 378,42 C380,76 395,17 398,84" id="Path"></path>
                <path d="M398,84 C400,148 380,92 381,124 C382,156 398,100 400,164" id="Path"></path>
                <path d="M400,164 C405,229 419,173 421,205 C423,237 401,180 406,245" id="Path"></path>
                <path d="M406,245 C404,299 388,252 387,279 C386,306 405,259 403,313" id="Path"></path>
                <path d="M403,313 C401,383 385,322 384,357 C383,392 402,331 400,401" id="Path"></path>
                <path d="M400,401 C405,466 419,410 421,442 C423,474 401,417 406,482" id="Path"></path>
                <path d="M406,482 C402,543 388,490 386,520 C384,550 405,497 401,558" id="Path"></path>
                <path d="M401,558 C401,624 383,566 383,599 C383,632 401,574 401,640" id="Path"></path>
                <path d="M488,0 C475,58 468,7 462,36 C456,65 485,14 472,72" id="Path"></path>
                <path d="M472,72 C485,143 456,81 462,117 C468,153 475,90 488,161" id="Path"></path>
                <path d="M488,161 C476,222 505,169 499,199 C493,229 485,176 473,237" id="Path"></path>
                <path d="M473,237 C473,296 455,244 455,274 C455,304 473,252 473,311" id="Path"></path>
                <path d="M473,311 C484,377 492,320 498,353 C504,386 476,328 487,394" id="Path"></path>
                <path d="M487,394 C479,463 504,403 500,437 C496,471 485,411 477,480" id="Path"></path>
                <path d="M477,480 C480,550 495,489 497,524 C499,559 478,497 481,567" id="Path"></path>
                <path d="M481,567 C474,625 499,575 495,604 C491,633 479,582 472,640" id="Path"></path>
                <path d="M562,0 C565,57 580,8 582,36 C584,64 563,14 566,71" id="Path"></path>
                <path d="M566,71 C560,137 548,79 545,112 C542,145 565,87 559,153" id="Path"></path>
                <path d="M559,153 C562,226 541,163 543,199 C545,235 560,171 563,244" id="Path"></path>
                <path d="M563,244 C565,302 546,251 547,280 C548,309 564,258 566,316" id="Path"></path>
                <path d="M566,316 C560,378 583,324 580,355 C577,386 564,332 558,394" id="Path"></path>
                <path d="M558,394 C564,459 541,403 544,435 C547,467 559,410 565,475" id="Path"></path>
                <path d="M565,475 C557,543 546,484 542,518 C538,552 563,492 555,560" id="Path"></path>
                <path d="M555,560 C562,624 574,568 578,600 C582,632 557,576 564,640" id="Path"></path>
                <path d="M635,0 C646,61 618,8 624,38 C630,68 638,15 649,76" id="Path"></path>
                <path d="M649,76 C642,150 631,85 627,122 C623,159 647,94 640,168" id="Path"></path>
                <path d="M640,168 C638,222 622,175 621,202 C620,229 640,181 638,235" id="Path"></path>
                <path d="M638,235 C642,310 621,244 623,282 C625,320 639,254 643,329" id="Path"></path>
                <path d="M643,329 C648,384 662,336 664,364 C666,392 644,343 649,398" id="Path"></path>
                <path d="M649,398 C640,468 666,407 662,442 C658,477 647,415 638,485" id="Path"></path>
                <path d="M638,485 C635,539 656,492 654,519 C652,546 637,498 634,552" id="Path"></path>
                <path d="M634,552 C637,622 616,561 618,596 C620,631 635,570 638,640" id="Path"></path>
                <path d="M717,0 C715,62 699,8 698,39 C697,70 717,15 715,77" id="Path"></path>
                <path d="M715,77 C714,136 697,84 697,114 C697,144 715,92 714,151" id="Path"></path>
                <path d="M714,151 C718,221 733,160 735,195 C737,230 715,168 719,238" id="Path"></path>
                <path d="M719,238 C727,300 702,246 706,277 C710,308 721,253 729,315" id="Path"></path>
                <path d="M729,315 C724,385 710,324 708,359 C706,394 728,333 723,403" id="Path"></path>
                <path d="M723,403 C726,465 705,411 707,442 C709,473 724,419 727,481" id="Path"></path>
                <path d="M727,481 C715,546 744,490 738,522 C732,554 724,497 712,562" id="Path"></path>
                <path d="M712,562 C717,624 695,570 697,601 C699,632 713,578 718,640" id="Path"></path>
                <path d="M793,0 C796,66 775,8 777,41 C779,74 794,16 797,82" id="Path"></path>
                <path d="M797,82 C799,148 816,90 817,123 C818,156 798,98 800,164" id="Path"></path>
                <path d="M800,164 C802,230 782,173 783,206 C784,239 800,181 802,247" id="Path"></path>
                <path d="M802,247 C804,312 820,256 821,288 C822,320 802,263 804,328" id="Path"></path>
                <path d="M804,328 C808,379 823,334 825,360 C827,386 805,341 809,392" id="Path"></path>
                <path d="M809,392 C806,460 791,401 789,435 C787,469 808,409 805,477" id="Path"></path>
                <path d="M805,477 C795,546 786,486 781,520 C776,554 803,494 793,563" id="Path"></path>
                <path d="M793,563 C795,625 776,571 777,602 C778,633 794,578 796,640" id="Path"></path>
                <path d="M883,0 C877,67 864,8 861,42 C858,76 881,17 875,84" id="Path"></path>
                <path d="M875,84 C875,139 857,91 857,119 C857,147 875,98 875,153" id="Path"></path>
                <path d="M875,153 C881,227 858,162 861,199 C864,236 876,171 882,245" id="Path"></path>
                <path d="M882,245 C886,303 901,253 903,282 C905,311 883,260 887,318" id="Path"></path>
                <path d="M887,318 C877,384 868,326 863,359 C858,392 884,334 874,400" id="Path"></path>
                <path d="M874,400 C878,465 893,409 895,441 C897,473 875,416 879,481" id="Path"></path>
                <path d="M879,481 C883,548 898,489 900,523 C902,557 880,498 884,565" id="Path"></path>
                <path d="M884,565 C882,625 902,573 901,603 C900,633 883,580 881,640" id="Path"></path>
            </g>
            <rect id="Rectangle" fill-opacity="0" fill="#000000" fill-rule="nonzero" x="0" y="0" width="960" height="640"></rect>
        </g>
    </g>
</svg>