<?xml version="1.0" encoding="UTF-8"?>
<svg width="902px" height="652px" viewBox="0 0 902 652" version="1.1" xmlns="http://www.w3.org/2000/svg" xmlns:xlink="http://www.w3.org/1999/xlink">
    <!-- Generator: Sketch 61 (89581) - https://sketch.com -->
    <title>puzzle_new18x13</title>
    <desc>Created with Sketch.</desc>
    <g id="Page-1" stroke="none" stroke-width="1" fill="none" fill-rule="evenodd">
        <g id="puzzle_new18x13" transform="translate(0.874211, 1.154264)" stroke="#000000">
            <g id="Group">
                <path d="M0,51 C38,50 5,37 24,37 C43,37 9,51 47,50" id="Path"></path>
                <path d="M47,50 C91,52 53,65 75,66 C97,67 58,51 102,53" id="Path"></path>
                <path d="M102,39 C140,39 107,53 126,53 C145,53 112,39 150,39" id="Path" transform="translate(126.000000, 46.000000) scale(-1, -1) translate(-126.000000, -46.000000) "></path>
                <path d="M150,53 C193,51 155,39 177,38 C199,37 161,53 204,51" id="Path"></path>
                <path d="M204,51 C240,53 209,65 227,66 C245,67 213,51 249,53" id="Path"></path>
                <path d="M249,53 C290,51 255,39 275,38 C295,37 259,53 300,51" id="Path"></path>
                <path d="M300,51 C341,50 306,37 326,37 C346,37 310,51 351,50" id="Path"></path>
                <path d="M351,50 C388,52 356,64 374,65 C392,66 360,50 397,52" id="Path"></path>
                <path d="M397,52 C443,50 403,38 426,37 C449,36 408,52 454,50" id="Path"></path>
                <path d="M454,36 C491,37 459,51 477,51 C495,51 463,36 500,37" id="Path" transform="translate(477.000000, 43.500000) scale(-1, -1) translate(-477.000000, -43.500000) "></path>
                <path d="M500,51 C537,47 505,37 523,35 C541,33 509,50 546,46" id="Path"></path>
                <path d="M546,46 C586,46 551,32 571,32 C591,32 556,46 596,46" id="Path"></path>
                <path d="M596,46 C639,48 601,60 623,61 C645,62 607,46 650,48" id="Path"></path>
                <path d="M650,48 C687,52 655,35 673,37 C691,39 659,49 696,53" id="Path"></path>
                <path d="M696,53 C737,53 702,39 722,39 C742,39 706,53 747,53" id="Path"></path>
                <path d="M747,53 C792,54 753,68 775,68 C797,68 758,53 803,54" id="Path"></path>
                <path d="M803,40 C838,39 807,54 825,54 C843,54 812,40 847,39" id="Path" transform="translate(825.000000, 46.500000) scale(-1, -1) translate(-825.000000, -46.500000) "></path>
                <path d="M847,53 C889,47 853,39 874,36 C895,33 858,52 900,46" id="Path"></path>
                <path d="M0,96 C37,98 5,83 23,84 C41,85 9,97 46,99" id="Path"></path>
                <path d="M46,99 C92,99 52,113 75,113 C98,113 58,99 104,99" id="Path"></path>
                <path d="M104,99 C141,103 109,114 127,116 C145,118 113,100 150,104" id="Path"></path>
                <path d="M150,104 C188,104 155,90 174,90 C193,90 160,104 198,104" id="Path"></path>
                <path d="M198,104 C243,98 204,118 226,115 C248,112 209,103 254,97" id="Path"></path>
                <path d="M254,97 C293,99 259,112 279,113 C299,114 264,98 303,100" id="Path"></path>
                <path d="M303,112 C339,114 308,99 326,100 C344,101 312,113 348,115" id="Path" transform="translate(325.500000, 107.476033) scale(-1, -1) translate(-325.500000, -107.476033) "></path>
                <path d="M348,103 C386,103 353,89 372,89 C391,89 358,103 396,103" id="Path"></path>
                <path d="M396,103 C441,103 402,117 424,117 C446,117 407,103 452,103" id="Path"></path>
                <path d="M452,103 C489,99 457,117 475,115 C493,113 461,102 498,98" id="Path"></path>
                <path d="M498,98 C536,96 503,112 522,111 C541,110 508,98 546,96" id="Path"></path>
                <path d="M546,96 C589,102 551,111 573,114 C595,117 557,98 600,104" id="Path"></path>
                <path d="M600,104 C638,99 605,89 624,87 C643,85 610,103 648,98" id="Path"></path>
                <path d="M648,98 C686,100 653,85 672,86 C691,87 658,99 696,101" id="Path"></path>
                <path d="M696,101 C742,100 702,87 725,87 C748,87 708,101 754,100" id="Path"></path>
                <path d="M754,100 C793,100 759,86 779,86 C799,86 764,100 803,100" id="Path"></path>
                <path d="M803,100 C837,98 808,86 825,85 C842,84 812,99 846,97" id="Path"></path>
                <path d="M846,97 C889,97 851,83 873,83 C895,83 857,97 900,97" id="Path"></path>
                <path d="M0,153 C37,153 5,139 23,139 C41,139 9,153 46,153" id="Path"></path>
                <path d="M46,153 C89,147 51,139 73,136 C95,133 57,152 100,146" id="Path"></path>
                <path d="M100,146 C139,152 105,161 125,164 C145,167 110,148 149,154" id="Path"></path>
                <path d="M149,154 C188,148 154,140 174,137 C194,134 159,153 198,147" id="Path"></path>
                <path d="M198,147 C243,147 204,133 226,133 C248,133 209,147 254,147" id="Path"></path>
                <path d="M254,147 C292,149 259,162 278,163 C297,164 263,148 301,150" id="Path"></path>
                <path d="M301,150 C341,150 306,164 326,164 C346,164 311,150 351,150" id="Path"></path>
                <path d="M351,150 C390,150 356,136 376,136 C396,136 361,150 400,150" id="Path"></path>
                <path d="M400,150 C441,151 406,137 426,137 C446,137 410,150 451,151" id="Path"></path>
                <path d="M451,151 C487,152 456,166 474,166 C492,166 460,151 496,152" id="Path"></path>
                <path d="M496,152 C542,149 502,138 525,136 C548,134 507,151 553,148" id="Path"></path>
                <path d="M553,148 C589,152 558,135 576,137 C594,139 562,149 598,153" id="Path"></path>
                <path d="M598,153 C638,151 603,139 623,138 C643,137 608,152 648,150" id="Path"></path>
                <path d="M648,150 C691,148 653,164 675,163 C697,162 659,149 702,147" id="Path"></path>
                <path d="M702,147 C744,152 707,162 728,164 C749,166 712,148 754,153" id="Path"></path>
                <path d="M754,153 C788,151 759,139 776,138 C793,137 763,152 797,150" id="Path"></path>
                <path d="M797,150 C841,148 803,136 825,135 C847,134 808,149 852,147" id="Path"></path>
                <path d="M852,147 C890,151 857,162 876,164 C895,166 862,148 900,152" id="Path"></path>
                <path d="M0,198 C40,203 5,213 25,215 C45,217 10,199 50,204" id="Path"></path>
                <path d="M50,204 C93,203 55,190 77,190 C99,190 61,204 104,203" id="Path"></path>
                <path d="M104,216 C138,217 109,203 126,203 C143,203 113,216 147,217" id="Path" transform="translate(125.500000, 210.000000) scale(-1, -1) translate(-125.500000, -210.000000) "></path>
                <path d="M147,204 C193,203 153,190 176,190 C199,190 158,204 204,203" id="Path"></path>
                <path d="M204,203 C243,203 209,189 229,189 C249,189 214,203 253,203" id="Path"></path>
                <path d="M253,203 C289,201 258,189 276,188 C294,187 262,202 298,200" id="Path"></path>
                <path d="M298,200 C343,202 304,214 326,215 C348,216 309,200 354,202" id="Path"></path>
                <path d="M354,202 C392,197 359,215 378,213 C397,211 363,201 401,196" id="Path"></path>
                <path d="M401,196 C442,197 407,211 427,211 C447,211 411,196 452,197" id="Path"></path>
                <path d="M452,197 C494,198 457,212 478,212 C499,212 462,197 504,198" id="Path"></path>
                <path d="M504,198 C539,202 508,185 526,187 C544,189 513,199 548,203" id="Path"></path>
                <path d="M548,203 C592,204 554,218 576,218 C598,218 559,203 603,204" id="Path"></path>
                <path d="M603,204 C641,198 608,189 627,186 C646,183 613,202 651,196" id="Path"></path>
                <path d="M651,196 C687,198 656,182 674,183 C692,184 660,196 696,198" id="Path"></path>
                <path d="M696,198 C738,197 702,184 723,184 C744,184 707,198 749,197" id="Path"></path>
                <path d="M749,197 C791,201 755,184 776,186 C797,188 760,198 802,202" id="Path"></path>
                <path d="M802,202 C843,198 808,188 828,186 C848,184 812,201 853,197" id="Path"></path>
                <path d="M853,197 C891,202 858,212 877,214 C896,216 862,198 900,203" id="Path"></path>
                <path d="M0,248 C42,251 6,262 27,264 C48,266 11,249 53,252" id="Path"></path>
                <path d="M53,252 C91,252 58,266 77,266 C96,266 62,252 100,252" id="Path"></path>
                <path d="M100,252 C138,251 105,238 124,238 C143,238 110,252 148,251" id="Path"></path>
                <path d="M148,251 C186,249 153,265 172,264 C191,263 158,251 196,249" id="Path"></path>
                <path d="M196,249 C242,251 202,263 225,264 C248,265 208,249 254,251" id="Path"></path>
                <path d="M254,251 C289,249 258,265 276,264 C294,263 263,251 298,249" id="Path"></path>
                <path d="M298,249 C339,252 304,263 324,265 C344,267 308,250 349,253" id="Path"></path>
                <path d="M349,253 C392,252 354,267 376,267 C398,267 360,253 403,252" id="Path"></path>
                <path d="M403,252 C442,250 408,238 428,237 C448,236 413,251 452,249" id="Path"></path>
                <path d="M452,236 C492,234 457,250 477,249 C497,248 462,235 502,233" id="Path" transform="translate(477.000000, 241.022526) scale(-1, -1) translate(-477.000000, -241.022526) "></path>
                <path d="M502,246 C538,251 507,233 525,235 C543,237 511,247 547,252" id="Path"></path>
                <path d="M547,252 C589,251 553,266 574,266 C595,266 558,252 600,251" id="Path"></path>
                <path d="M600,251 C642,253 605,265 626,266 C647,267 610,251 652,253" id="Path"></path>
                <path d="M652,253 C693,250 658,239 678,237 C698,235 662,252 703,249" id="Path"></path>
                <path d="M703,249 C742,253 708,264 728,266 C748,268 713,250 752,254" id="Path"></path>
                <path d="M752,254 C787,250 756,240 774,238 C792,236 761,253 796,249" id="Path"></path>
                <path d="M796,249 C840,250 802,264 824,264 C846,264 807,249 851,250" id="Path"></path>
                <path d="M851,250 C890,252 856,237 876,238 C896,239 861,251 900,253" id="Path"></path>
                <path d="M0,298 C37,302 5,285 23,287 C41,289 9,299 46,303" id="Path"></path>
                <path d="M46,303 C87,297 52,317 72,314 C92,311 56,302 97,296" id="Path"></path>
                <path d="M97,296 C137,297 102,311 122,311 C142,311 107,296 147,297" id="Path"></path>
                <path d="M147,297 C190,299 152,312 174,313 C196,314 158,298 201,300" id="Path"></path>
                <path d="M201,300 C242,300 207,286 227,286 C247,286 211,300 252,300" id="Path"></path>
                <path d="M252,300 C288,299 257,286 275,286 C293,286 261,300 297,299" id="Path"></path>
                <path d="M297,299 C341,303 303,314 325,316 C347,318 308,300 352,304" id="Path"></path>
                <path d="M352,304 C390,298 357,289 376,286 C395,283 361,302 399,296" id="Path"></path>
                <path d="M399,296 C443,298 405,311 427,312 C449,313 410,297 454,299" id="Path"></path>
                <path d="M454,299 C488,303 459,286 476,288 C493,290 463,300 497,304" id="Path"></path>
                <path d="M497,304 C540,301 502,290 524,288 C546,286 508,303 551,300" id="Path"></path>
                <path d="M551,300 C589,302 556,315 575,316 C594,317 560,301 598,303" id="Path"></path>
                <path d="M598,303 C643,300 604,289 626,287 C648,285 609,302 654,299" id="Path"></path>
                <path d="M654,299 C694,303 659,314 679,316 C699,318 664,300 704,304" id="Path"></path>
                <path d="M704,304 C742,300 709,290 728,288 C747,286 713,303 751,299" id="Path"></path>
                <path d="M751,312 C791,310 756,298 776,297 C796,296 761,312 801,310" id="Path" transform="translate(776.000000, 304.477474) scale(-1, -1) translate(-776.000000, -304.477474) "></path>
                <path d="M801,297 C839,297 806,311 825,311 C844,311 811,297 849,297" id="Path"></path>
                <path d="M849,297 C890,299 855,312 875,313 C895,314 859,298 900,300" id="Path"></path>
                <path d="M0,361 C41,359 6,347 26,346 C46,345 10,360 51,358" id="Path" transform="translate(25.500000, 353.476033) scale(-1, -1) translate(-25.500000, -353.476033) "></path>
                <path d="M51,346 C89,347 56,361 75,361 C94,361 61,346 99,347" id="Path"></path>
                <path d="M99,347 C140,352 105,362 125,364 C145,366 109,348 150,353" id="Path"></path>
                <path d="M150,353 C188,347 155,339 174,336 C193,333 159,352 197,346" id="Path"></path>
                <path d="M197,346 C238,348 203,333 223,334 C243,335 207,347 248,349" id="Path"></path>
                <path d="M248,349 C289,347 254,363 274,362 C294,361 258,349 299,347" id="Path"></path>
                <path d="M299,347 C339,352 304,362 324,364 C344,366 309,348 349,353" id="Path"></path>
                <path d="M349,353 C390,349 355,367 375,365 C395,363 359,352 400,348" id="Path"></path>
                <path d="M400,348 C441,352 406,335 426,337 C446,339 410,349 451,353" id="Path"></path>
                <path d="M451,353 C491,350 456,367 476,365 C496,363 461,352 501,349" id="Path"></path>
                <path d="M501,349 C543,348 506,335 527,335 C548,335 511,349 553,348" id="Path"></path>
                <path d="M553,348 C591,348 558,334 577,334 C596,334 562,348 600,348" id="Path"></path>
                <path d="M600,348 C642,346 606,334 627,333 C648,332 611,348 653,346" id="Path"></path>
                <path d="M653,346 C690,351 658,361 676,363 C694,365 662,347 699,352" id="Path"></path>
                <path d="M699,352 C741,352 704,366 725,366 C746,366 709,352 751,352" id="Path"></path>
                <path d="M751,352 C787,354 756,338 774,339 C792,340 760,352 796,354" id="Path"></path>
                <path d="M796,354 C837,351 802,340 822,338 C842,336 806,353 847,350" id="Path"></path>
                <path d="M847,350 C889,352 853,365 874,366 C895,367 858,351 900,353" id="Path"></path>
                <path d="M0,400 C42,398 6,386 27,385 C48,384 11,400 53,398" id="Path"></path>
                <path d="M53,398 C92,399 58,413 78,413 C98,413 63,398 102,399" id="Path"></path>
                <path d="M102,399 C144,397 107,385 128,384 C149,383 112,399 154,397" id="Path"></path>
                <path d="M154,397 C194,396 159,383 179,383 C199,383 164,397 204,396" id="Path"></path>
                <path d="M204,396 C239,399 208,410 226,412 C244,414 213,397 248,400" id="Path"></path>
                <path d="M248,400 C290,400 254,386 275,386 C296,386 259,400 301,400" id="Path"></path>
                <path d="M301,400 C338,398 306,386 324,385 C342,384 310,400 347,398" id="Path"></path>
                <path d="M347,398 C388,396 353,412 373,411 C393,410 357,398 398,396" id="Path"></path>
                <path d="M398,396 C436,396 403,382 422,382 C441,382 408,396 446,396" id="Path"></path>
                <path d="M446,396 C488,401 451,383 472,385 C493,387 456,397 498,402" id="Path"></path>
                <path d="M498,402 C542,404 504,416 526,417 C548,418 509,402 553,404" id="Path"></path>
                <path d="M553,404 C594,398 559,389 579,386 C599,383 563,402 604,396" id="Path"></path>
                <path d="M604,383 C638,385 608,398 625,399 C642,400 612,384 646,386" id="Path" transform="translate(625.000000, 391.022526) scale(-1, -1) translate(-625.000000, -391.022526) "></path>
                <path d="M646,399 C686,402 651,385 671,387 C691,389 656,400 696,403" id="Path"></path>
                <path d="M696,403 C737,400 702,389 722,387 C742,385 706,402 747,399" id="Path"></path>
                <path d="M747,399 C787,397 752,413 772,412 C792,411 757,398 797,396" id="Path"></path>
                <path d="M797,396 C843,401 803,383 826,385 C849,387 808,397 854,402" id="Path"></path>
                <path d="M854,414 C891,411 859,400 877,398 C895,396 863,413 900,410" id="Path" transform="translate(877.000000, 405.917951) scale(-1, -1) translate(-877.000000, -405.917951) "></path>
                <path d="M0,446 C41,452 6,461 26,464 C46,467 10,448 51,454" id="Path"></path>
                <path d="M51,454 C93,448 56,439 77,436 C98,433 61,452 103,446" id="Path"></path>
                <path d="M103,446 C142,448 108,460 128,461 C148,462 113,446 152,448" id="Path"></path>
                <path d="M152,448 C192,449 157,435 177,435 C197,435 162,448 202,449" id="Path"></path>
                <path d="M202,449 C243,453 208,464 228,466 C248,468 212,450 253,454" id="Path"></path>
                <path d="M253,454 C291,452 258,468 277,467 C296,466 262,453 300,451" id="Path"></path>
                <path d="M300,451 C338,453 305,466 324,467 C343,468 309,452 347,454" id="Path"></path>
                <path d="M347,454 C388,453 353,440 373,440 C393,440 357,454 398,453" id="Path"></path>
                <path d="M398,453 C440,451 404,467 425,466 C446,465 409,453 451,451" id="Path"></path>
                <path d="M451,451 C492,448 457,437 477,435 C497,433 461,450 502,447" id="Path"></path>
                <path d="M502,447 C538,446 507,461 525,461 C543,461 511,447 547,446" id="Path"></path>
                <path d="M547,446 C589,446 552,460 573,460 C594,460 557,446 599,446" id="Path"></path>
                <path d="M599,446 C640,451 605,433 625,435 C645,437 609,447 650,452" id="Path"></path>
                <path d="M650,452 C690,448 655,438 675,436 C695,434 660,451 700,447" id="Path"></path>
                <path d="M700,447 C740,449 705,433 725,434 C745,435 710,447 750,449" id="Path"></path>
                <path d="M750,449 C788,447 755,435 774,434 C793,433 760,449 798,447" id="Path"></path>
                <path d="M798,447 C840,449 804,433 825,434 C846,435 809,447 851,449" id="Path"></path>
                <path d="M851,449 C890,451 856,464 876,465 C896,466 861,450 900,452" id="Path"></path>
                <path d="M0,487 C37,488 5,502 23,502 C41,502 9,487 46,488" id="Path" transform="translate(23.000000, 494.500000) scale(-1, -1) translate(-23.000000, -494.500000) "></path>
                <path d="M46,502 C88,504 51,516 72,517 C93,518 56,502 98,504" id="Path"></path>
                <path d="M98,504 C143,500 104,490 126,488 C148,486 109,503 154,499" id="Path"></path>
                <path d="M154,499 C188,497 159,485 176,484 C193,483 163,499 197,497" id="Path"></path>
                <path d="M197,497 C238,499 203,511 223,512 C243,513 207,497 248,499" id="Path"></path>
                <path d="M248,499 C290,501 254,486 275,487 C296,488 259,500 301,502" id="Path"></path>
                <path d="M301,502 C343,504 307,516 328,517 C349,518 312,502 354,504" id="Path"></path>
                <path d="M354,504 C394,504 359,518 379,518 C399,518 364,504 404,504" id="Path"></path>
                <path d="M404,504 C442,500 409,490 428,488 C447,486 413,503 451,499" id="Path"></path>
                <path d="M451,499 C488,498 456,485 474,485 C492,485 460,499 497,498" id="Path"></path>
                <path d="M497,498 C543,500 503,485 526,486 C549,487 508,499 554,501" id="Path"></path>
                <path d="M554,501 C588,503 558,516 575,517 C592,518 562,502 596,504" id="Path"></path>
                <path d="M596,504 C638,504 602,490 623,490 C644,490 607,504 649,504" id="Path"></path>
                <path d="M649,504 C692,498 654,489 676,486 C698,483 660,502 703,496" id="Path"></path>
                <path d="M703,496 C741,498 708,510 727,511 C746,512 712,496 750,498" id="Path"></path>
                <path d="M750,498 C788,500 755,512 774,513 C793,514 759,498 797,500" id="Path"></path>
                <path d="M797,500 C838,498 803,486 823,485 C843,484 807,499 848,497" id="Path"></path>
                <path d="M848,497 C890,500 853,511 874,513 C895,515 858,498 900,501" id="Path"></path>
                <path d="M0,547 C38,549 5,561 24,562 C43,563 10,547 48,549" id="Path"></path>
                <path d="M48,549 C92,553 54,564 76,566 C98,568 59,550 103,554" id="Path"></path>
                <path d="M103,554 C139,552 108,540 126,539 C144,538 112,553 148,551" id="Path"></path>
                <path d="M148,551 C188,548 153,537 173,535 C193,533 158,550 198,547" id="Path"></path>
                <path d="M198,547 C242,551 204,562 226,564 C248,566 209,548 253,552" id="Path"></path>
                <path d="M253,552 C294,554 259,538 279,539 C299,540 263,552 304,554" id="Path"></path>
                <path d="M304,554 C343,548 309,567 329,564 C349,561 314,552 353,546" id="Path"></path>
                <path d="M353,546 C388,546 357,532 375,532 C393,532 362,546 397,546" id="Path"></path>
                <path d="M397,546 C440,550 402,561 424,563 C446,565 408,547 451,551" id="Path"></path>
                <path d="M451,551 C491,547 456,537 476,535 C496,533 461,550 501,546" id="Path"></path>
                <path d="M501,546 C543,548 506,560 527,561 C548,562 511,546 553,548" id="Path"></path>
                <path d="M553,548 C594,553 559,563 579,565 C599,567 563,549 604,554" id="Path"></path>
                <path d="M604,554 C643,552 609,540 629,539 C649,538 614,554 653,552" id="Path"></path>
                <path d="M653,552 C694,553 659,567 679,567 C699,567 663,552 704,553" id="Path"></path>
                <path d="M704,553 C742,550 709,539 728,537 C747,535 714,552 752,549" id="Path"></path>
                <path d="M752,549 C792,552 757,563 777,565 C797,567 762,550 802,553" id="Path"></path>
                <path d="M802,553 C840,554 807,568 826,568 C845,568 811,553 849,554" id="Path"></path>
                <path d="M849,554 C890,551 855,568 875,566 C895,564 859,553 900,550" id="Path"></path>
                <path d="M0,603 C41,600 6,589 26,587 C46,585 10,602 51,599" id="Path"></path>
                <path d="M51,599 C87,599 56,585 74,585 C92,585 60,599 96,599" id="Path"></path>
                <path d="M96,599 C139,600 101,614 123,614 C145,614 107,599 150,600" id="Path"></path>
                <path d="M150,600 C188,599 155,586 174,586 C193,586 159,600 197,599" id="Path"></path>
                <path d="M197,599 C242,598 203,585 225,585 C247,585 208,599 253,598" id="Path"></path>
                <path d="M253,598 C294,597 259,584 279,584 C299,584 263,598 304,597" id="Path"></path>
                <path d="M304,597 C340,602 309,612 327,614 C345,616 313,598 349,603" id="Path"></path>
                <path d="M349,603 C391,601 355,589 376,588 C397,587 360,603 402,601" id="Path"></path>
                <path d="M402,601 C439,603 407,588 425,589 C443,590 411,602 448,604" id="Path"></path>
                <path d="M448,604 C492,600 454,618 476,616 C498,614 459,603 503,599" id="Path"></path>
                <path d="M503,599 C541,599 508,585 527,585 C546,585 513,599 551,599" id="Path"></path>
                <path d="M551,599 C590,602 556,613 576,615 C596,617 561,600 600,603" id="Path"></path>
                <path d="M600,603 C638,601 605,589 624,588 C643,587 609,602 647,600" id="Path"></path>
                <path d="M647,600 C692,603 653,614 675,616 C697,618 658,601 703,604" id="Path"></path>
                <path d="M703,604 C740,601 708,590 726,588 C744,586 712,603 749,600" id="Path"></path>
                <path d="M749,600 C787,603 754,586 773,588 C792,590 759,601 797,604" id="Path"></path>
                <path d="M797,604 C839,599 803,589 824,587 C845,585 808,603 850,598" id="Path"></path>
                <path d="M850,598 C890,599 855,585 875,585 C895,585 860,598 900,599" id="Path"></path>
                <path d="M54,0 C48,40 40,5 37,25 C34,45 53,10 47,50" id="Path"></path>
                <path d="M47,50 C46,89 61,55 61,75 C61,95 47,60 46,99" id="Path"></path>
                <path d="M46,99 C46,142 32,104 32,126 C32,148 46,110 46,153" id="Path"></path>
                <path d="M46,153 C49,194 60,159 62,179 C64,199 47,163 50,204" id="Path"></path>
                <path d="M50,204 C52,242 37,209 38,228 C39,247 51,214 53,252" id="Path"></path>
                <path d="M53,252 C47,293 39,258 36,278 C33,298 52,262 46,303" id="Path"></path>
                <path d="M46,303 C50,337 33,308 35,325 C37,342 47,312 51,346" id="Path"></path>
                <path d="M51,346 C53,388 37,351 38,372 C39,393 51,356 53,398" id="Path"></path>
                <path d="M53,398 C51,443 39,404 38,426 C37,448 53,409 51,454" id="Path"></path>
                <path d="M51,454 C47,492 37,459 35,478 C33,497 50,464 46,502" id="Path"></path>
                <path d="M46,502 C48,540 32,507 33,526 C34,545 46,511 48,549" id="Path"></path>
                <path d="M48,549 C50,589 35,554 36,574 C37,594 49,559 51,599" id="Path"></path>
                <path d="M51,599 C47,640 65,605 63,625 C61,645 50,609 46,650" id="Path"></path>
                <path d="M99,0 C101,42 114,6 115,27 C116,48 100,11 102,53" id="Path"></path>
                <path d="M102,53 C104,90 116,58 117,76 C118,94 102,62 104,99" id="Path"></path>
                <path d="M104,99 C101,137 118,104 116,123 C114,142 103,108 100,146" id="Path"></path>
                <path d="M100,146 C103,192 86,152 88,175 C90,198 101,157 104,203" id="Path"></path>
                <path d="M104,203 C101,242 90,208 88,228 C86,248 103,213 100,252" id="Path"></path>
                <path d="M100,252 C98,287 114,256 113,274 C112,292 99,261 97,296" id="Path"></path>
                <path d="M97,296 C99,337 111,302 112,322 C113,342 97,306 99,347" id="Path"></path>
                <path d="M99,347 C101,389 86,352 87,373 C88,394 100,357 102,399" id="Path"></path>
                <path d="M102,399 C103,437 89,404 89,423 C89,442 102,408 103,446" id="Path"></path>
                <path d="M103,446 C99,492 117,452 115,475 C113,498 102,458 98,504" id="Path"></path>
                <path d="M98,504 C102,544 85,509 87,529 C89,549 99,514 103,554" id="Path"></path>
                <path d="M103,554 C97,590 117,559 114,577 C111,595 102,563 96,599" id="Path"></path>
                <path d="M96,599 C98,640 83,605 84,625 C85,645 97,609 99,650" id="Path"></path>
                <path d="M142,0 C139,42 156,6 154,27 C152,48 141,11 138,53" id="Path" transform="translate(146.082049, 26.500000) scale(-1, -1) translate(-146.082049, -26.500000) "></path>
                <path d="M150,53 C150,94 136,59 136,79 C136,99 150,63 150,104" id="Path"></path>
                <path d="M150,104 C149,144 136,109 136,129 C136,149 150,114 149,154" id="Path"></path>
                <path d="M149,154 C147,194 135,159 134,179 C133,199 149,164 147,204" id="Path"></path>
                <path d="M147,204 C148,242 134,209 134,228 C134,247 147,213 148,251" id="Path"></path>
                <path d="M148,251 C147,288 134,256 134,274 C134,292 148,260 147,297" id="Path"></path>
                <path d="M147,297 C149,342 134,303 135,325 C136,347 148,308 150,353" id="Path"></path>
                <path d="M150,353 C153,388 164,357 166,375 C168,393 151,362 154,397" id="Path"></path>
                <path d="M154,397 C152,438 140,403 139,423 C138,443 154,407 152,448" id="Path"></path>
                <path d="M152,448 C154,489 138,454 139,474 C140,494 152,458 154,499" id="Path"></path>
                <path d="M143,499 C138,541 156,504 154,525 C152,546 142,509 137,551" id="Path" transform="translate(145.577931, 525.000000) scale(-1, -1) translate(-145.577931, -525.000000) "></path>
                <path d="M148,551 C150,590 134,556 135,576 C136,596 148,561 150,600" id="Path"></path>
                <path d="M150,600 C151,640 137,605 137,625 C137,645 150,610 151,650" id="Path"></path>
                <path d="M198,0 C203,41 213,6 215,26 C217,46 199,10 204,51" id="Path"></path>
                <path d="M204,51 C199,93 189,57 187,78 C185,99 203,62 198,104" id="Path"></path>
                <path d="M198,104 C198,138 212,109 212,126 C212,143 198,113 198,147" id="Path"></path>
                <path d="M198,147 C203,192 185,153 187,175 C189,197 199,158 204,203" id="Path"></path>
                <path d="M204,203 C198,240 189,208 186,226 C183,244 202,212 196,249" id="Path"></path>
                <path d="M196,249 C200,290 211,255 213,275 C215,295 197,259 201,300" id="Path"></path>
                <path d="M201,300 C198,337 215,305 213,323 C211,341 200,309 197,346" id="Path"></path>
                <path d="M197,346 C203,386 184,351 187,371 C190,391 198,356 204,396" id="Path"></path>
                <path d="M204,396 C202,438 218,402 217,423 C216,444 204,407 202,449" id="Path"></path>
                <path d="M202,449 C198,487 216,454 214,473 C212,492 201,459 197,497" id="Path"></path>
                <path d="M197,497 C198,537 184,502 184,522 C184,542 197,507 198,547" id="Path"></path>
                <path d="M198,547 C197,589 212,552 212,573 C212,594 198,557 197,599" id="Path"></path>
                <path d="M197,599 C196,640 211,605 211,625 C211,645 197,609 196,650" id="Path"></path>
                <path d="M246,0 C248,42 233,6 234,27 C235,48 247,11 249,53" id="Path"></path>
                <path d="M249,53 C253,88 236,57 238,75 C240,93 250,62 254,97" id="Path"></path>
                <path d="M254,97 C254,137 268,102 268,122 C268,142 254,107 254,147" id="Path"></path>
                <path d="M254,147 C253,192 268,153 268,175 C268,197 254,158 253,203" id="Path"></path>
                <path d="M253,203 C254,241 268,208 268,227 C268,246 253,213 254,251" id="Path"></path>
                <path d="M241,251 C239,290 255,256 254,276 C253,296 241,261 239,300" id="Path" transform="translate(246.522526, 275.500000) scale(-1, -1) translate(-246.522526, -275.500000) "></path>
                <path d="M252,300 C249,339 238,305 236,325 C234,345 251,310 248,349" id="Path"></path>
                <path d="M248,349 C248,390 234,355 234,375 C234,395 248,359 248,400" id="Path"></path>
                <path d="M248,400 C252,443 263,405 265,427 C267,449 249,411 253,454" id="Path"></path>
                <path d="M253,454 C249,490 239,459 237,477 C235,495 252,463 248,499" id="Path"></path>
                <path d="M248,499 C252,541 235,505 237,526 C239,547 249,510 253,552" id="Path"></path>
                <path d="M253,552 C253,589 267,557 267,575 C267,593 253,561 253,598" id="Path"></path>
                <path d="M253,598 C251,640 239,603 238,624 C237,645 253,608 251,650" id="Path"></path>
                <path d="M301,0 C300,41 315,6 315,26 C315,46 301,10 300,51" id="Path"></path>
                <path d="M300,51 C302,90 315,56 316,76 C317,96 301,61 303,100" id="Path"></path>
                <path d="M303,100 C301,140 289,105 288,125 C287,145 303,110 301,150" id="Path"></path>
                <path d="M313,150 C311,190 299,155 298,175 C297,195 312,160 310,200" id="Path" transform="translate(305.476033, 175.000000) rotate(-180.000000) translate(-305.476033, -175.000000) "></path>
                <path d="M298,200 C298,239 284,205 284,225 C284,245 298,210 298,249" id="Path"></path>
                <path d="M298,249 C297,289 312,254 312,274 C312,294 298,259 297,299" id="Path"></path>
                <path d="M297,299 C299,337 283,304 284,323 C285,342 297,309 299,347" id="Path"></path>
                <path d="M299,347 C301,389 285,353 286,374 C287,395 299,358 301,400" id="Path"></path>
                <path d="M301,400 C300,441 287,406 287,426 C287,446 301,410 300,451" id="Path"></path>
                <path d="M300,451 C301,492 315,457 315,477 C315,497 300,461 301,502" id="Path"></path>
                <path d="M301,502 C303,544 288,507 289,528 C290,549 302,512 304,554" id="Path"></path>
                <path d="M318,554 C318,588 304,559 304,576 C304,593 318,563 318,597" id="Path" transform="translate(311.000000, 575.500000) scale(-1, -1) translate(-311.000000, -575.500000) "></path>
                <path d="M304,597 C302,639 290,603 289,624 C288,645 304,608 302,650" id="Path"></path>
                <path d="M354,0 C352,40 368,5 367,25 C366,45 353,10 351,50" id="Path"></path>
                <path d="M351,50 C349,92 337,56 336,77 C335,98 350,61 348,103" id="Path"></path>
                <path d="M348,103 C350,141 335,108 336,127 C337,146 349,112 351,150" id="Path"></path>
                <path d="M351,150 C353,192 366,155 367,176 C368,197 352,160 354,202" id="Path"></path>
                <path d="M354,202 C350,243 340,208 338,228 C336,248 353,212 349,253" id="Path"></path>
                <path d="M349,253 C351,294 336,259 337,279 C338,299 350,263 352,304" id="Path"></path>
                <path d="M352,304 C350,343 338,309 337,329 C336,349 351,314 349,353" id="Path"></path>
                <path d="M349,353 C347,389 363,358 362,376 C361,394 349,362 347,398" id="Path"></path>
                <path d="M347,398 C347,443 333,404 333,426 C333,448 347,409 347,454" id="Path"></path>
                <path d="M347,454 C353,494 362,459 365,479 C368,499 348,464 354,504" id="Path"></path>
                <path d="M340,504 C339,538 354,508 354,525 C354,542 340,512 339,546" id="Path" transform="translate(346.500000, 525.000000) scale(-1, -1) translate(-346.500000, -525.000000) "></path>
                <path d="M353,546 C350,592 367,552 365,575 C363,598 352,557 349,603" id="Path"></path>
                <path d="M349,603 C350,641 336,608 336,627 C336,646 349,612 350,650" id="Path"></path>
                <path d="M403,0 C398,42 416,5 414,26 C412,47 402,10 397,52" id="Path"></path>
                <path d="M397,52 C396,93 383,58 383,78 C383,98 397,62 396,103" id="Path"></path>
                <path d="M396,103 C399,141 410,108 412,127 C414,146 397,112 400,150" id="Path"></path>
                <path d="M400,150 C401,187 415,155 415,173 C415,191 400,159 401,196" id="Path"></path>
                <path d="M401,196 C403,241 415,202 416,224 C417,246 401,207 403,252" id="Path"></path>
                <path d="M415,252 C412,287 401,256 399,274 C397,292 414,261 411,296" id="Path" transform="translate(406.917951, 274.000000) scale(-1, -1) translate(-406.917951, -274.000000) "></path>
                <path d="M399,296 C400,338 386,301 386,322 C386,343 399,306 400,348" id="Path"></path>
                <path d="M400,348 C398,386 414,353 413,372 C412,391 400,358 398,396" id="Path"></path>
                <path d="M398,396 C398,442 384,402 384,425 C384,448 398,407 398,453" id="Path"></path>
                <path d="M398,453 C403,494 413,459 415,479 C417,499 399,463 404,504" id="Path"></path>
                <path d="M414,504 C408,538 400,508 397,525 C394,542 413,512 407,546" id="Path" transform="translate(405.338185, 525.000000) rotate(-180.000000) translate(-405.338185, -525.000000) "></path>
                <path d="M385,546 C389,590 400,552 402,574 C404,596 386,557 390,601" id="Path" transform="translate(393.577857, 573.500000) scale(-1, -1) translate(-393.577857, -573.500000) "></path>
                <path d="M402,601 C399,640 388,606 386,626 C384,646 401,611 398,650" id="Path"></path>
                <path d="M446,0 C452,40 461,5 464,25 C467,45 448,10 454,50" id="Path"></path>
                <path d="M454,50 C452,92 440,56 439,77 C438,98 454,61 452,103" id="Path"></path>
                <path d="M452,103 C451,141 438,108 438,127 C438,146 452,113 451,151" id="Path"></path>
                <path d="M451,151 C452,188 438,156 438,174 C438,192 451,160 452,197" id="Path"></path>
                <path d="M452,197 C452,239 438,202 438,223 C438,244 452,207 452,249" id="Path"></path>
                <path d="M439,249 C441,289 453,254 454,274 C455,294 439,259 441,299" id="Path" transform="translate(446.522526, 274.000000) scale(-1, -1) translate(-446.522526, -274.000000) "></path>
                <path d="M454,299 C452,342 440,304 439,326 C438,348 453,310 451,353" id="Path"></path>
                <path d="M439,353 C435,387 453,358 451,375 C449,392 438,362 434,396" id="Path" transform="translate(442.577857, 374.500000) scale(-1, -1) translate(-442.577857, -374.500000) "></path>
                <path d="M446,396 C450,440 433,402 435,424 C437,446 447,407 451,451" id="Path"></path>
                <path d="M451,451 C451,489 437,456 437,475 C437,494 451,461 451,499" id="Path"></path>
                <path d="M451,499 C451,541 437,504 437,525 C437,546 451,509 451,551" id="Path"></path>
                <path d="M451,551 C449,593 437,557 436,578 C435,599 450,562 448,604" id="Path"></path>
                <path d="M448,604 C451,641 434,609 436,627 C438,645 449,613 452,650" id="Path"></path>
                <path d="M509,0 C511,41 496,6 497,26 C498,46 510,10 512,51" id="Path" transform="translate(504.476033, 25.500000) scale(-1, -1) translate(-504.476033, -25.500000) "></path>
                <path d="M500,51 C498,89 486,56 485,75 C484,94 500,60 498,98" id="Path"></path>
                <path d="M498,98 C496,141 512,103 511,125 C510,147 498,109 496,152" id="Path"></path>
                <path d="M496,152 C502,189 483,157 486,175 C489,193 498,161 504,198" id="Path"></path>
                <path d="M504,198 C502,236 518,203 517,222 C516,241 504,208 502,246" id="Path"></path>
                <path d="M502,246 C498,292 488,252 486,275 C484,298 501,258 497,304" id="Path"></path>
                <path d="M497,304 C500,340 483,309 485,327 C487,345 498,313 501,349" id="Path"></path>
                <path d="M501,349 C499,391 487,355 486,376 C485,397 500,360 498,402" id="Path"></path>
                <path d="M498,402 C501,438 484,407 486,425 C488,443 499,411 502,447" id="Path"></path>
                <path d="M502,447 C498,488 516,453 514,473 C512,493 501,457 497,498" id="Path"></path>
                <path d="M497,498 C500,536 483,503 485,522 C487,541 498,508 501,546" id="Path"></path>
                <path d="M501,546 C503,588 487,552 488,573 C489,594 501,557 503,599" id="Path"></path>
                <path d="M503,599 C498,640 516,605 514,625 C512,645 502,609 497,650" id="Path"></path>
                <path d="M553,0 C547,37 539,5 536,23 C533,41 552,9 546,46" id="Path"></path>
                <path d="M546,46 C546,86 532,51 532,71 C532,91 546,56 546,96" id="Path"></path>
                <path d="M546,96 C552,138 533,101 536,122 C539,143 547,106 553,148" id="Path"></path>
                <path d="M553,148 C549,192 539,154 537,176 C535,198 552,159 548,203" id="Path"></path>
                <path d="M548,203 C547,242 562,208 562,228 C562,248 548,213 547,252" id="Path"></path>
                <path d="M547,252 C550,290 533,257 535,276 C537,295 548,262 551,300" id="Path"></path>
                <path d="M551,300 C553,338 537,305 538,324 C539,343 551,310 553,348" id="Path"></path>
                <path d="M553,348 C553,393 539,354 539,376 C539,398 553,359 553,404" id="Path"></path>
                <path d="M553,404 C548,438 566,408 564,425 C562,442 552,412 547,446" id="Path"></path>
                <path d="M547,446 C553,490 562,452 565,474 C568,496 548,457 554,501" id="Path"></path>
                <path d="M554,501 C553,539 540,506 540,525 C540,544 554,510 553,548" id="Path"></path>
                <path d="M553,548 C551,589 567,554 566,574 C565,594 553,558 551,599" id="Path"></path>
                <path d="M551,599 C549,640 565,605 564,625 C563,645 551,609 549,650" id="Path"></path>
                <path d="M604,0 C598,37 589,5 586,23 C583,41 602,9 596,46" id="Path"></path>
                <path d="M596,46 C599,92 582,52 584,75 C586,98 597,58 600,104" id="Path"></path>
                <path d="M600,104 C598,143 614,109 613,129 C612,149 600,114 598,153" id="Path"></path>
                <path d="M598,153 C602,194 613,159 615,179 C617,199 599,163 603,204" id="Path"></path>
                <path d="M603,204 C601,242 617,209 616,228 C615,247 602,213 600,251" id="Path"></path>
                <path d="M600,251 C598,293 586,256 585,277 C584,298 600,261 598,303" id="Path"></path>
                <path d="M611,303 C613,339 597,308 598,326 C599,344 611,312 613,348" id="Path" transform="translate(605.477474, 325.500000) scale(-1, -1) translate(-605.477474, -325.500000) "></path>
                <path d="M600,348 C603,386 586,353 588,372 C590,391 601,358 604,396" id="Path"></path>
                <path d="M604,396 C600,436 618,401 616,421 C614,441 603,406 599,446" id="Path"></path>
                <path d="M599,446 C597,492 585,452 584,475 C583,498 598,458 596,504" id="Path"></path>
                <path d="M596,504 C602,544 583,509 586,529 C589,549 598,514 604,554" id="Path"></path>
                <path d="M604,554 C601,593 590,559 588,579 C586,599 603,564 600,603" id="Path"></path>
                <path d="M614,603 C614,641 600,608 600,627 C600,646 614,612 614,650" id="Path" transform="translate(607.000000, 626.500000) scale(-1, -1) translate(-607.000000, -626.500000) "></path>
                <path d="M651,0 C650,38 637,5 637,24 C637,43 651,10 650,48" id="Path"></path>
                <path d="M650,48 C648,88 636,53 635,73 C634,93 650,58 648,98" id="Path"></path>
                <path d="M648,98 C648,140 634,103 634,124 C634,145 648,108 648,150" id="Path"></path>
                <path d="M648,150 C650,187 635,155 636,173 C637,191 649,159 651,196" id="Path"></path>
                <path d="M651,196 C652,242 638,202 638,225 C638,248 651,207 652,253" id="Path"></path>
                <path d="M652,253 C654,290 666,258 667,276 C668,294 652,262 654,299" id="Path"></path>
                <path d="M654,299 C653,337 640,304 640,323 C640,342 654,308 653,346" id="Path"></path>
                <path d="M653,346 C647,388 639,352 636,373 C633,394 652,357 646,399" id="Path"></path>
                <path d="M646,399 C649,441 660,405 662,426 C664,447 647,410 650,452" id="Path"></path>
                <path d="M650,452 C649,494 636,457 636,478 C636,499 650,462 649,504" id="Path"></path>
                <path d="M649,504 C652,542 635,509 637,528 C639,547 650,514 653,552" id="Path"></path>
                <path d="M653,552 C648,590 666,557 664,576 C662,595 652,562 647,600" id="Path"></path>
                <path d="M647,600 C652,640 634,605 636,625 C638,645 648,610 653,650" id="Path"></path>
                <path d="M712,0 C708,42 698,6 696,27 C694,48 711,11 707,53" id="Path" transform="translate(703.917864, 26.500000) scale(-1, -1) translate(-703.917864, -26.500000) "></path>
                <path d="M696,53 C696,91 710,58 710,77 C710,96 696,63 696,101" id="Path"></path>
                <path d="M696,101 C701,138 711,106 713,124 C715,142 697,110 702,147" id="Path"></path>
                <path d="M702,147 C697,188 687,153 685,173 C683,193 701,157 696,198" id="Path"></path>
                <path d="M696,198 C702,239 711,204 714,224 C717,244 697,208 703,249" id="Path"></path>
                <path d="M703,249 C704,293 690,255 690,277 C690,299 703,260 704,304" id="Path"></path>
                <path d="M704,304 C700,342 690,309 688,328 C686,347 703,314 699,352" id="Path"></path>
                <path d="M699,352 C697,393 713,358 712,378 C711,398 698,362 696,403" id="Path"></path>
                <path d="M696,403 C699,438 682,407 684,425 C686,443 697,412 700,447" id="Path"></path>
                <path d="M700,447 C702,486 687,452 688,472 C689,492 701,457 703,496" id="Path"></path>
                <path d="M703,496 C704,542 690,502 690,525 C690,548 703,507 704,553" id="Path"></path>
                <path d="M704,553 C703,594 690,559 690,579 C690,599 704,563 703,604" id="Path"></path>
                <path d="M703,604 C700,641 689,609 687,627 C685,645 702,613 699,650" id="Path"></path>
                <path d="M753,0 C748,42 738,6 736,27 C734,48 752,11 747,53" id="Path"></path>
                <path d="M747,53 C753,91 734,58 737,77 C740,96 748,62 754,100" id="Path"></path>
                <path d="M754,100 C754,142 768,106 768,127 C768,148 754,111 754,153" id="Path"></path>
                <path d="M754,153 C750,188 740,157 738,175 C736,193 753,162 749,197" id="Path"></path>
                <path d="M749,197 C751,243 764,203 765,226 C766,249 750,208 752,254" id="Path"></path>
                <path d="M752,254 C751,290 738,259 738,277 C738,295 752,263 751,299" id="Path"></path>
                <path d="M751,299 C751,341 737,305 737,326 C737,347 751,310 751,352" id="Path"></path>
                <path d="M751,352 C748,390 765,357 763,376 C761,395 750,361 747,399" id="Path"></path>
                <path d="M747,399 C749,439 762,404 763,424 C764,444 748,409 750,449" id="Path"></path>
                <path d="M750,449 C750,488 736,454 736,474 C736,494 750,459 750,498" id="Path"></path>
                <path d="M750,498 C752,539 736,504 737,524 C738,544 750,508 752,549" id="Path"></path>
                <path d="M752,549 C750,590 766,555 765,575 C764,595 751,559 749,600" id="Path"></path>
                <path d="M749,600 C751,640 764,605 765,625 C766,645 750,610 752,650" id="Path"></path>
                <path d="M798,0 C802,43 785,5 787,27 C789,49 799,11 803,54" id="Path"></path>
                <path d="M803,54 C803,91 789,59 789,77 C789,95 803,63 803,100" id="Path"></path>
                <path d="M803,100 C798,140 788,105 786,125 C784,145 802,110 797,150" id="Path"></path>
                <path d="M797,150 C801,192 784,155 786,176 C788,197 798,160 802,202" id="Path"></path>
                <path d="M802,202 C797,240 815,207 813,226 C811,245 801,211 796,249" id="Path"></path>
                <path d="M796,249 C800,287 783,254 785,273 C787,292 797,259 801,297" id="Path"></path>
                <path d="M801,297 C797,343 815,303 813,326 C811,349 800,308 796,354" id="Path"></path>
                <path d="M796,354 C797,388 783,358 783,375 C783,392 796,362 797,396" id="Path"></path>
                <path d="M797,396 C798,437 784,402 784,422 C784,442 797,406 798,447" id="Path"></path>
                <path d="M798,447 C797,489 812,453 812,474 C812,495 798,458 797,500" id="Path"></path>
                <path d="M797,500 C801,542 812,506 814,527 C816,548 798,511 802,553" id="Path"></path>
                <path d="M790,553 C786,594 804,559 802,579 C800,599 789,563 785,604" id="Path" transform="translate(793.577857, 578.500000) scale(-1, -1) translate(-793.577857, -578.500000) "></path>
                <path d="M797,604 C799,641 812,609 813,627 C814,645 798,613 800,650" id="Path"></path>
                <path d="M850,0 C848,42 836,6 835,27 C834,48 849,11 847,53" id="Path"></path>
                <path d="M847,53 C846,88 833,57 833,75 C833,93 847,62 846,97" id="Path"></path>
                <path d="M846,97 C851,137 833,102 835,122 C837,142 847,107 852,147" id="Path"></path>
                <path d="M852,147 C853,187 839,152 839,172 C839,192 852,157 853,197" id="Path"></path>
                <path d="M853,197 C851,239 839,203 838,224 C837,245 853,208 851,250" id="Path"></path>
                <path d="M851,250 C849,288 837,255 836,274 C835,293 851,259 849,297" id="Path"></path>
                <path d="M849,297 C847,339 835,303 834,324 C833,345 849,308 847,350" id="Path"></path>
                <path d="M857,350 C863,392 844,355 847,376 C850,397 858,360 864,402" id="Path" transform="translate(855.338185, 376.000000) scale(-1, -1) translate(-855.338185, -376.000000) "></path>
                <path d="M854,402 C852,440 840,407 839,426 C838,445 853,411 851,449" id="Path"></path>
                <path d="M851,449 C849,487 865,454 864,473 C863,492 850,459 848,497" id="Path"></path>
                <path d="M848,497 C849,543 835,503 835,526 C835,549 848,508 849,554" id="Path"></path>
                <path d="M849,554 C850,589 864,558 864,576 C864,594 849,563 850,598" id="Path"></path>
                <path d="M850,598 C851,640 837,603 837,624 C837,645 850,608 851,650" id="Path"></path>
            </g>
            <rect id="Rectangle" fill-opacity="0" fill="#000000" fill-rule="nonzero" x="0" y="0" width="900" height="650"></rect>
        </g>
    </g>
</svg>